{
classes = (
{
automatic = 1;
code = "A B C D E F G H I J K L M N O P Q R S T U V W X Y Z Agrave Aacute Acircumflex Atilde Adieresis Aring AE Ccedilla Egrave Eacute Ecircumflex Edieresis Igrave Iacute Icircumflex Idieresis Eth Ntilde Ograve Oacute Ocircumflex Otilde Odieresis Oslash Ugrave Uacute Ucircumflex Udieresis Yacute Thorn Cacute Ccaron Gbreve Idotaccent Lslash OE Scedilla Scaron Ydieresis Zcaron Omega Delta";
name = Uppercase;
}
);
copyright = "Original Fonts are \U00A9 Bitstream. OpenDyslexic changes and additional glyphs by Abelardo Gonzalez are licensed under a Creative Commons Attribution 3.0 Unported License.\012Based on a work at http://dyslexicfonts.com. \U26612012 by Abelardo Gonzalez. Copying is an act of love. Please copy.\012Bitstream license available here: http://opendyslexic.org/legal/";
customParameters = (
{
name = glyphOrder;
value = (
    ".notdef",
    uni0000,
    uni000D,
    NULL,
    space,
    exclam,
    quotedbl,
    numbersign,
    dollar,
    percent,
    ampersand,
    quotesingle,
    parenleft,
    parenright,
    asterisk,
    plus,
    comma,
    hyphen,
    period,
    slash,
    zero,
    one,
    two,
    three,
    four,
    five,
    six,
    seven,
    eight,
    nine,
    colon,
    semicolon,
    less,
    equal,
    greater,
    question,
    at,
    A,
    B,
    C,
    D,
    E,
    F,
    G,
    H,
    I,
    J,
    K,
    L,
    M,
    N,
    O,
    P,
    Q,
    R,
    S,
    T,
    U,
    V,
    W,
    X,
    Y,
    Z,
    bracketleft,
    backslash,
    bracketright,
    asciicircum,
    underscore,
    grave,
    a,
    b,
    c,
    d,
    e,
    f,
    g,
    h,
    i,
    j,
    k,
    l,
    m,
    n,
    o,
    p,
    q,
    r,
    s,
    t,
    u,
    v,
    w,
    x,
    y,
    z,
    braceleft,
    bar,
    braceright,
    asciitilde,
    uni00A0,
    exclamdown,
    cent,
    sterling,
    currency,
    yen,
    brokenbar,
    section,
    dieresis,
    copyright,
    ordfeminine,

glyphs = (
{
glyphname = .notdef;
lastChange = "2012-10-19 02:34:44 -0500";
layers = (
{
layerId = "013FA67F-D7C9-4F04-AAC6-32032829ED9A";
name = "Bold Italic";
paths = (
{
closed = 1;
nodes = (
"186 -320 LINE",
"278 256 OFFCURVE",
"327 844 OFFCURVE",
"338 1439 CURVE",
"513 1412 OFFCURVE",
"674 1399 OFFCURVE",
"833 1399 CURVE SMOOTH",
"998 1399 OFFCURVE",
"1172 1412 OFFCURVE",
"1359 1439 CURVE",
"1263 843 OFFCURVE",
"1208 251 OFFCURVE",
"1203 -346 CURVE",
"1028 -321 OFFCURVE",
"861 -310 OFFCURVE",
"697 -310 CURVE SMOOTH",
"536 -310 OFFCURVE",
"373 -320 OFFCURVE",
"209 -343 CURVE"
);
},
{
closed = 1;
nodes = (
"333 -28 LINE",
"341 -27 OFFCURVE",
"349 -26 OFFCURVE",
"357 -26 CURVE",
"354 -51 LINE"
);
},
{
closed = 1;
nodes = (
"447 847 OFFCURVE",
"412 414 OFFCURVE",
"357 -26 CURVE",
"478 -18 OFFCURVE",
"602 -14 OFFCURVE",
"723 -14 CURVE SMOOTH",
"786 -14 OFFCURVE",
"845 -14 OFFCURVE",
"903 -16 CURVE SMOOTH",
"961 -18 OFFCURVE",
"1018 -22 OFFCURVE",
"1081 -26 CURVE",
"1104 417 OFFCURVE",
"1142 849 OFFCURVE",
"1206 1289 CURVE",
"1077 1278 OFFCURVE",
"954 1271 OFFCURVE",
"825 1271 CURVE SMOOTH",
"704 1271 OFFCURVE",
"584 1277 OFFCURVE",
"464 1288 CURVE"
);
}
);
width = 1544;
}
);
},
{
glyphname = exclam;
lastChange = "2012-10-19 02:34:44 -0500";
layers = (
{
layerId = "013FA67F-D7C9-4F04-AAC6-32032829ED9A";
name = "Bold Italic";
paths = (
{
closed = 1;
nodes = (
"246 285 LINE",
"277 292 OFFCURVE",
"308 296 OFFCURVE",
"343 296 CURVE SMOOTH",
"372 296 OFFCURVE",
"409 291 OFFCURVE",
"452 280 CURVE",
"452 233 LINE SMOOTH",
"452 189 OFFCURVE",
"453 145 OFFCURVE",
"454 101 CURVE SMOOTH",
"454 96 OFFCURVE",
"454 89 OFFCURVE",
"454 80 CURVE SMOOTH",
"454 71 OFFCURVE",
"454 61 OFFCURVE",
"455 52 CURVE",
"455 43 OFFCURVE",
"455 34 OFFCURVE",
"455 25 CURVE SMOOTH",
"455 16 OFFCURVE",
"455 8 OFFCURVE",
"455 3 CURVE",
"404 26 OFFCURVE",
"360 37 OFFCURVE",
"324 37 CURVE SMOOTH",
"287 37 OFFCURVE",
"239 25 OFFCURVE",
"181 1 CURVE",
"209 153 LINE",
"209 152 LINE",
"212 171 OFFCURVE",
"216 191 OFFCURVE",
"219 211 CURVE SMOOTH",
"222 231 OFFCURVE",
"226 251 OFFCURVE",
"230 270 CURVE"
);
},
{
closed = 1;
nodes = (
"365 1465 LINE",
"389 1458 OFFCURVE",
"414 1455 OFFCURVE",
"439 1455 CURVE SMOOTH",
"468 1455 OFFCURVE",
"506 1462 OFFCURVE",
"552 1477 CURVE",
"536 1302 OFFCURVE",
"520 1103 OFFCURVE",
"508 930 CURVE SMOOTH",
"507 915 OFFCURVE",
"505 899 OFFCURVE",
"504 882 CURVE SMOOTH",
"503 865 OFFCURVE",
"501 849 OFFCURVE",
"500 834 CURVE",
"500 809 OFFCURVE",
"500 785 OFFCURVE",
"500 761 CURVE SMOOTH",
"500 737 OFFCURVE",
"500 713 OFFCURVE",
"499 689 CURVE",
"499 680 OFFCURVE",
"499 669 OFFCURVE",
"499 657 CURVE SMOOTH",
"499 644 OFFCURVE",
"499 631 OFFCURVE",
"499 618 CURVE",
"498 604 OFFCURVE",
"498 591 OFFCURVE",
"498 578 CURVE SMOOTH",
"498 565 OFFCURVE",
"498 555 OFFCURVE",
"498 546 CURVE SMOOTH",
"498 475 LINE",
"443 484 OFFCURVE",
"401 488 OFFCURVE",
"365 488 CURVE SMOOTH",
"328 488 OFFCURVE",
"282 484 OFFCURVE",
"223 475 CURVE",
"270 792 OFFCURVE",
"307 1130 OFFCURVE",
"340 1449 CURVE"
);
}
);
width = 722;
}
);
unicode = 0021;
},
{
glyphname = quotedbl;
lastChange = "2012-10-19 02:34:44 -0500";
layers = (
{
layerId = "013FA67F-D7C9-4F04-AAC6-32032829ED9A";
name = "Bold Italic";
paths = (
{
closed = 1;
nodes = (
"540 1455 LINE",
"537 1276 OFFCURVE",
"527 1094 OFFCURVE",
"504 903 CURVE",
"489 902 OFFCURVE",
"472 902 OFFCURVE",
"453 901 CURVE SMOOTH",
"434 900 OFFCURVE",
"414 899 OFFCURVE",
"394 898 CURVE SMOOTH",
"354 896 OFFCURVE",
"314 893 OFFCURVE",
"285 890 CURVE",
"328 1074 OFFCURVE",
"348 1252 OFFCURVE",
"348 1427 CURVE SMOOTH",
"348 1485 LINE",
"373 1482 OFFCURVE",
"404 1481 OFFCURVE",
"435 1479 CURVE SMOOTH",
"450 1478 OFFCURVE",
"466 1477 OFFCURVE",
"481 1476 CURVE SMOOTH",
"496 1475 OFFCURVE",
"509 1475 OFFCURVE",
"522 1474 CURVE"
);
},
{
closed = 1;
nodes = (
"933 1460 LINE",
"905 1322 OFFCURVE",
"891 1185 OFFCURVE",
"891 1048 CURVE SMOOTH",
"891 1003 OFFCURVE",
"891 954 OFFCURVE",
"898 890 CURVE",
"869 893 OFFCURVE",
"829 896 OFFCURVE",
"789 898 CURVE SMOOTH",
"769 899 OFFCURVE",
"750 900 OFFCURVE",
"731 901 CURVE SMOOTH",
"712 902 OFFCURVE",
"695 902 OFFCURVE",
"681 903 CURVE",
"689 1095 OFFCURVE",
"710 1284 OFFCURVE",
"741 1475 CURVE",
"778 1475 OFFCURVE",
"830 1477 OFFCURVE",
"867 1480 CURVE SMOOTH",
"912 1483 LINE"
);
}
);
width = 977;
}
);
unicode = 0022;
},
{
glyphname = numbersign;
lastChange = "2012-10-19 02:34:44 -0500";
layers = (
{
layerId = "013FA67F-D7C9-4F04-AAC6-32032829ED9A";
name = "Bold Italic";
paths = (
{
closed = 1;
nodes = (
"1019 879 LINE",
"992 879 LINE",
"1000 905 LINE"
);
},
{
closed = 1;
nodes = (
"895 587 LINE",
"906 619 OFFCURVE",
"916 651 OFFCURVE",
"927 684 CURVE SMOOTH",
"938 717 OFFCURVE",
"949 749 OFFCURVE",
"960 781 CURVE SMOOTH",
"992 879 LINE",
"950 879 OFFCURVE",
"910 879 OFFCURVE",
"871 879 CURVE SMOOTH",
"832 879 OFFCURVE",
"790 879 OFFCURVE",
"746 878 CURVE",
"745 873 OFFCURVE",
"743 869 OFFCURVE",
"742 865 CURVE",
"740 861 OFFCURVE",
"738 856 OFFCURVE",
"737 851 CURVE",
"729 827 OFFCURVE",
"722 804 OFFCURVE",
"715 783 CURVE SMOOTH",
"701 739 OFFCURVE",
"687 698 OFFCURVE",
"672 655 CURVE SMOOTH",
"665 633 OFFCURVE",
"657 610 OFFCURVE",
"649 586 CURVE",
"737 586 LINE SMOOTH",
"756 586 OFFCURVE",
"776 586 OFFCURVE",
"795 587 CURVE",
"814 587 OFFCURVE",
"833 587 OFFCURVE",
"852 587 CURVE SMOOTH"
);
},
{
closed = 1;
nodes = (
"933 1432 LINE",
"910 1367 OFFCURVE",
"888 1303 OFFCURVE",
"865 1238 CURVE SMOOTH",
"842 1173 OFFCURVE",
"820 1108 OFFCURVE",
"799 1043 CURVE",
"822 1043 OFFCURVE",
"843 1043 OFFCURVE",
"863 1043 CURVE SMOOTH",
"883 1043 OFFCURVE",
"903 1043 OFFCURVE",
"923 1043 CURVE SMOOTH",
"942 1043 OFFCURVE",
"962 1043 OFFCURVE",
"983 1044 CURVE",
"1003 1044 OFFCURVE",
"1024 1044 OFFCURVE",
"1047 1044 CURVE",
"1094 1173 OFFCURVE",
"1147 1312 OFFCURVE",
"1198 1437 CURVE",
"1219 1438 OFFCURVE",
"1243 1440 OFFCURVE",
"1268 1441 CURVE SMOOTH",
"1293 1442 OFFCURVE",
"1316 1444 OFFCURVE",
"1337 1445 CURVE",
"1377 1445 LINE",
"1321 1313 OFFCURVE",
"1267 1181 OFFCURVE",
"1220 1046 CURVE",
"1311 1049 OFFCURVE",
"1419 1052 OFFCURVE",
"1507 1056 CURVE",
"1502 1027 OFFCURVE",
"1495 976 OFFCURVE",
"1491 947 CURVE SMOOTH",
"1483 886 LINE",
"1430 885 OFFCURVE",
"1376 884 OFFCURVE",
"1322 883 CURVE SMOOTH",
"1267 882 OFFCURVE",
"1213 882 OFFCURVE",
"1160 881 CURVE",
"1151 855 OFFCURVE",
"1143 830 OFFCURVE",
"1135 806 CURVE SMOOTH",
"1119 758 OFFCURVE",
"1104 711 OFFCURVE",
"1089 663 CURVE SMOOTH",
"1081 639 OFFCURVE",
"1073 614 OFFCURVE",
"1065 587 CURVE",
"1085 587 OFFCURVE",
"1105 587 OFFCURVE",
"1125 586 CURVE SMOOTH",
"1165 585 OFFCURVE",
"1205 584 OFFCURVE",
"1268 584 CURVE SMOOTH",
"1299 583 OFFCURVE",
"1327 583 OFFCURVE",
"1352 583 CURVE",
"1351 572 OFFCURVE",
"1350 559 OFFCURVE",
"1349 542 CURVE SMOOTH",
"1348 525 OFFCURVE",
"1347 511 OFFCURVE",
"1346 500 CURVE SMOOTH",
"1341 417 LINE",
"1305 418 OFFCURVE",
"1266 419 OFFCURVE",
"1224 420 CURVE SMOOTH",
"1182 421 OFFCURVE",
"1143 421 OFFCURVE",
"1107 422 CURVE SMOOTH",
"1089 422 OFFCURVE",
"1073 422 OFFCURVE",
"1060 423 CURVE SMOOTH",
"1046 424 OFFCURVE",
"1030 424 OFFCURVE",
"1012 424 CURVE",
"997 375 OFFCURVE",
"980 323 OFFCURVE",
"964 276 CURVE SMOOTH",
"958 258 OFFCURVE",
"952 239 OFFCURVE",
"946 218 CURVE SMOOTH",
"933 176 OFFCURVE",
"920 133 OFFCURVE",
"908 92 CURVE",
"901 71 OFFCURVE",
"895 52 OFFCURVE",
"890 34 CURVE",
"867 35 OFFCURVE",
"831 36 OFFCURVE",
"808 36 CURVE SMOOTH",
"714 36 LINE",
"785 255 LINE SMOOTH",
"790 271 OFFCURVE",
"795 286 OFFCURVE",
"800 300 CURVE SMOOTH",
"805 313 OFFCURVE",
"809 327 OFFCURVE",
"813 340 CURVE SMOOTH",
"817 353 OFFCURVE",
"821 367 OFFCURVE",
"826 381 CURVE SMOOTH",
"831 394 OFFCURVE",
"836 409 OFFCURVE",
"841 425 CURVE",
"798 425 OFFCURVE",
"757 425 OFFCURVE",
"718 425 CURVE SMOOTH",
"679 425 OFFCURVE",
"637 424 OFFCURVE",
"592 423 CURVE",
"551 302 OFFCURVE",
"505 183 OFFCURVE",
"458 63 CURVE",
"458 65 LINE",
"446 31 LINE",
"365 27 LINE",
"266 23 LINE",
"322 154 OFFCURVE",
"374 287 OFFCURVE",
"421 422 CURVE",
"375 421 OFFCURVE",
"327 419 OFFCURVE",
"277 418 CURVE SMOOTH",
"226 416 OFFCURVE",
"179 414 OFFCURVE",
"134 413 CURVE",
"135 419 OFFCURVE",
"136 426 OFFCURVE",
"137 435 CURVE SMOOTH",
"138 443 OFFCURVE",
"140 452 OFFCURVE",
"141 461 CURVE SMOOTH",
"142 470 OFFCURVE",
"143 478 OFFCURVE",
"144 487 CURVE SMOOTH",
"145 495 OFFCURVE",
"145 502 OFFCURVE",
"146 508 CURVE SMOOTH",
"147 513 OFFCURVE",
"147 518 OFFCURVE",
"148 525 CURVE",
"149 538 OFFCURVE",
"152 553 OFFCURVE",
"154 566 CURVE SMOOTH",
"155 572 OFFCURVE",
"155 577 OFFCURVE",
"156 581 CURVE",
"332 583 LINE SMOOTH",
"387 583 OFFCURVE",
"424 584 OFFCURVE",
"479 585 CURVE",
"514 688 OFFCURVE",
"542 775 OFFCURVE",
"577 880 CURVE",
"484 880 OFFCURVE",
"375 882 OFFCURVE",
"286 885 CURVE",
"290 956 LINE",
"293 983 OFFCURVE",
"294 1025 OFFCURVE",
"294 1052 CURVE",
"406 1047 OFFCURVE",
"518 1045 OFFCURVE",
"629 1044 CURVE",
"668 1171 OFFCURVE",
"713 1307 OFFCURVE",
"754 1432 CURVE"
);
}
);
width = 1562;
}
);
unicode = 0023;
},
{
glyphname = dollar;
lastChange = "2012-10-19 02:34:44 -0500";
layers = (
{
layerId = "013FA67F-D7C9-4F04-AAC6-32032829ED9A";
name = "Bold Italic";
paths = (
{
closed = 1;
nodes = (
"647 -243 LINE",
"622 -242 OFFCURVE",
"590 -241 OFFCURVE",
"559 -241 CURVE SMOOTH",
"543 -241 OFFCURVE",
"527 -241 OFFCURVE",
"512 -241 CURVE SMOOTH",
"497 -241 OFFCURVE",
"483 -241 OFFCURVE",
"470 -241 CURVE",
"481 -181 LINE SMOOTH",
"485 -160 OFFCURVE",
"489 -141 OFFCURVE",
"492 -123 CURVE SMOOTH",
"498 -87 OFFCURVE",
"503 -51 OFFCURVE",
"510 -15 CURVE SMOOTH",
"513 3 OFFCURVE",
"517 22 OFFCURVE",
"520 43 CURVE",
"396 50 OFFCURVE",
"272 70 OFFCURVE",
"148 121 CURVE",
"160 205 LINE",
"161 216 OFFCURVE",
"163 230 OFFCURVE",
"165 245 CURVE",
"166 260 OFFCURVE",
"168 275 OFFCURVE",
"170 291 CURVE SMOOTH",
"172 306 OFFCURVE",
"174 322 OFFCURVE",
"176 337 CURVE",
"177 352 OFFCURVE",
"179 365 OFFCURVE",
"180 376 CURVE",
"297 297 OFFCURVE",
"420 256 OFFCURVE",
"544 251 CURVE",
"563 427 LINE",
"581 601 LINE",
"485 621 OFFCURVE",
"389 651 OFFCURVE",
"318 724 CURVE SMOOTH",
"258 788 OFFCURVE",
"240 877 OFFCURVE",
"240 964 CURVE",
"243 1016 OFFCURVE",
"262 1071 OFFCURVE",
"293 1119 CURVE SMOOTH",
"324 1167 OFFCURVE",
"365 1208 OFFCURVE",
"416 1235 CURVE",
"501 1274 OFFCURVE",
"585 1289 OFFCURVE",
"661 1294 CURVE",
"668 1349 LINE",
"669 1362 OFFCURVE",
"671 1375 OFFCURVE",
"673 1390 CURVE",
"674 1404 OFFCURVE",
"676 1418 OFFCURVE",
"677 1433 CURVE",
"680 1462 OFFCURVE",
"682 1493 OFFCURVE",
"685 1518 CURVE",
"692 1518 OFFCURVE",
"701 1518 OFFCURVE",
"714 1518 CURVE",
"727 1517 OFFCURVE",
"736 1517 OFFCURVE",
"743 1517 CURVE",
"750 1516 OFFCURVE",
"760 1516 OFFCURVE",
"773 1516 CURVE SMOOTH",
"786 1516 OFFCURVE",
"795 1516 OFFCURVE",
"802 1516 CURVE",
"778 1296 LINE",
"878 1291 OFFCURVE",
"988 1279 OFFCURVE",
"1101 1248 CURVE",
"1090 1168 LINE",
"1077 1076 LINE",
"970 1132 OFFCURVE",
"865 1152 OFFCURVE",
"762 1159 CURVE",
"747 1026 OFFCURVE",
"734 895 OFFCURVE",
"721 762 CURVE SMOOTH",
"719 742 LINE",
"768 733 OFFCURVE",
"819 721 OFFCURVE",
"868 704 CURVE SMOOTH",
"917 687 OFFCURVE",
"963 664 OFFCURVE",
"1002 629 CURVE SMOOTH",
"1062 573 OFFCURVE",
"1086 485 OFFCURVE",
"1086 402 CURVE SMOOTH",
"1086 354 OFFCURVE",
"1074 303 OFFCURVE",
"1051 256 CURVE SMOOTH",
"1028 209 OFFCURVE",
"996 166 OFFCURVE",
"956 134 CURVE",
"871 74 OFFCURVE",
"771 50 OFFCURVE",
"674 42 CURVE",
"672 -54 LINE SMOOTH",
"671 -83 OFFCURVE",
"670 -111 OFFCURVE",
"670 -139 CURVE",
"669 -167 OFFCURVE",
"669 -195 OFFCURVE",
"668 -224 CURVE"
);
},
{
closed = 1;
nodes = (
"591 754 LINE",
"591 755 LINE",
"593 755 LINE"
);
},
{
closed = 1;
nodes = (
"389 883 OFFCURVE",
"416 841 OFFCURVE",
"454 810 CURVE SMOOTH",
"492 779 OFFCURVE",
"542 760 OFFCURVE",
"591 755 CURVE",
"596 797 OFFCURVE",
"600 839 OFFCURVE",
"604 881 CURVE SMOOTH",
"608 922 OFFCURVE",
"612 964 OFFCURVE",
"617 1007 CURVE SMOOTH",
"620 1033 OFFCURVE",
"622 1057 OFFCURVE",
"624 1078 CURVE SMOOTH",
"626 1099 OFFCURVE",
"629 1124 OFFCURVE",
"632 1151 CURVE",
"569 1143 OFFCURVE",
"513 1129 OFFCURVE",
"462 1088 CURVE SMOOTH",
"414 1049 OFFCURVE",
"389 995 OFFCURVE",
"389 936 CURVE SMOOTH"
);
},
{
closed = 1;
nodes = (
"696 582 LINE",
"695 579 OFFCURVE",
"695 576 OFFCURVE",
"695 571 CURVE",
"694 572 OFFCURVE",
"693 572 OFFCURVE",
"693 572 CURVE",
"688 568 LINE"
);
},
{
closed = 1;
nodes = (
"885 451 OFFCURVE",
"860 488 OFFCURVE",
"824 516 CURVE SMOOTH",
"788 544 OFFCURVE",
"740 563 OFFCURVE",
"695 571 CURVE",
"690 506 OFFCURVE",
"687 441 OFFCURVE",
"684 377 CURVE SMOOTH",
"677 246 LINE",
"725 254 OFFCURVE",
"774 265 OFFCURVE",
"821 282 CURVE",
"846 290 OFFCURVE",
"863 309 OFFCURVE",
"873 332 CURVE SMOOTH",
"883 355 OFFCURVE",
"885 380 OFFCURVE",
"885 403 CURVE SMOOTH"
);
}
);
width = 1275;
}
);
unicode = 0024;
},
{
glyphname = percent;
lastChange = "2012-10-19 02:34:44 -0500";
layers = (
{
layerId = "013FA67F-D7C9-4F04-AAC6-32032829ED9A";
name = "Bold Italic";
paths = (
{
closed = 1;
nodes = (
"1448 651 OFFCURVE",
"1403 612 OFFCURVE",
"1375 558 CURVE SMOOTH",
"1347 504 OFFCURVE",
"1337 437 OFFCURVE",
"1337 382 CURVE SMOOTH",
"1337 330 OFFCURVE",
"1350 279 OFFCURVE",
"1378 241 CURVE SMOOTH",
"1406 203 OFFCURVE",
"1448 178 OFFCURVE",
"1504 178 CURVE SMOOTH",
"1569 178 OFFCURVE",
"1608 220 OFFCURVE",
"1631 275 CURVE SMOOTH",
"1654 330 OFFCURVE",
"1660 396 OFFCURVE",
"1660 443 CURVE SMOOTH",
"1660 491 OFFCURVE",
"1651 543 OFFCURVE",
"1628 583 CURVE SMOOTH",
"1605 623 OFFCURVE",
"1570 651 OFFCURVE",
"1517 651 CURVE SMOOTH"
);
},
{
closed = 1;
nodes = (
"1618 793 OFFCURVE",
"1704 759 OFFCURVE",
"1755 683 CURVE",
"1754 684 LINE",
"1811 605 OFFCURVE",
"1826 506 OFFCURVE",
"1826 407 CURVE SMOOTH",
"1826 356 OFFCURVE",
"1822 300 OFFCURVE",
"1809 247 CURVE SMOOTH",
"1796 194 OFFCURVE",
"1774 141 OFFCURVE",
"1737 97 CURVE",
"1738 98 LINE",
"1711 62 OFFCURVE",
"1675 37 OFFCURVE",
"1635 21 CURVE SMOOTH",
"1595 5 OFFCURVE",
"1552 -1 OFFCURVE",
"1512 -1 CURVE SMOOTH",
"1411 -1 OFFCURVE",
"1308 32 OFFCURVE",
"1244 115 CURVE",
"1245 114 LINE",
"1188 181 OFFCURVE",
"1168 270 OFFCURVE",
"1168 358 CURVE SMOOTH",
"1168 414 OFFCURVE",
"1175 474 OFFCURVE",
"1193 531 CURVE SMOOTH",
"1211 587 OFFCURVE",
"1237 641 OFFCURVE",
"1280 686 CURVE",
"1280 685 LINE",
"1344 758 OFFCURVE",
"1435 793 OFFCURVE",
"1526 793 CURVE SMOOTH"
);
},
{
closed = 1;
nodes = (
"603 1349 LINE SMOOTH",
"547 1349 OFFCURVE",
"506 1315 OFFCURVE",
"481 1268 CURVE SMOOTH",
"456 1221 OFFCURVE",
"444 1163 OFFCURVE",
"444 1114 CURVE SMOOTH",
"444 1101 LINE",
"443 1097 OFFCURVE",
"443 1093 OFFCURVE",
"443 1089 CURVE SMOOTH",
"443 1085 OFFCURVE",
"443 1081 OFFCURVE",
"443 1077 CURVE SMOOTH",
"443 1025 OFFCURVE",
"451 969 OFFCURVE",
"474 925 CURVE SMOOTH",
"497 881 OFFCURVE",
"533 850 OFFCURVE",
"592 850 CURVE SMOOTH",
"661 850 OFFCURVE",
"705 897 OFFCURVE",
"732 955 CURVE SMOOTH",
"759 1013 OFFCURVE",
"768 1084 OFFCURVE",
"768 1133 CURVE SMOOTH",
"768 1182 OFFCURVE",
"755 1234 OFFCURVE",
"729 1275 CURVE SMOOTH",
"703 1315 OFFCURVE",
"664 1345 OFFCURVE",
"613 1349 CURVE"
);
},
{
closed = 1;
nodes = (
"1576 1489 LINE",
"1581 1489 OFFCURVE",
"1589 1489 OFFCURVE",
"1600 1490 CURVE SMOOTH",
"1610 1491 OFFCURVE",
"1621 1491 OFFCURVE",
"1632 1492 CURVE",
"1654 1493 OFFCURVE",
"1675 1495 OFFCURVE",
"1687 1496 CURVE",
"1590 1372 OFFCURVE",
"1490 1238 OFFCURVE",
"1393 1102 CURVE SMOOTH",
"1296 966 OFFCURVE",
"1201 828 OFFCURVE",
"1113 699 CURVE SMOOTH",
"953 466 OFFCURVE",
"790 228 OFFCURVE",
"618 4 CURVE",
"597 3 OFFCURVE",
"574 3 OFFCURVE",
"551 2 CURVE SMOOTH",
"528 1 OFFCURVE",
"505 0 OFFCURVE",
"484 -1 CURVE",
"434 -1 LINE",
"527 118 OFFCURVE",
"622 248 OFFCURVE",
"715 378 CURVE SMOOTH",
"808 508 OFFCURVE",
"900 639 OFFCURVE",
"985 763 CURVE SMOOTH",
"1152 1007 OFFCURVE",
"1320 1254 OFFCURVE",
"1501 1486 CURVE"
);
},
{
closed = 1;
nodes = (
"615 1490 LINE SMOOTH",
"712 1487 OFFCURVE",
"801 1447 OFFCURVE",
"861 1374 CURVE SMOOTH",
"917 1306 OFFCURVE",
"937 1218 OFFCURVE",
"937 1129 CURVE SMOOTH",
"937 1073 OFFCURVE",
"929 1014 OFFCURVE",
"912 958 CURVE SMOOTH",
"895 901 OFFCURVE",
"866 847 OFFCURVE",
"825 802 CURVE SMOOTH",
"762 734 OFFCURVE",
"676 698 OFFCURVE",
"588 698 CURVE SMOOTH",
"541 698 OFFCURVE",
"494 706 OFFCURVE",
"453 723 CURVE SMOOTH",
"412 740 OFFCURVE",
"374 768 OFFCURVE",
"349 808 CURVE",
"294 888 OFFCURVE",
"280 987 OFFCURVE",
"280 1086 CURVE SMOOTH",
"280 1137 OFFCURVE",
"284 1192 OFFCURVE",
"297 1245 CURVE SMOOTH",
"309 1298 OFFCURVE",
"331 1349 OFFCURVE",
"367 1393 CURVE SMOOTH",
"423 1461 OFFCURVE",
"508 1490 OFFCURVE",
"591 1491 CURVE SMOOTH",
"593 1491 OFFCURVE",
"595 1491 OFFCURVE",
"597 1491 CURVE",
"598 1490 OFFCURVE",
"600 1490 OFFCURVE",
"602 1490 CURVE SMOOTH"
);
}
);
width = 2024;
}
);
unicode = 0025;
},
{
glyphname = ampersand;
lastChange = "2012-10-19 02:34:44 -0500";
layers = (
{
layerId = "013FA67F-D7C9-4F04-AAC6-32032829ED9A";
name = "Bold Italic";
paths = (
{
closed = 1;
nodes = (
"486 835 LINE",
"472 822 LINE",
"459 836 LINE"
);
},
{
closed = 1;
nodes = (
"472 822 LINE",
"419 775 OFFCURVE",
"373 724 OFFCURVE",
"341 665 CURVE SMOOTH",
"308 606 OFFCURVE",
"289 542 OFFCURVE",
"289 473 CURVE SMOOTH",
"289 385 OFFCURVE",
"324 319 OFFCURVE",
"380 276 CURVE SMOOTH",
"436 233 OFFCURVE",
"511 212 OFFCURVE",
"591 212 CURVE SMOOTH",
"700 212 OFFCURVE",
"814 253 OFFCURVE",
"905 324 CURVE",
"855 381 OFFCURVE",
"806 437 OFFCURVE",
"757 494 CURVE SMOOTH",
"708 550 OFFCURVE",
"659 606 OFFCURVE",
"609 663 CURVE SMOOTH"
);
},
{
closed = 1;
nodes = (
"598 947 LINE",
"685 854 OFFCURVE",
"770 761 OFFCURVE",
"855 665 CURVE SMOOTH",
"1048 450 LINE",
"1117 554 OFFCURVE",
"1143 677 OFFCURVE",
"1162 808 CURVE",
"1175 808 OFFCURVE",
"1189 808 OFFCURVE",
"1206 808 CURVE SMOOTH",
"1223 808 OFFCURVE",
"1240 808 OFFCURVE",
"1258 808 CURVE SMOOTH",
"1275 808 OFFCURVE",
"1293 808 OFFCURVE",
"1310 809 CURVE",
"1327 809 OFFCURVE",
"1341 809 OFFCURVE",
"1354 809 CURVE",
"1350 789 OFFCURVE",
"1346 768 OFFCURVE",
"1342 746 CURVE SMOOTH",
"1333 701 OFFCURVE",
"1324 654 OFFCURVE",
"1314 610 CURVE SMOOTH",
"1309 587 OFFCURVE",
"1304 566 OFFCURVE",
"1299 546 CURVE SMOOTH",
"1276 461 OFFCURVE",
"1236 381 OFFCURVE",
"1185 309 CURVE",
"1299 182 LINE",
"1458 5 LINE",
"1440 7 OFFCURVE",
"1419 9 OFFCURVE",
"1396 11 CURVE",
"1372 12 OFFCURVE",
"1347 14 OFFCURVE",
"1322 16 CURVE SMOOTH",
"1297 18 OFFCURVE",
"1272 20 OFFCURVE",
"1248 21 CURVE SMOOTH",
"1224 22 OFFCURVE",
"1203 24 OFFCURVE",
"1185 25 CURVE",
"1055 168 LINE",
"915 59 OFFCURVE",
"752 9 OFFCURVE",
"581 9 CURVE SMOOTH",
"517 9 OFFCURVE",
"452 17 OFFCURVE",
"392 35 CURVE SMOOTH",
"331 53 OFFCURVE",
"275 82 OFFCURVE",
"231 129 CURVE SMOOTH",
"160 201 OFFCURVE",
"130 301 OFFCURVE",
"130 401 CURVE SMOOTH",
"130 505 OFFCURVE",
"159 602 OFFCURVE",
"210 687 CURVE SMOOTH",
"261 772 OFFCURVE",
"332 846 OFFCURVE",
"415 906 CURVE",
"374 974 OFFCURVE",
"342 1047 OFFCURVE",
"342 1131 CURVE SMOOTH",
"342 1176 OFFCURVE",
"351 1227 OFFCURVE",
"371 1273 CURVE SMOOTH",
"391 1319 OFFCURVE",
"420 1361 OFFCURVE",
"460 1392 CURVE",
"459 1391 LINE",
"502 1427 OFFCURVE",
"550 1449 OFFCURVE",
"601 1463 CURVE SMOOTH",
"652 1477 OFFCURVE",
"704 1481 OFFCURVE",
"755 1481 CURVE SMOOTH",
"866 1481 OFFCURVE",
"979 1451 OFFCURVE",
"1088 1408 CURVE",
"1076 1388 OFFCURVE",
"1059 1360 OFFCURVE",
"1041 1332 CURVE SMOOTH",
"1032 1318 OFFCURVE",
"1023 1304 OFFCURVE",
"1015 1291 CURVE SMOOTH",
"1007 1278 OFFCURVE",
"1000 1266 OFFCURVE",
"994 1256 CURVE",
"897 1307 OFFCURVE",
"796 1350 OFFCURVE",
"689 1350 CURVE SMOOTH",
"633 1350 OFFCURVE",
"580 1333 OFFCURVE",
"541 1302 CURVE SMOOTH",
"501 1270 OFFCURVE",
"476 1224 OFFCURVE",
"476 1165 CURVE SMOOTH",
"476 1124 OFFCURVE",
"493 1084 OFFCURVE",
"517 1048 CURVE SMOOTH",
"540 1012 OFFCURVE",
"570 978 OFFCURVE",
"598 946 CURVE"
);
}
);
width = 1725;
}
);
unicode = 0026;
},
{
glyphname = quotesingle;
lastChange = "2012-10-19 02:34:44 -0500";
layers = (
{
layerId = "013FA67F-D7C9-4F04-AAC6-32032829ED9A";
name = "Bold Italic";
paths = (
{
closed = 1;
nodes = (
"533 1463 LINE",
"512 1287 OFFCURVE",
"495 1092 OFFCURVE",
"486 916 CURVE",
"449 928 OFFCURVE",
"421 933 OFFCURVE",
"400 933 CURVE SMOOTH",
"372 933 OFFCURVE",
"337 927 OFFCURVE",
"298 918 CURVE",
"310 1006 OFFCURVE",
"320 1105 OFFCURVE",
"329 1205 CURVE SMOOTH",
"337 1305 OFFCURVE",
"345 1404 OFFCURVE",
"349 1492 CURVE",
"388 1477 OFFCURVE",
"415 1473 OFFCURVE",
"438 1473 CURVE SMOOTH",
"462 1473 OFFCURVE",
"486 1476 OFFCURVE",
"509 1483 CURVE"
);
}
);
width = 559;
}
);
unicode = 0027;
},
{
glyphname = parenleft;
lastChange = "2012-10-19 02:34:44 -0500";
layers = (
{
layerId = "013FA67F-D7C9-4F04-AAC6-32032829ED9A";
name = "Bold Italic";
paths = (
{
closed = 1;
nodes = (
"767 1505 LINE",
"676 1377 OFFCURVE",
"590 1243 OFFCURVE",
"520 1102 CURVE SMOOTH",
"450 961 OFFCURVE",
"399 813 OFFCURVE",
"383 660 CURVE",
"383 661 LINE",
"380 593 OFFCURVE",
"378 526 OFFCURVE",
"378 458 CURVE SMOOTH",
"378 381 OFFCURVE",
"382 307 OFFCURVE",
"387 231 CURVE SMOOTH",
"399 86 OFFCURVE",
"442 -76 OFFCURVE",
"499 -231 CURVE",
"416 -216 OFFCURVE",
"344 -209 OFFCURVE",
"273 -208 CURVE",
"198 9 OFFCURVE",
"170 232 OFFCURVE",
"170 456 CURVE SMOOTH",
"170 531 OFFCURVE",
"173 607 OFFCURVE",
"179 682 CURVE",
"203 837 OFFCURVE",
"259 985 OFFCURVE",
"335 1125 CURVE SMOOTH",
"410 1265 OFFCURVE",
"505 1398 OFFCURVE",
"609 1521 CURVE",
"660 1521 OFFCURVE",
"704 1529 OFFCURVE",
"748 1537 CURVE"
);
}
);
width = 816;
}
);
unicode = 0028;
},
{
glyphname = parenright;
lastChange = "2012-10-19 02:34:44 -0500";
layers = (
{
layerId = "013FA67F-D7C9-4F04-AAC6-32032829ED9A";
name = "Bold Italic";
paths = (
{
closed = 1;
nodes = (
"467 1137 OFFCURVE",
"435 1333 OFFCURVE",
"358 1532 CURVE",
"373 1530 LINE",
"369 1545 LINE",
"422 1536 OFFCURVE",
"475 1529 OFFCURVE",
"528 1526 CURVE",
"576 1419 OFFCURVE",
"610 1311 OFFCURVE",
"631 1200 CURVE SMOOTH",
"652 1088 OFFCURVE",
"661 973 OFFCURVE",
"661 852 CURVE SMOOTH",
"661 632 OFFCURVE",
"631 417 OFFCURVE",
"532 217 CURVE SMOOTH",
"463 80 OFFCURVE",
"380 -61 OFFCURVE",
"291 -196 CURVE",
"219 -196 OFFCURVE",
"138 -203 OFFCURVE",
"34 -226 CURVE",
"134 -85 OFFCURVE",
"227 60 OFFCURVE",
"302 208 CURVE SMOOTH",
"377 356 OFFCURVE",
"432 508 OFFCURVE",
"456 660 CURVE",
"456 659 LINE",
"464 744 OFFCURVE",
"467 828 OFFCURVE",
"467 912 CURVE SMOOTH"
);
}
);
width = 790;
}
);
unicode = 0029;
},
{
glyphname = asterisk;
lastChange = "2012-10-19 02:34:44 -0500";
layers = (
{
layerId = "013FA67F-D7C9-4F04-AAC6-32032829ED9A";
name = "Bold Italic";
paths = (
{
closed = 1;
nodes = (
"1136 1220 LINE",
"1033 1163 OFFCURVE",
"931 1107 OFFCURVE",
"827 1052 CURVE",
"812 1043 LINE",
"861 1014 OFFCURVE",
"913 983 OFFCURVE",
"967 952 CURVE SMOOTH",
"1020 920 OFFCURVE",
"1071 889 OFFCURVE",
"1119 858 CURVE",
"1115 852 OFFCURVE",
"1110 844 OFFCURVE",
"1104 834 CURVE SMOOTH",
"1092 814 OFFCURVE",
"1078 792 OFFCURVE",
"1066 773 CURVE",
"1059 763 OFFCURVE",
"1054 755 OFFCURVE",
"1050 749 CURVE",
"1001 782 OFFCURVE",
"953 815 OFFCURVE",
"907 846 CURVE SMOOTH",
"860 877 OFFCURVE",
"812 910 OFFCURVE",
"761 943 CURVE",
"755 873 LINE SMOOTH",
"748 786 OFFCURVE",
"740 685 OFFCURVE",
"735 597 CURVE",
"604 597 LINE",
"607 645 OFFCURVE",
"614 713 OFFCURVE",
"619 761 CURVE SMOOTH",
"621 778 OFFCURVE",
"623 794 OFFCURVE",
"624 809 CURVE SMOOTH",
"625 823 OFFCURVE",
"627 837 OFFCURVE",
"628 851 CURVE",
"631 879 OFFCURVE",
"633 907 OFFCURVE",
"636 942 CURVE",
"608 925 OFFCURVE",
"581 909 OFFCURVE",
"554 893 CURVE SMOOTH",
"527 877 OFFCURVE",
"499 861 OFFCURVE",
"471 844 CURVE SMOOTH",
"310 748 LINE",
"289 798 LINE",
"286 806 OFFCURVE",
"282 816 OFFCURVE",
"277 829 CURVE SMOOTH",
"272 842 OFFCURVE",
"267 852 OFFCURVE",
"264 859 CURVE",
"317 890 OFFCURVE",
"373 921 OFFCURVE",
"432 953 CURVE SMOOTH",
"491 984 OFFCURVE",
"548 1015 OFFCURVE",
"603 1045 CURVE",
"500 1102 OFFCURVE",
"390 1168 OFFCURVE",
"294 1231 CURVE",
"296 1234 OFFCURVE",
"299 1237 OFFCURVE",
"302 1242 CURVE SMOOTH",
"305 1247 OFFCURVE",
"308 1252 OFFCURVE",
"311 1257 CURVE SMOOTH",
"314 1262 OFFCURVE",
"317 1266 OFFCURVE",
"320 1271 CURVE",
"323 1275 OFFCURVE",
"325 1278 OFFCURVE",
"327 1281 CURVE SMOOTH",
"329 1284 OFFCURVE",
"330 1287 OFFCURVE",
"330 1288 CURVE SMOOTH",
"330 1289 OFFCURVE",
"331 1292 OFFCURVE",
"333 1295 CURVE",
"334 1298 OFFCURVE",
"337 1302 OFFCURVE",
"342 1309 CURVE",
"346 1316 OFFCURVE",
"353 1326 OFFCURVE",
"364 1339 CURVE",
"440 1286 OFFCURVE",
"531 1227 OFFCURVE",
"608 1176 CURVE",
"620 1169 OFFCURVE",
"626 1166 OFFCURVE",
"631 1162 CURVE SMOOTH",
"636 1158 OFFCURVE",
"642 1154 OFFCURVE",
"654 1146 CURVE",
"666 1294 LINE",
"681 1492 LINE",
"813 1492 LINE",
"800 1372 OFFCURVE",
"788 1266 OFFCURVE",
"779 1146 CURVE",
"832 1177 OFFCURVE",
"887 1209 OFFCURVE",
"943 1244 CURVE SMOOTH",
"999 1278 OFFCURVE",
"1053 1311 OFFCURVE",
"1104 1342 CURVE",
"1109 1329 OFFCURVE",
"1116 1313 OFFCURVE",
"1124 1294 CURVE",
"1131 1274 OFFCURVE",
"1138 1257 OFFCURVE",
"1144 1244 CURVE"
);
}
);
width = 1204;
}
);
unicode = 002A;
},
{
glyphname = plus;
lastChange = "2012-10-19 02:34:44 -0500";
layers = (
{
layerId = "013FA67F-D7C9-4F04-AAC6-32032829ED9A";
name = "Bold Italic";
paths = (
{
closed = 1;
nodes = (
"924 1254 LINE",
"904 1079 OFFCURVE",
"887 908 OFFCURVE",
"872 732 CURVE",
"1037 732 OFFCURVE",
"1215 733 OFFCURVE",
"1379 736 CURVE",
"1363 552 LINE",
"1278 553 OFFCURVE",
"1193 554 OFFCURVE",
"1109 554 CURVE SMOOTH",
"1025 554 OFFCURVE",
"940 554 OFFCURVE",
"855 554 CURVE",
"840 385 OFFCURVE",
"827 202 OFFCURVE",
"816 33 CURVE",
"632 33 LINE",
"646 178 LINE SMOOTH",
"649 205 OFFCURVE",
"652 234 OFFCURVE",
"655 266 CURVE SMOOTH",
"658 298 OFFCURVE",
"661 331 OFFCURVE",
"664 364 CURVE SMOOTH",
"671 431 OFFCURVE",
"677 498 OFFCURVE",
"681 554 CURVE",
"642 554 OFFCURVE",
"603 554 OFFCURVE",
"565 554 CURVE SMOOTH",
"526 553 OFFCURVE",
"487 553 OFFCURVE",
"448 553 CURVE SMOOTH",
"428 553 OFFCURVE",
"406 553 OFFCURVE",
"382 553 CURVE",
"358 552 OFFCURVE",
"334 552 OFFCURVE",
"309 552 CURVE SMOOTH",
"284 552 OFFCURVE",
"260 552 OFFCURVE",
"237 552 CURVE SMOOTH",
"213 552 OFFCURVE",
"192 552 OFFCURVE",
"173 552 CURVE",
"189 737 LINE",
"360 733 OFFCURVE",
"526 733 OFFCURVE",
"697 733 CURVE",
"721 1025 LINE",
"739 1254 LINE"
);
}
);
width = 1513;
}
);
unicode = 002B;
},
{
glyphname = comma;
lastChange = "2012-10-19 02:34:44 -0500";
layers = (
{
layerId = "013FA67F-D7C9-4F04-AAC6-32032829ED9A";
name = "Bold Italic";
paths = (
{
closed = 1;
nodes = (
"143 258 LINE",
"153 257 OFFCURVE",
"163 257 OFFCURVE",
"172 257 CURVE SMOOTH",
"181 257 OFFCURVE",
"191 257 OFFCURVE",
"202 257 CURVE SMOOTH",
"258 257 OFFCURVE",
"321 261 OFFCURVE",
"394 270 CURVE",
"387 238 OFFCURVE",
"382 198 OFFCURVE",
"376 158 CURVE SMOOTH",
"370 118 OFFCURVE",
"364 79 OFFCURVE",
"360 47 CURVE",
"318 -12 LINE SMOOTH",
"287 -53 OFFCURVE",
"254 -95 OFFCURVE",
"221 -138 CURVE SMOOTH",
"188 -181 OFFCURVE",
"154 -223 OFFCURVE",
"121 -262 CURVE",
"112 -263 OFFCURVE",
"102 -263 OFFCURVE",
"89 -264 CURVE SMOOTH",
"63 -266 OFFCURVE",
"34 -269 OFFCURVE",
"7 -272 CURVE SMOOTH",
"-6 -273 OFFCURVE",
"-17 -275 OFFCURVE",
"-26 -276 CURVE",
"-9 -237 OFFCURVE",
"12 -191 OFFCURVE",
"32 -143 CURVE SMOOTH",
"52 -96 OFFCURVE",
"71 -49 OFFCURVE",
"87 -9 CURVE SMOOTH",
"110 51 LINE",
"115 115 OFFCURVE",
"119 176 OFFCURVE",
"123 240 CURVE"
);
}
);
width = 618;
}
);
unicode = 002C;
},
{
glyphname = hyphen;
lastChange = "2012-10-19 02:34:44 -0500";
layers = (
{
layerId = "013FA67F-D7C9-4F04-AAC6-32032829ED9A";
name = "Bold Italic";
paths = (
{
closed = 1;
nodes = (
"191 655 LINE",
"196 655 OFFCURVE",
"202 655 OFFCURVE",
"208 655 CURVE",
"213 654 OFFCURVE",
"219 654 OFFCURVE",
"225 654 CURVE SMOOTH",
"259 654 LINE SMOOTH",
"321 654 OFFCURVE",
"382 655 OFFCURVE",
"443 657 CURVE SMOOTH",
"503 659 OFFCURVE",
"564 661 OFFCURVE",
"627 663 CURVE SMOOTH",
"728 665 LINE",
"701 620 OFFCURVE",
"684 577 OFFCURVE",
"684 546 CURVE SMOOTH",
"684 532 OFFCURVE",
"688 512 OFFCURVE",
"696 485 CURVE",
"612 485 OFFCURVE",
"514 485 OFFCURVE",
"415 483 CURVE SMOOTH",
"316 481 OFFCURVE",
"217 479 OFFCURVE",
"133 475 CURVE",
"162 524 OFFCURVE",
"176 565 OFFCURVE",
"176 596 CURVE SMOOTH",
"176 610 OFFCURVE",
"175 622 OFFCURVE",
"173 632 CURVE"
);
}
);
width = 861;
}
);
unicode = 002D;
},
{
glyphname = period;
lastChange = "2012-10-19 02:34:44 -0500";
layers = (
{
layerId = "013FA67F-D7C9-4F04-AAC6-32032829ED9A";
name = "Bold Italic";
paths = (
{
closed = 1;
nodes = (
"123 345 LINE",
"165 341 OFFCURVE",
"206 339 OFFCURVE",
"247 339 CURVE SMOOTH",
"271 339 OFFCURVE",
"302 340 OFFCURVE",
"333 342 CURVE SMOOTH",
"348 343 OFFCURVE",
"364 343 OFFCURVE",
"379 344 CURVE SMOOTH",
"394 345 OFFCURVE",
"407 346 OFFCURVE",
"419 347 CURVE",
"396 243 OFFCURVE",
"386 152 OFFCURVE",
"386 69 CURVE SMOOTH",
"386 66 OFFCURVE",
"386 61 OFFCURVE",
"387 56 CURVE",
"387 50 OFFCURVE",
"387 44 OFFCURVE",
"387 38 CURVE SMOOTH",
"387 32 OFFCURVE",
"387 26 OFFCURVE",
"388 21 CURVE",
"388 15 OFFCURVE",
"388 11 OFFCURVE",
"388 8 CURVE",
"328 13 OFFCURVE",
"276 16 OFFCURVE",
"232 16 CURVE SMOOTH",
"185 16 OFFCURVE",
"131 13 OFFCURVE",
"70 8 CURVE",
"91 109 OFFCURVE",
"101 203 OFFCURVE",
"101 288 CURVE SMOOTH",
"101 325 LINE"
);
}
);
width = 654;
}
);
unicode = 002E;
},
{
glyphname = slash;
lastChange = "2012-10-19 02:34:44 -0500";
layers = (
{
layerId = "013FA67F-D7C9-4F04-AAC6-32032829ED9A";
name = "Bold Italic";
paths = (
{
closed = 1;
nodes = (
"720 1444 LINE",
"731 1445 OFFCURVE",
"743 1446 OFFCURVE",
"757 1448 CURVE SMOOTH",
"771 1450 OFFCURVE",
"785 1452 OFFCURVE",
"800 1454 CURVE SMOOTH",
"815 1456 OFFCURVE",
"829 1458 OFFCURVE",
"843 1460 CURVE SMOOTH",
"857 1462 OFFCURVE",
"869 1464 OFFCURVE",
"880 1465 CURVE",
"761 1185 OFFCURVE",
"643 875 OFFCURVE",
"535 591 CURVE SMOOTH",
"440 343 OFFCURVE",
"342 88 OFFCURVE",
"242 -157 CURVE",
"173 -160 OFFCURVE",
"101 -165 OFFCURVE",
"-6 -181 CURVE",
"54 -52 OFFCURVE",
"115 86 OFFCURVE",
"175 224 CURVE SMOOTH",
"235 362 OFFCURVE",
"295 499 OFFCURVE",
"351 630 CURVE SMOOTH",
"378 694 OFFCURVE",
"407 760 OFFCURVE",
"436 828 CURVE SMOOTH",
"494 964 OFFCURVE",
"554 1101 OFFCURVE",
"615 1237 CURVE SMOOTH",
"645 1304 OFFCURVE",
"675 1369 OFFCURVE",
"704 1432 CURVE"
);
}
);
width = 836;
}
);
unicode = 002F;
},
{
glyphname = zero;
lastChange = "2012-10-19 02:34:44 -0500";
layers = (
{
layerId = "013FA67F-D7C9-4F04-AAC6-32032829ED9A";
name = "Bold Italic";
paths = (
{
closed = 1;
nodes = (
"733 1384 LINE SMOOTH",
"681 1384 OFFCURVE",
"630 1365 OFFCURVE",
"587 1333 CURVE SMOOTH",
"544 1301 OFFCURVE",
"509 1256 OFFCURVE",
"492 1205 CURVE",
"459 1122 OFFCURVE",
"440 1038 OFFCURVE",
"430 956 CURVE SMOOTH",
"420 874 OFFCURVE",
"417 793 OFFCURVE",
"417 717 CURVE SMOOTH",
"417 637 OFFCURVE",
"423 561 OFFCURVE",
"450 489 CURVE SMOOTH",
"477 417 OFFCURVE",
"549 377 OFFCURVE",
"626 377 CURVE SMOOTH",
"636 377 LINE SMOOTH",
"637 377 OFFCURVE",
"638 377 OFFCURVE",
"639 377 CURVE",
"640 376 OFFCURVE",
"641 376 OFFCURVE",
"642 376 CURVE SMOOTH",
"649 376 LINE SMOOTH",
"728 376 OFFCURVE",
"788 412 OFFCURVE",
"834 468 CURVE SMOOTH",
"880 523 OFFCURVE",
"912 599 OFFCURVE",
"935 676 CURVE SMOOTH",
"958 753 OFFCURVE",
"970 833 OFFCURVE",
"978 900 CURVE SMOOTH",
"985 967 OFFCURVE",
"986 1018 OFFCURVE",
"986 1039 CURVE SMOOTH",
"986 1090 OFFCURVE",
"983 1139 OFFCURVE",
"972 1190 CURVE",
"964 1246 OFFCURVE",
"939 1294 OFFCURVE",
"903 1330 CURVE SMOOTH",
"866 1365 OFFCURVE",
"818 1385 OFFCURVE",
"766 1385 CURVE SMOOTH",
"765 1385 OFFCURVE",
"763 1385 OFFCURVE",
"762 1385 CURVE",
"760 1384 OFFCURVE",
"758 1384 OFFCURVE",
"757 1384 CURVE SMOOTH"
);
},
{
closed = 1;
nodes = (
"769 1480 LINE SMOOTH",
"834 1480 OFFCURVE",
"902 1465 OFFCURVE",
"960 1436 CURVE SMOOTH",
"1018 1407 OFFCURVE",
"1066 1363 OFFCURVE",
"1095 1303 CURVE SMOOTH",
"1154 1182 OFFCURVE",
"1168 1051 OFFCURVE",
"1168 922 CURVE SMOOTH",
"1168 862 OFFCURVE",
"1165 801 OFFCURVE",
"1161 744 CURVE",
"1149 653 OFFCURVE",
"1135 561 OFFCURVE",
"1112 470 CURVE SMOOTH",
"1088 379 OFFCURVE",
"1054 290 OFFCURVE",
"1001 209 CURVE SMOOTH",
"954 142 OFFCURVE",
"896 92 OFFCURVE",
"830 59 CURVE SMOOTH",
"764 26 OFFCURVE",
"692 10 OFFCURVE",
"623 10 CURVE SMOOTH",
"592 10 LINE SMOOTH",
"525 10 OFFCURVE",
"460 25 OFFCURVE",
"402 54 CURVE SMOOTH",
"344 83 OFFCURVE",
"296 127 OFFCURVE",
"265 186 CURVE SMOOTH",
"206 305 OFFCURVE",
"192 431 OFFCURVE",
"192 558 CURVE SMOOTH",
"192 622 OFFCURVE",
"195 686 OFFCURVE",
"199 747 CURVE",
"211 834 OFFCURVE",
"227 928 OFFCURVE",
"251 1020 CURVE SMOOTH",
"275 1111 OFFCURVE",
"309 1201 OFFCURVE",
"360 1280 CURVE SMOOTH",
"405 1345 OFFCURVE",
"466 1395 OFFCURVE",
"534 1429 CURVE SMOOTH",
"601 1463 OFFCURVE",
"673 1480 OFFCURVE",
"741 1480 CURVE SMOOTH"
);
}
);
width = 1281;
}
);
unicode = 0030;
},
{
glyphname = one;
lastChange = "2012-10-19 02:34:44 -0500";
layers = (
{
layerId = "013FA67F-D7C9-4F04-AAC6-32032829ED9A";
name = "Bold Italic";
paths = (
{
closed = 1;
nodes = (
"293 305 LINE",
"396 313 OFFCURVE",
"484 318 OFFCURVE",
"588 319 CURVE",
"595 400 OFFCURVE",
"602 479 OFFCURVE",
"609 557 CURVE SMOOTH",
"616 634 OFFCURVE",
"622 712 OFFCURVE",
"629 789 CURVE SMOOTH",
"642 943 OFFCURVE",
"655 1097 OFFCURVE",
"667 1258 CURVE",
"566 1239 OFFCURVE",
"445 1225 OFFCURVE",
"329 1214 CURVE",
"330 1241 OFFCURVE",
"331 1278 OFFCURVE",
"332 1314 CURVE SMOOTH",
"332 1332 OFFCURVE",
"332 1350 OFFCURVE",
"333 1368 CURVE",
"333 1385 OFFCURVE",
"333 1401 OFFCURVE",
"333 1414 CURVE",
"453 1421 OFFCURVE",
"557 1435 OFFCURVE",
"664 1452 CURVE SMOOTH",
"691 1456 LINE",
"706 1455 OFFCURVE",
"722 1455 OFFCURVE",
"738 1455 CURVE SMOOTH",
"753 1455 OFFCURVE",
"769 1455 OFFCURVE",
"784 1455 CURVE SMOOTH",
"792 1455 OFFCURVE",
"801 1455 OFFCURVE",
"811 1455 CURVE SMOOTH",
"831 1455 OFFCURVE",
"853 1456 OFFCURVE",
"873 1457 CURVE",
"883 1457 OFFCURVE",
"892 1457 OFFCURVE",
"900 1458 CURVE",
"857 1077 OFFCURVE",
"822 700 OFFCURVE",
"794 319 CURVE",
"893 316 OFFCURVE",
"1005 310 OFFCURVE",
"1101 301 CURVE",
"1098 228 OFFCURVE",
"1095 136 OFFCURVE",
"1095 63 CURVE SMOOTH",
"1095 7 LINE",
"944 27 OFFCURVE",
"800 38 OFFCURVE",
"661 38 CURVE SMOOTH",
"526 38 OFFCURVE",
"386 28 OFFCURVE",
"234 11 CURVE",
"241 52 OFFCURVE",
"248 101 OFFCURVE",
"255 149 CURVE SMOOTH",
"262 197 OFFCURVE",
"268 245 OFFCURVE",
"275 288 CURVE"
);
}
);
width = 1361;
}
);
unicode = 0031;
},
{
glyphname = two;
lastChange = "2012-10-19 02:34:44 -0500";
layers = (
{
layerId = "013FA67F-D7C9-4F04-AAC6-32032829ED9A";
name = "Bold Italic";
paths = (
{
closed = 1;
nodes = (
"855 561 LINE",
"784 493 OFFCURVE",
"719 417 OFFCURVE",
"687 330 CURVE",
"832 329 OFFCURVE",
"982 326 OFFCURVE",
"1143 311 CURVE",
"1142 289 OFFCURVE",
"1141 265 OFFCURVE",
"1141 239 CURVE",
"1140 212 OFFCURVE",
"1140 186 OFFCURVE",
"1139 159 CURVE SMOOTH",
"1138 132 OFFCURVE",
"1138 105 OFFCURVE",
"1138 79 CURVE SMOOTH",
"1138 53 OFFCURVE",
"1138 29 OFFCURVE",
"1138 7 CURVE",
"977 27 OFFCURVE",
"823 37 OFFCURVE",
"676 37 CURVE SMOOTH",
"523 37 OFFCURVE",
"362 27 OFFCURVE",
"192 7 CURVE",
"196 29 OFFCURVE",
"200 53 OFFCURVE",
"204 79 CURVE SMOOTH",
"208 104 OFFCURVE",
"212 130 OFFCURVE",
"217 157 CURVE SMOOTH",
"225 210 OFFCURVE",
"233 263 OFFCURVE",
"240 308 CURVE",
"347 400 OFFCURVE",
"465 491 OFFCURVE",
"578 575 CURVE SMOOTH",
"658 631 OFFCURVE",
"735 687 OFFCURVE",
"802 755 CURVE",
"853 811 OFFCURVE",
"905 865 OFFCURVE",
"940 925 CURVE SMOOTH",
"971 976 OFFCURVE",
"990 1034 OFFCURVE",
"990 1091 CURVE SMOOTH",
"990 1162 OFFCURVE",
"960 1215 OFFCURVE",
"915 1249 CURVE SMOOTH",
"870 1283 OFFCURVE",
"807 1299 OFFCURVE",
"743 1299 CURVE SMOOTH",
"610 1299 OFFCURVE",
"466 1253 OFFCURVE",
"325 1189 CURVE",
"326 1204 OFFCURVE",
"327 1221 OFFCURVE",
"328 1240 CURVE SMOOTH",
"330 1278 OFFCURVE",
"331 1320 OFFCURVE",
"332 1358 CURVE SMOOTH",
"332 1377 OFFCURVE",
"332 1393 OFFCURVE",
"332 1408 CURVE",
"475 1443 OFFCURVE",
"616 1480 OFFCURVE",
"752 1480 CURVE SMOOTH",
"813 1480 OFFCURVE",
"878 1474 OFFCURVE",
"939 1458 CURVE SMOOTH",
"999 1442 OFFCURVE",
"1056 1417 OFFCURVE",
"1104 1378 CURVE",
"1171 1318 OFFCURVE",
"1202 1230 OFFCURVE",
"1202 1142 CURVE SMOOTH",
"1202 1061 OFFCURVE",
"1182 987 OFFCURVE",
"1149 917 CURVE SMOOTH",
"1116 847 OFFCURVE",
"1068 782 OFFCURVE",
"1015 719 CURVE",
"984 687 LINE SMOOTH",
"963 666 OFFCURVE",
"941 645 OFFCURVE",
"920 624 CURVE SMOOTH",
"899 602 OFFCURVE",
"877 581 OFFCURVE",
"855 560 CURVE"
);
}
);
width = 1404;
}
);
unicode = 0032;
},
{
glyphname = three;
lastChange = "2012-10-19 02:34:44 -0500";
layers = (
{
layerId = "013FA67F-D7C9-4F04-AAC6-32032829ED9A";
name = "Bold Italic";
paths = (
{
closed = 1;
nodes = (
"1189 1091 OFFCURVE",
"1165 1013 OFFCURVE",
"1122 948 CURVE SMOOTH",
"1079 883 OFFCURVE",
"1016 831 OFFCURVE",
"940 804 CURVE",
"1004 791 OFFCURVE",
"1060 759 OFFCURVE",
"1097 704 CURVE SMOOTH",
"1137 644 OFFCURVE",
"1156 574 OFFCURVE",
"1156 498 CURVE SMOOTH",
"1156 433 OFFCURVE",
"1148 362 OFFCURVE",
"1125 295 CURVE SMOOTH",
"1101 228 OFFCURVE",
"1063 167 OFFCURVE",
"1003 122 CURVE SMOOTH",
"931 70 OFFCURVE",
"850 42 OFFCURVE",
"770 27 CURVE SMOOTH",
"689 11 OFFCURVE",
"608 8 OFFCURVE",
"533 8 CURVE SMOOTH",
"416 8 OFFCURVE",
"297 24 OFFCURVE",
"175 56 CURVE",
"183 104 OFFCURVE",
"192 163 OFFCURVE",
"200 221 CURVE SMOOTH",
"204 250 OFFCURVE",
"208 278 OFFCURVE",
"212 307 CURVE SMOOTH",
"216 335 OFFCURVE",
"219 361 OFFCURVE",
"222 385 CURVE",
"337 321 OFFCURVE",
"453 302 OFFCURVE",
"566 302 CURVE SMOOTH",
"615 302 OFFCURVE",
"667 304 OFFCURVE",
"717 316 CURVE SMOOTH",
"767 327 OFFCURVE",
"814 346 OFFCURVE",
"854 378 CURVE",
"877 395 OFFCURVE",
"902 415 OFFCURVE",
"922 438 CURVE SMOOTH",
"941 461 OFFCURVE",
"955 486 OFFCURVE",
"955 515 CURVE SMOOTH",
"955 574 OFFCURVE",
"925 623 OFFCURVE",
"886 658 CURVE",
"851 687 OFFCURVE",
"810 705 OFFCURVE",
"766 714 CURVE SMOOTH",
"721 722 OFFCURVE",
"672 724 OFFCURVE",
"627 724 CURVE SMOOTH",
"493 724 LINE",
"498 791 LINE SMOOTH",
"499 806 OFFCURVE",
"501 825 OFFCURVE",
"503 846 CURVE",
"504 867 OFFCURVE",
"506 886 OFFCURVE",
"507 901 CURVE",
"514 901 OFFCURVE",
"523 901 OFFCURVE",
"533 901 CURVE SMOOTH",
"542 901 OFFCURVE",
"552 901 OFFCURVE",
"562 901 CURVE",
"572 900 OFFCURVE",
"582 900 OFFCURVE",
"591 900 CURVE SMOOTH",
"600 900 OFFCURVE",
"609 900 OFFCURVE",
"617 900 CURVE",
"632 899 OFFCURVE",
"648 899 OFFCURVE",
"663 899 CURVE SMOOTH",
"678 899 OFFCURVE",
"694 899 OFFCURVE",
"709 899 CURVE SMOOTH",
"780 899 OFFCURVE",
"848 921 OFFCURVE",
"898 962 CURVE SMOOTH",
"948 1003 OFFCURVE",
"980 1065 OFFCURVE",
"980 1142 CURVE SMOOTH",
"980 1217 OFFCURVE",
"939 1261 OFFCURVE",
"885 1286 CURVE SMOOTH",
"831 1311 OFFCURVE",
"763 1318 OFFCURVE",
"714 1318 CURVE SMOOTH",
"593 1318 OFFCURVE",
"465 1296 OFFCURVE",
"333 1265 CURVE",
"334 1276 OFFCURVE",
"334 1290 OFFCURVE",
"335 1305 CURVE",
"335 1320 OFFCURVE",
"335 1336 OFFCURVE",
"336 1352 CURVE SMOOTH",
"337 1384 OFFCURVE",
"338 1416 OFFCURVE",
"338 1439 CURVE",
"477 1462 OFFCURVE",
"612 1480 OFFCURVE",
"741 1480 CURVE SMOOTH",
"808 1480 OFFCURVE",
"881 1474 OFFCURVE",
"947 1456 CURVE SMOOTH",
"1013 1438 OFFCURVE",
"1073 1409 OFFCURVE",
"1118 1363 CURVE SMOOTH",
"1162 1317 OFFCURVE",
"1189 1254 OFFCURVE",
"1189 1170 CURVE SMOOTH"
);
}
);
width = 1334;
}
);
unicode = 0033;
},
{
glyphname = four;
lastChange = "2012-10-19 02:34:44 -0500";
layers = (
{
layerId = "013FA67F-D7C9-4F04-AAC6-32032829ED9A";
name = "Bold Italic";
paths = (
{
closed = 1;
nodes = (
"882 1366 LINE",
"837 1307 LINE",
"840 1331 OFFCURVE",
"843 1354 OFFCURVE",
"847 1381 CURVE"
);
},
{
closed = 1;
nodes = (
"786 842 OFFCURVE",
"809 1072 OFFCURVE",
"837 1307 CURVE",
"749 1188 OFFCURVE",
"667 1075 OFFCURVE",
"585 960 CURVE SMOOTH",
"503 845 OFFCURVE",
"420 730 OFFCURVE",
"335 607 CURVE",
"408 608 OFFCURVE",
"480 608 OFFCURVE",
"549 609 CURVE SMOOTH",
"618 610 OFFCURVE",
"689 610 OFFCURVE",
"763 610 CURVE"
);
},
{
closed = 1;
nodes = (
"817 1456 LINE",
"856 1457 OFFCURVE",
"899 1458 OFFCURVE",
"945 1460 CURVE SMOOTH",
"990 1462 OFFCURVE",
"1033 1464 OFFCURVE",
"1073 1465 CURVE",
"1032 1178 OFFCURVE",
"1005 895 OFFCURVE",
"985 608 CURVE",
"1018 608 OFFCURVE",
"1054 607 OFFCURVE",
"1087 606 CURVE SMOOTH",
"1092 606 OFFCURVE",
"1099 606 OFFCURVE",
"1107 606 CURVE SMOOTH",
"1115 606 OFFCURVE",
"1123 606 OFFCURVE",
"1131 606 CURVE",
"1139 605 OFFCURVE",
"1147 605 OFFCURVE",
"1154 605 CURVE SMOOTH",
"1161 605 OFFCURVE",
"1166 605 OFFCURVE",
"1170 605 CURVE",
"1167 580 OFFCURVE",
"1164 536 OFFCURVE",
"1163 511 CURVE",
"1162 499 OFFCURVE",
"1161 484 OFFCURVE",
"1161 466 CURVE",
"1160 447 OFFCURVE",
"1160 432 OFFCURVE",
"1159 421 CURVE",
"1128 422 OFFCURVE",
"1097 424 OFFCURVE",
"1066 425 CURVE SMOOTH",
"1035 426 OFFCURVE",
"1004 427 OFFCURVE",
"973 428 CURVE",
"972 409 OFFCURVE",
"972 390 OFFCURVE",
"972 371 CURVE SMOOTH",
"972 352 OFFCURVE",
"972 333 OFFCURVE",
"972 314 CURVE SMOOTH",
"972 223 OFFCURVE",
"974 115 OFFCURVE",
"977 24 CURVE",
"937 27 OFFCURVE",
"886 30 OFFCURVE",
"835 32 CURVE SMOOTH",
"810 33 OFFCURVE",
"785 34 OFFCURVE",
"760 35 CURVE SMOOTH",
"735 36 OFFCURVE",
"713 36 OFFCURVE",
"692 36 CURVE",
"712 213 LINE SMOOTH",
"720 292 OFFCURVE",
"726 353 OFFCURVE",
"737 432 CURVE",
"658 432 LINE SMOOTH",
"491 432 OFFCURVE",
"303 428 OFFCURVE",
"134 421 CURVE",
"137 440 OFFCURVE",
"140 465 OFFCURVE",
"143 490 CURVE SMOOTH",
"146 514 OFFCURVE",
"148 539 OFFCURVE",
"151 558 CURVE",
"363 858 OFFCURVE",
"577 1155 OFFCURVE",
"801 1448 CURVE"
);
}
);
width = 1337;
}
);
unicode = 0034;
},
{
glyphname = five;
lastChange = "2012-10-19 02:34:44 -0500";
layers = (
{
layerId = "013FA67F-D7C9-4F04-AAC6-32032829ED9A";
name = "Bold Italic";
paths = (
{
closed = 1;
nodes = (
"364 1474 LINE",
"492 1460 OFFCURVE",
"621 1453 OFFCURVE",
"751 1453 CURVE SMOOTH",
"868 1453 OFFCURVE",
"995 1460 OFFCURVE",
"1139 1473 CURVE",
"1113 1306 LINE",
"988 1295 OFFCURVE",
"868 1291 OFFCURVE",
"748 1291 CURVE SMOOTH",
"663 1291 OFFCURVE",
"597 1292 OFFCURVE",
"514 1296 CURVE",
"511 1237 OFFCURVE",
"509 1182 OFFCURVE",
"506 1126 CURVE SMOOTH",
"504 1098 OFFCURVE",
"502 1070 OFFCURVE",
"501 1042 CURVE SMOOTH",
"499 1013 OFFCURVE",
"497 984 OFFCURVE",
"494 954 CURVE",
"551 967 OFFCURVE",
"607 979 OFFCURVE",
"663 979 CURVE SMOOTH",
"730 979 OFFCURVE",
"797 971 OFFCURVE",
"859 951 CURVE SMOOTH",
"921 930 OFFCURVE",
"976 898 OFFCURVE",
"1023 850 CURVE SMOOTH",
"1102 766 OFFCURVE",
"1132 651 OFFCURVE",
"1132 535 CURVE SMOOTH",
"1132 466 OFFCURVE",
"1123 388 OFFCURVE",
"1098 316 CURVE SMOOTH",
"1073 244 OFFCURVE",
"1032 175 OFFCURVE",
"968 126 CURVE SMOOTH",
"905 77 OFFCURVE",
"833 47 OFFCURVE",
"758 30 CURVE SMOOTH",
"682 13 OFFCURVE",
"604 8 OFFCURVE",
"531 8 CURVE SMOOTH",
"411 8 OFFCURVE",
"291 17 OFFCURVE",
"162 48 CURVE",
"170 95 OFFCURVE",
"180 153 OFFCURVE",
"188 211 CURVE SMOOTH",
"196 269 OFFCURVE",
"204 326 OFFCURVE",
"211 373 CURVE",
"324 313 OFFCURVE",
"440 291 OFFCURVE",
"553 291 CURVE SMOOTH",
"598 291 OFFCURVE",
"648 295 OFFCURVE",
"694 308 CURVE SMOOTH",
"740 320 OFFCURVE",
"784 341 OFFCURVE",
"821 373 CURVE SMOOTH",
"849 398 OFFCURVE",
"874 424 OFFCURVE",
"891 453 CURVE SMOOTH",
"908 482 OFFCURVE",
"919 516 OFFCURVE",
"919 556 CURVE SMOOTH",
"919 625 OFFCURVE",
"895 697 OFFCURVE",
"844 740 CURVE",
"775 788 OFFCURVE",
"695 800 OFFCURVE",
"620 800 CURVE SMOOTH",
"523 800 OFFCURVE",
"415 775 OFFCURVE",
"303 726 CURVE",
"314 842 OFFCURVE",
"322 967 OFFCURVE",
"329 1091 CURVE SMOOTH",
"336 1215 OFFCURVE",
"341 1339 OFFCURVE",
"342 1455 CURVE"
);
}
);
width = 1303;
}
);
unicode = 0035;
},
{
glyphname = six;
lastChange = "2012-10-19 02:34:44 -0500";
layers = (
{
layerId = "013FA67F-D7C9-4F04-AAC6-32032829ED9A";
name = "Bold Italic";
paths = (
{
closed = 1;
nodes = (
"631 810 OFFCURVE",
"558 782 OFFCURVE",
"505 726 CURVE SMOOTH",
"474 691 OFFCURVE",
"451 648 OFFCURVE",
"435 603 CURVE SMOOTH",
"419 558 OFFCURVE",
"410 510 OFFCURVE",
"410 467 CURVE SMOOTH",
"410 403 OFFCURVE",
"445 361 OFFCURVE",
"494 336 CURVE SMOOTH",
"542 311 OFFCURVE",
"605 302 OFFCURVE",
"664 302 CURVE SMOOTH",
"723 302 OFFCURVE",
"787 318 OFFCURVE",
"839 350 CURVE SMOOTH",
"890 382 OFFCURVE",
"927 430 OFFCURVE",
"934 494 CURVE",
"934 515 LINE SMOOTH",
"934 519 OFFCURVE",
"934 523 OFFCURVE",
"935 527 CURVE",
"935 530 OFFCURVE",
"935 534 OFFCURVE",
"935 538 CURVE SMOOTH",
"935 606 OFFCURVE",
"924 673 OFFCURVE",
"883 728 CURVE",
"844 785 OFFCURVE",
"775 810 OFFCURVE",
"703 810 CURVE SMOOTH"
);
},
{
closed = 1;
nodes = (
"1137 1426 LINE",
"1155 1428 LINE",
"1146 1373 OFFCURVE",
"1135 1296 OFFCURVE",
"1128 1241 CURVE",
"1033 1280 OFFCURVE",
"940 1300 OFFCURVE",
"855 1300 CURVE SMOOTH",
"800 1300 OFFCURVE",
"743 1293 OFFCURVE",
"691 1274 CURVE SMOOTH",
"638 1255 OFFCURVE",
"589 1226 OFFCURVE",
"552 1179 CURVE SMOOTH",
"509 1127 OFFCURVE",
"481 1072 OFFCURVE",
"460 1014 CURVE SMOOTH",
"439 956 OFFCURVE",
"425 896 OFFCURVE",
"414 837 CURVE",
"499 925 OFFCURVE",
"614 980 OFFCURVE",
"735 980 CURVE SMOOTH",
"795 980 OFFCURVE",
"855 971 OFFCURVE",
"909 950 CURVE SMOOTH",
"963 929 OFFCURVE",
"1012 897 OFFCURVE",
"1048 850 CURVE",
"1047 851 LINE",
"1083 808 OFFCURVE",
"1107 759 OFFCURVE",
"1123 707 CURVE SMOOTH",
"1138 654 OFFCURVE",
"1143 598 OFFCURVE",
"1143 542 CURVE SMOOTH",
"1143 473 OFFCURVE",
"1135 397 OFFCURVE",
"1112 325 CURVE SMOOTH",
"1089 253 OFFCURVE",
"1052 185 OFFCURVE",
"995 130 CURVE SMOOTH",
"943 82 OFFCURVE",
"882 52 OFFCURVE",
"817 34 CURVE SMOOTH",
"752 16 OFFCURVE",
"685 10 OFFCURVE",
"621 10 CURVE SMOOTH",
"549 10 OFFCURVE",
"478 24 OFFCURVE",
"415 53 CURVE SMOOTH",
"352 82 OFFCURVE",
"298 128 OFFCURVE",
"265 192 CURVE SMOOTH",
"206 301 OFFCURVE",
"191 424 OFFCURVE",
"191 551 CURVE SMOOTH",
"191 659 OFFCURVE",
"199 792 OFFCURVE",
"228 923 CURVE SMOOTH",
"257 1054 OFFCURVE",
"306 1183 OFFCURVE",
"390 1286 CURVE",
"451 1355 OFFCURVE",
"530 1404 OFFCURVE",
"614 1436 CURVE SMOOTH",
"698 1467 OFFCURVE",
"788 1481 OFFCURVE",
"873 1481 CURVE SMOOTH",
"966 1481 OFFCURVE",
"1058 1465 OFFCURVE",
"1147 1442 CURVE"
);
}
);
width = 1314;
}
);
unicode = 0036;
},
{
glyphname = seven;
lastChange = "2012-10-19 02:34:44 -0500";
layers = (
{
layerId = "013FA67F-D7C9-4F04-AAC6-32032829ED9A";
name = "Bold Italic";
paths = (
{
closed = 1;
nodes = (
"367 1484 LINE",
"512 1464 OFFCURVE",
"657 1454 OFFCURVE",
"803 1454 CURVE SMOOTH",
"958 1454 OFFCURVE",
"1121 1465 OFFCURVE",
"1292 1487 CURVE",
"1292 1485 OFFCURVE",
"1292 1482 OFFCURVE",
"1291 1477 CURVE SMOOTH",
"1290 1472 OFFCURVE",
"1290 1466 OFFCURVE",
"1289 1461 CURVE",
"1288 1450 OFFCURVE",
"1286 1439 OFFCURVE",
"1285 1435 CURVE",
"1277 1389 LINE",
"1137 1053 OFFCURVE",
"1022 706 OFFCURVE",
"909 362 CURVE SMOOTH",
"876 259 OFFCURVE",
"835 137 OFFCURVE",
"800 36 CURVE",
"783 37 OFFCURVE",
"765 37 OFFCURVE",
"744 37 CURVE SMOOTH",
"723 37 OFFCURVE",
"704 37 OFFCURVE",
"687 37 CURVE SMOOTH",
"648 37 OFFCURVE",
"602 37 OFFCURVE",
"555 35 CURVE SMOOTH",
"507 33 OFFCURVE",
"460 31 OFFCURVE",
"421 28 CURVE",
"482 140 OFFCURVE",
"545 262 OFFCURVE",
"606 384 CURVE SMOOTH",
"667 506 OFFCURVE",
"727 628 OFFCURVE",
"783 743 CURVE SMOOTH",
"831 842 OFFCURVE",
"876 932 OFFCURVE",
"921 1023 CURVE SMOOTH",
"966 1114 OFFCURVE",
"1012 1204 OFFCURVE",
"1063 1301 CURVE",
"970 1295 OFFCURVE",
"876 1292 OFFCURVE",
"782 1292 CURVE SMOOTH",
"638 1292 OFFCURVE",
"492 1301 OFFCURVE",
"343 1319 CURVE",
"344 1340 OFFCURVE",
"344 1365 OFFCURVE",
"344 1392 CURVE SMOOTH",
"344 1419 OFFCURVE",
"344 1444 OFFCURVE",
"344 1465 CURVE"
);
}
);
width = 1250;
}
);
unicode = 0037;
},
{
glyphname = eight;
lastChange = "2012-10-19 02:34:44 -0500";
layers = (
{
layerId = "013FA67F-D7C9-4F04-AAC6-32032829ED9A";
name = "Bold Italic";
paths = (
{
closed = 1;
nodes = (
"603 719 OFFCURVE",
"526 695 OFFCURVE",
"467 648 CURVE",
"438 621 OFFCURVE",
"415 587 OFFCURVE",
"400 551 CURVE SMOOTH",
"384 514 OFFCURVE",
"376 474 OFFCURVE",
"376 437 CURVE SMOOTH",
"376 393 OFFCURVE",
"401 355 OFFCURVE",
"433 324 CURVE SMOOTH",
"484 277 OFFCURVE",
"560 264 OFFCURVE",
"633 264 CURVE SMOOTH",
"705 264 OFFCURVE",
"785 278 OFFCURVE",
"844 325 CURVE SMOOTH",
"892 365 OFFCURVE",
"926 417 OFFCURVE",
"927 481 CURVE SMOOTH",
"927 545 OFFCURVE",
"910 605 OFFCURVE",
"867 649 CURVE SMOOTH",
"819 701 OFFCURVE",
"750 720 OFFCURVE",
"675 719 CURVE SMOOTH"
);
},
{
closed = 1;
nodes = (
"258 671 LINE",
"311 728 OFFCURVE",
"380 768 OFFCURVE",
"453 791 CURVE",
"396 812 OFFCURVE",
"350 853 OFFCURVE",
"319 904 CURVE SMOOTH",
"288 955 OFFCURVE",
"271 1015 OFFCURVE",
"271 1078 CURVE SMOOTH",
"271 1183 OFFCURVE",
"311 1296 OFFCURVE",
"399 1369 CURVE",
"448 1405 OFFCURVE",
"504 1429 OFFCURVE",
"563 1443 CURVE SMOOTH",
"622 1457 OFFCURVE",
"682 1462 OFFCURVE",
"738 1462 CURVE SMOOTH",
"794 1462 OFFCURVE",
"853 1458 OFFCURVE",
"909 1444 CURVE SMOOTH",
"965 1430 OFFCURVE",
"1018 1406 OFFCURVE",
"1062 1370 CURVE",
"1118 1317 OFFCURVE",
"1147 1241 OFFCURVE",
"1147 1164 CURVE SMOOTH",
"1147 1087 OFFCURVE",
"1124 1005 OFFCURVE",
"1081 937 CURVE SMOOTH",
"1037 869 OFFCURVE",
"974 815 OFFCURVE",
"893 794 CURVE",
"968 771 OFFCURVE",
"1032 729 OFFCURVE",
"1077 672 CURVE SMOOTH",
"1122 615 OFFCURVE",
"1149 542 OFFCURVE",
"1149 458 CURVE SMOOTH",
"1149 397 OFFCURVE",
"1140 330 OFFCURVE",
"1117 268 CURVE SMOOTH",
"1094 206 OFFCURVE",
"1057 149 OFFCURVE",
"1000 109 CURVE SMOOTH",
"943 68 OFFCURVE",
"879 43 OFFCURVE",
"813 28 CURVE SMOOTH",
"747 13 OFFCURVE",
"679 9 OFFCURVE",
"614 9 CURVE SMOOTH",
"547 9 OFFCURVE",
"481 13 OFFCURVE",
"417 28 CURVE SMOOTH",
"353 43 OFFCURVE",
"293 67 OFFCURVE",
"242 108 CURVE SMOOTH",
"167 168 OFFCURVE",
"143 261 OFFCURVE",
"143 357 CURVE SMOOTH",
"143 410 OFFCURVE",
"150 467 OFFCURVE",
"169 522 CURVE SMOOTH",
"188 577 OFFCURVE",
"216 628 OFFCURVE",
"259 671 CURVE"
);
},
{
closed = 1;
nodes = (
"464 1145 LINE",
"462 1133 OFFCURVE",
"461 1123 OFFCURVE",
"461 1114 CURVE SMOOTH",
"461 1059 OFFCURVE",
"485 1012 OFFCURVE",
"524 978 CURVE SMOOTH",
"563 944 OFFCURVE",
"614 923 OFFCURVE",
"669 923 CURVE SMOOTH",
"672 923 OFFCURVE",
"676 923 OFFCURVE",
"680 923 CURVE SMOOTH",
"683 923 OFFCURVE",
"687 923 OFFCURVE",
"691 924 CURVE",
"694 923 OFFCURVE",
"698 923 OFFCURVE",
"702 923 CURVE SMOOTH",
"705 923 OFFCURVE",
"709 923 OFFCURVE",
"712 923 CURVE SMOOTH",
"779 923 OFFCURVE",
"842 951 OFFCURVE",
"887 996 CURVE SMOOTH",
"932 1041 OFFCURVE",
"961 1104 OFFCURVE",
"961 1172 CURVE SMOOTH",
"961 1237 OFFCURVE",
"930 1281 OFFCURVE",
"886 1309 CURVE SMOOTH",
"841 1336 OFFCURVE",
"782 1347 OFFCURVE",
"725 1347 CURVE SMOOTH",
"665 1347 OFFCURVE",
"602 1330 OFFCURVE",
"552 1297 CURVE SMOOTH",
"502 1264 OFFCURVE",
"467 1214 OFFCURVE",
"464 1147 CURVE"
);
}
);
width = 1333;
}
);
unicode = 0038;
},
{
glyphname = nine;
lastChange = "2012-10-19 02:34:44 -0500";
layers = (
{
layerId = "013FA67F-D7C9-4F04-AAC6-32032829ED9A";
name = "Bold Italic";
paths = (
{
closed = 1;
nodes = (
"433 8 OFFCURVE",
"340 22 OFFCURVE",
"249 49 CURVE",
"264 59 LINE",
"240 61 LINE",
"248 108 OFFCURVE",
"256 160 OFFCURVE",
"263 213 CURVE SMOOTH",
"266 239 OFFCURVE",
"270 265 OFFCURVE",
"273 291 CURVE SMOOTH",
"276 316 OFFCURVE",
"279 341 OFFCURVE",
"282 364 CURVE",
"377 323 OFFCURVE",
"468 302 OFFCURVE",
"556 302 CURVE SMOOTH",
"655 302 OFFCURVE",
"764 312 OFFCURVE",
"855 368 CURVE",
"853 366 LINE",
"896 401 OFFCURVE",
"923 447 OFFCURVE",
"941 496 CURVE SMOOTH",
"959 545 OFFCURVE",
"969 600 OFFCURVE",
"978 652 CURVE",
"894 564 OFFCURVE",
"780 510 OFFCURVE",
"659 510 CURVE SMOOTH",
"599 510 OFFCURVE",
"540 519 OFFCURVE",
"486 540 CURVE SMOOTH",
"432 560 OFFCURVE",
"382 593 OFFCURVE",
"346 640 CURVE",
"346 639 LINE",
"274 724 OFFCURVE",
"253 839 OFFCURVE",
"253 952 CURVE SMOOTH",
"253 1021 OFFCURVE",
"261 1096 OFFCURVE",
"283 1168 CURVE SMOOTH",
"305 1239 OFFCURVE",
"340 1305 OFFCURVE",
"399 1358 CURVE SMOOTH",
"452 1407 OFFCURVE",
"513 1438 OFFCURVE",
"577 1456 CURVE SMOOTH",
"641 1474 OFFCURVE",
"709 1480 OFFCURVE",
"774 1480 CURVE SMOOTH",
"842 1480 OFFCURVE",
"913 1467 OFFCURVE",
"974 1439 CURVE SMOOTH",
"1035 1411 OFFCURVE",
"1089 1367 OFFCURVE",
"1124 1307 CURVE",
"1187 1186 OFFCURVE",
"1203 1057 OFFCURVE",
"1203 928 CURVE SMOOTH",
"1203 819 OFFCURVE",
"1194 687 OFFCURVE",
"1164 559 CURVE SMOOTH",
"1134 430 OFFCURVE",
"1084 303 OFFCURVE",
"1003 202 CURVE SMOOTH",
"942 131 OFFCURVE",
"866 83 OFFCURVE",
"783 52 CURVE SMOOTH",
"700 21 OFFCURVE",
"612 8 OFFCURVE",
"527 8 CURVE SMOOTH"
);
},
{
closed = 1;
nodes = (
"768 811 OFFCURVE",
"851 817 OFFCURVE",
"927 848 CURVE SMOOTH",
"972 865 OFFCURVE",
"998 907 OFFCURVE",
"1013 952 CURVE SMOOTH",
"1028 997 OFFCURVE",
"1031 1048 OFFCURVE",
"1031 1084 CURVE SMOOTH",
"1031 1151 OFFCURVE",
"1015 1214 OFFCURVE",
"970 1258 CURVE SMOOTH",
"909 1321 OFFCURVE",
"818 1339 OFFCURVE",
"726 1339 CURVE SMOOTH",
"642 1339 OFFCURVE",
"554 1314 OFFCURVE",
"487 1258 CURVE SMOOTH",
"451 1226 OFFCURVE",
"425 1184 OFFCURVE",
"409 1140 CURVE SMOOTH",
"393 1095 OFFCURVE",
"385 1047 OFFCURVE",
"385 1002 CURVE SMOOTH",
"385 971 OFFCURVE",
"389 938 OFFCURVE",
"399 910 CURVE SMOOTH",
"409 882 OFFCURVE",
"427 858 OFFCURVE",
"455 846 CURVE SMOOTH",
"527 817 OFFCURVE",
"607 812 OFFCURVE",
"688 811 CURVE SMOOTH"
);
}
);
width = 1313;
}
);
unicode = 0039;
},
{
glyphname = colon;
lastChange = "2012-10-19 02:34:44 -0500";
layers = (
{
layerId = "013FA67F-D7C9-4F04-AAC6-32032829ED9A";
name = "Bold Italic";
paths = (
{
closed = 1;
nodes = (
"217 328 LINE",
"256 333 OFFCURVE",
"295 337 OFFCURVE",
"336 337 CURVE SMOOTH",
"374 337 OFFCURVE",
"417 333 OFFCURVE",
"464 325 CURVE",
"462 302 OFFCURVE",
"460 276 OFFCURVE",
"459 248 CURVE",
"457 220 OFFCURVE",
"455 192 OFFCURVE",
"453 163 CURVE SMOOTH",
"449 106 OFFCURVE",
"446 48 OFFCURVE",
"443 1 CURVE",
"392 20 OFFCURVE",
"348 29 OFFCURVE",
"312 29 CURVE SMOOTH",
"272 29 OFFCURVE",
"222 19 OFFCURVE",
"166 2 CURVE",
"169 25 OFFCURVE",
"172 50 OFFCURVE",
"175 77 CURVE SMOOTH",
"182 129 OFFCURVE",
"188 184 OFFCURVE",
"193 237 CURVE SMOOTH",
"196 263 OFFCURVE",
"198 288 OFFCURVE",
"200 311 CURVE"
);
},
{
closed = 1;
nodes = (
"290 1100 LINE",
"323 1087 OFFCURVE",
"358 1080 OFFCURVE",
"396 1080 CURVE SMOOTH",
"433 1080 OFFCURVE",
"482 1092 OFFCURVE",
"541 1113 CURVE",
"536 1069 OFFCURVE",
"530 1015 OFFCURVE",
"524 960 CURVE SMOOTH",
"518 904 OFFCURVE",
"512 850 OFFCURVE",
"508 806 CURVE",
"459 797 OFFCURVE",
"415 792 OFFCURVE",
"374 792 CURVE SMOOTH",
"335 792 OFFCURVE",
"293 798 OFFCURVE",
"244 809 CURVE",
"247 839 OFFCURVE",
"249 871 OFFCURVE",
"251 905 CURVE SMOOTH",
"253 938 OFFCURVE",
"255 969 OFFCURVE",
"257 998 CURVE SMOOTH",
"263 1084 LINE"
);
}
);
width = 711;
}
);
unicode = 003A;
},
{
glyphname = semicolon;
lastChange = "2012-10-19 02:34:44 -0500";
layers = (
{
layerId = "013FA67F-D7C9-4F04-AAC6-32032829ED9A";
name = "Bold Italic";
paths = (
{
closed = 1;
nodes = (
"279 1073 LINE",
"300 1070 OFFCURVE",
"321 1069 OFFCURVE",
"341 1069 CURVE SMOOTH",
"392 1069 OFFCURVE",
"448 1080 OFFCURVE",
"516 1105 CURVE",
"514 1060 LINE",
"503 976 OFFCURVE",
"493 879 OFFCURVE",
"485 795 CURVE",
"421 778 OFFCURVE",
"368 773 OFFCURVE",
"320 773 CURVE SMOOTH",
"297 773 OFFCURVE",
"276 773 OFFCURVE",
"235 777 CURVE",
"238 805 OFFCURVE",
"241 835 OFFCURVE",
"244 868 CURVE SMOOTH",
"246 901 OFFCURVE",
"248 931 OFFCURVE",
"250 958 CURVE SMOOTH",
"251 973 OFFCURVE",
"253 990 OFFCURVE",
"254 1007 CURVE SMOOTH",
"255 1024 OFFCURVE",
"256 1040 OFFCURVE",
"257 1056 CURVE"
);
},
{
closed = 1;
nodes = (
"249 246 LINE SMOOTH",
"256 246 OFFCURVE",
"262 246 OFFCURVE",
"268 247 CURVE",
"274 247 OFFCURVE",
"280 247 OFFCURVE",
"287 247 CURVE SMOOTH",
"327 247 OFFCURVE",
"371 246 OFFCURVE",
"428 241 CURVE",
"427 224 OFFCURVE",
"425 204 OFFCURVE",
"424 182 CURVE",
"422 159 OFFCURVE",
"420 140 OFFCURVE",
"419 123 CURVE SMOOTH",
"413 46 LINE",
"327 -97 LINE SMOOTH",
"308 -127 OFFCURVE",
"289 -158 OFFCURVE",
"269 -191 CURVE SMOOTH",
"248 -224 OFFCURVE",
"229 -255 OFFCURVE",
"211 -285 CURVE",
"166 -288 OFFCURVE",
"111 -299 OFFCURVE",
"47 -323 CURVE",
"54 -302 OFFCURVE",
"61 -280 OFFCURVE",
"70 -255 CURVE SMOOTH",
"78 -231 OFFCURVE",
"86 -206 OFFCURVE",
"95 -180 CURVE SMOOTH",
"112 -129 OFFCURVE",
"129 -79 OFFCURVE",
"144 -38 CURVE SMOOTH",
"178 59 LINE",
"181 88 OFFCURVE",
"183 116 OFFCURVE",
"186 143 CURVE",
"187 157 OFFCURVE",
"189 174 OFFCURVE",
"190 194 CURVE SMOOTH",
"191 214 OFFCURVE",
"193 231 OFFCURVE",
"194 246 CURVE"
);
}
);
width = 671;
}
);
unicode = 003B;
},
{
glyphname = less;
lastChange = "2012-10-19 02:34:44 -0500";
layers = (
{
layerId = "013FA67F-D7C9-4F04-AAC6-32032829ED9A";
name = "Bold Italic";
paths = (
{
closed = 1;
nodes = (
"1441 967 LINE",
"1270 915 OFFCURVE",
"1111 872 OFFCURVE",
"952 830 CURVE SMOOTH",
"792 788 OFFCURVE",
"632 748 OFFCURVE",
"460 705 CURVE",
"786 546 LINE SMOOTH",
"962 462 OFFCURVE",
"1152 369 OFFCURVE",
"1325 280 CURVE",
"1318 203 OFFCURVE",
"1315 120 OFFCURVE",
"1315 24 CURVE",
"1231 68 OFFCURVE",
"1138 114 OFFCURVE",
"1046 159 CURVE SMOOTH",
"953 204 OFFCURVE",
"860 250 OFFCURVE",
"775 291 CURVE SMOOTH",
"578 387 OFFCURVE",
"367 490 OFFCURVE",
"174 590 CURVE",
"177 607 OFFCURVE",
"180 625 OFFCURVE",
"183 645 CURVE SMOOTH",
"190 685 OFFCURVE",
"196 726 OFFCURVE",
"201 766 CURVE SMOOTH",
"204 785 OFFCURVE",
"206 804 OFFCURVE",
"207 821 CURVE",
"394 867 LINE SMOOTH",
"570 910 OFFCURVE",
"764 959 OFFCURVE",
"957 1011 CURVE SMOOTH",
"1150 1063 OFFCURVE",
"1342 1117 OFFCURVE",
"1515 1173 CURVE",
"1511 1160 OFFCURVE",
"1506 1146 OFFCURVE",
"1501 1129 CURVE",
"1489 1096 OFFCURVE",
"1478 1060 OFFCURVE",
"1467 1026 CURVE SMOOTH",
"1462 1009 OFFCURVE",
"1457 994 OFFCURVE",
"1454 981 CURVE"
);
}
);
width = 1578;
}
);
unicode = 003C;
},
{
glyphname = equal;
lastChange = "2012-10-19 02:34:44 -0500";
layers = (
{
layerId = "013FA67F-D7C9-4F04-AAC6-32032829ED9A";
name = "Bold Italic";
paths = (
{
closed = 1;
nodes = (
"247 935 LINE",
"444 927 OFFCURVE",
"640 924 OFFCURVE",
"839 924 CURVE SMOOTH",
"1052 924 OFFCURVE",
"1292 929 OFFCURVE",
"1505 936 CURVE",
"1478 873 OFFCURVE",
"1458 811 OFFCURVE",
"1445 751 CURVE",
"1242 747 OFFCURVE",
"1029 745 OFFCURVE",
"826 745 CURVE SMOOTH",
"637 745 OFFCURVE",
"433 747 OFFCURVE",
"245 751 CURVE",
"242 808 OFFCURVE",
"237 862 OFFCURVE",
"226 911 CURVE"
);
},
{
closed = 1;
nodes = (
"248 567 LINE",
"460 570 OFFCURVE",
"670 571 OFFCURVE",
"883 571 CURVE SMOOTH",
"1058 571 OFFCURVE",
"1250 570 OFFCURVE",
"1425 567 CURVE",
"1425 495 OFFCURVE",
"1433 424 OFFCURVE",
"1452 352 CURVE",
"1251 359 OFFCURVE",
"1027 363 OFFCURVE",
"824 363 CURVE SMOOTH",
"720 363 OFFCURVE",
"608 362 OFFCURVE",
"497 360 CURVE SMOOTH",
"385 358 OFFCURVE",
"273 355 OFFCURVE",
"169 352 CURVE",
"200 427 OFFCURVE",
"217 491 OFFCURVE",
"228 551 CURVE"
);
}
);
width = 1645;
}
);
unicode = 003D;
},
{
glyphname = greater;
lastChange = "2012-10-19 02:34:44 -0500";
layers = (
{
layerId = "013FA67F-D7C9-4F04-AAC6-32032829ED9A";
name = "Bold Italic";
paths = (
{
closed = 1;
nodes = (
"295 1100 LINE",
"296 1110 OFFCURVE",
"296 1120 OFFCURVE",
"297 1130 CURVE",
"297 1140 OFFCURVE",
"298 1150 OFFCURVE",
"299 1160 CURVE",
"300 1176 OFFCURVE",
"302 1200 OFFCURVE",
"303 1224 CURVE",
"304 1235 OFFCURVE",
"304 1247 OFFCURVE",
"305 1258 CURVE SMOOTH",
"306 1269 OFFCURVE",
"306 1278 OFFCURVE",
"306 1286 CURVE",
"405 1235 OFFCURVE",
"511 1182 OFFCURVE",
"617 1130 CURVE SMOOTH",
"723 1077 OFFCURVE",
"829 1024 OFFCURVE",
"929 976 CURVE SMOOTH",
"1098 893 OFFCURVE",
"1278 805 OFFCURVE",
"1445 721 CURVE",
"1430 644 OFFCURVE",
"1418 567 OFFCURVE",
"1410 488 CURVE",
"1200 435 LINE SMOOTH",
"1023 391 OFFCURVE",
"837 344 OFFCURVE",
"651 294 CURVE SMOOTH",
"465 244 OFFCURVE",
"280 191 OFFCURVE",
"104 136 CURVE",
"124 192 OFFCURVE",
"138 239 OFFCURVE",
"150 281 CURVE SMOOTH",
"162 323 OFFCURVE",
"172 359 OFFCURVE",
"181 396 CURVE",
"428 468 OFFCURVE",
"680 534 OFFCURVE",
"928 598 CURVE SMOOTH",
"1165 658 LINE",
"1110 686 OFFCURVE",
"1056 713 OFFCURVE",
"1001 740 CURVE SMOOTH",
"892 792 OFFCURVE",
"746 863 OFFCURVE",
"570 949 CURVE SMOOTH",
"481 992 OFFCURVE",
"393 1036 OFFCURVE",
"306 1082 CURVE"
);
}
);
width = 1574;
}
);
unicode = 003E;
},
{
glyphname = question;
lastChange = "2012-10-19 02:34:44 -0500";
layers = (
{
layerId = "013FA67F-D7C9-4F04-AAC6-32032829ED9A";
name = "Bold Italic";
paths = (
{
closed = 1;
nodes = (
"431 310 LINE",
"494 313 OFFCURVE",
"558 315 OFFCURVE",
"622 315 CURVE SMOOTH",
"681 315 LINE",
"670 168 LINE SMOOTH",
"668 147 OFFCURVE",
"666 124 OFFCURVE",
"665 98 CURVE",
"663 71 OFFCURVE",
"661 48 OFFCURVE",
"660 27 CURVE",
"602 27 LINE SMOOTH",
"535 27 OFFCURVE",
"447 23 OFFCURVE",
"379 19 CURVE",
"384 60 OFFCURVE",
"391 108 OFFCURVE",
"397 156 CURVE SMOOTH",
"403 203 OFFCURVE",
"408 249 OFFCURVE",
"412 292 CURVE"
);
},
{
closed = 1;
nodes = (
"676 413 LINE",
"601 413 OFFCURVE",
"506 411 OFFCURVE",
"430 408 CURVE",
"438 491 LINE SMOOTH",
"445 571 OFFCURVE",
"451 650 OFFCURVE",
"486 729 CURVE",
"517 790 OFFCURVE",
"563 836 OFFCURVE",
"610 879 CURVE",
"619 886 OFFCURVE",
"627 892 OFFCURVE",
"635 899 CURVE",
"642 906 OFFCURVE",
"650 912 OFFCURVE",
"659 919 CURVE",
"708 961 LINE",
"723 973 LINE SMOOTH",
"754 997 OFFCURVE",
"790 1025 OFFCURVE",
"819 1056 CURVE SMOOTH",
"848 1087 OFFCURVE",
"869 1120 OFFCURVE",
"869 1153 CURVE SMOOTH",
"869 1209 OFFCURVE",
"847 1253 OFFCURVE",
"811 1285 CURVE SMOOTH",
"775 1316 OFFCURVE",
"726 1332 OFFCURVE",
"674 1332 CURVE SMOOTH",
"619 1332 OFFCURVE",
"561 1319 OFFCURVE",
"501 1299 CURVE SMOOTH",
"441 1278 OFFCURVE",
"380 1249 OFFCURVE",
"321 1218 CURVE",
"322 1231 OFFCURVE",
"324 1255 OFFCURVE",
"325 1279 CURVE",
"325 1290 OFFCURVE",
"325 1302 OFFCURVE",
"326 1313 CURVE SMOOTH",
"327 1324 OFFCURVE",
"327 1333 OFFCURVE",
"327 1340 CURVE SMOOTH",
"327 1347 OFFCURVE",
"327 1357 OFFCURVE",
"328 1368 CURVE SMOOTH",
"329 1379 OFFCURVE",
"329 1388 OFFCURVE",
"329 1395 CURVE",
"458 1451 OFFCURVE",
"590 1479 OFFCURVE",
"718 1479 CURVE SMOOTH",
"767 1479 OFFCURVE",
"818 1476 OFFCURVE",
"866 1464 CURVE SMOOTH",
"914 1452 OFFCURVE",
"959 1432 OFFCURVE",
"996 1399 CURVE SMOOTH",
"1051 1351 OFFCURVE",
"1073 1280 OFFCURVE",
"1073 1207 CURVE SMOOTH",
"1073 1132 OFFCURVE",
"1049 1069 OFFCURVE",
"1013 1012 CURVE SMOOTH",
"977 955 OFFCURVE",
"928 904 OFFCURVE",
"880 853 CURVE SMOOTH",
"801 772 LINE",
"791 757 LINE SMOOTH",
"786 750 OFFCURVE",
"781 742 OFFCURVE",
"776 735 CURVE",
"771 727 OFFCURVE",
"765 720 OFFCURVE",
"760 713 CURVE SMOOTH",
"750 699 LINE",
"739 686 OFFCURVE",
"732 673 OFFCURVE",
"725 657 CURVE",
"706 605 OFFCURVE",
"703 546 OFFCURVE",
"700 490 CURVE",
"699 480 OFFCURVE",
"699 470 OFFCURVE",
"699 460 CURVE",
"698 450 OFFCURVE",
"697 440 OFFCURVE",
"696 430 CURVE"
);
}
);
width = 1092;
}
);
unicode = 003F;
},
{
glyphname = at;
lastChange = "2012-10-19 02:34:44 -0500";
layers = (
{
layerId = "013FA67F-D7C9-4F04-AAC6-32032829ED9A";
name = "Bold Italic";
paths = (
{
closed = 1;
nodes = (
"726 605 OFFCURVE",
"725 593 OFFCURVE",
"725 582 CURVE SMOOTH",
"725 514 OFFCURVE",
"748 462 OFFCURVE",
"786 426 CURVE SMOOTH",
"824 390 OFFCURVE",
"877 372 OFFCURVE",
"941 372 CURVE SMOOTH",
"1001 372 OFFCURVE",
"1067 389 OFFCURVE",
"1112 436 CURVE SMOOTH",
"1172 496 OFFCURVE",
"1192 576 OFFCURVE",
"1192 655 CURVE SMOOTH",
"1192 720 OFFCURVE",
"1170 773 OFFCURVE",
"1131 808 CURVE SMOOTH",
"1092 843 OFFCURVE",
"1038 862 OFFCURVE",
"977 862 CURVE SMOOTH",
"914 862 OFFCURVE",
"852 841 OFFCURVE",
"805 797 CURVE SMOOTH",
"754 749 OFFCURVE",
"734 683 OFFCURVE",
"727 616 CURVE SMOOTH"
);
},
{
closed = 1;
nodes = (
"1199 208 LINE",
"1201 233 LINE",
"1124 160 OFFCURVE",
"1024 112 OFFCURVE",
"920 112 CURVE SMOOTH",
"816 112 OFFCURVE",
"714 150 OFFCURVE",
"653 231 CURVE SMOOTH",
"600 302 OFFCURVE",
"577 393 OFFCURVE",
"577 484 CURVE SMOOTH",
"577 547 OFFCURVE",
"586 614 OFFCURVE",
"606 678 CURVE SMOOTH",
"626 741 OFFCURVE",
"658 802 OFFCURVE",
"706 851 CURVE",
"782 935 OFFCURVE",
"884 971 OFFCURVE",
"991 971 CURVE SMOOTH",
"1098 971 OFFCURVE",
"1191 921 OFFCURVE",
"1256 845 CURVE",
"1256 853 LINE",
"1257 867 OFFCURVE",
"1259 884 OFFCURVE",
"1261 904 CURVE",
"1262 923 OFFCURVE",
"1264 940 OFFCURVE",
"1265 954 CURVE",
"1274 954 OFFCURVE",
"1286 954 OFFCURVE",
"1300 955 CURVE",
"1313 955 OFFCURVE",
"1327 955 OFFCURVE",
"1342 956 CURVE",
"1357 956 OFFCURVE",
"1371 956 OFFCURVE",
"1385 957 CURVE",
"1398 957 OFFCURVE",
"1410 957 OFFCURVE",
"1419 957 CURVE",
"1392 724 OFFCURVE",
"1369 498 OFFCURVE",
"1354 265 CURVE",
"1431 280 OFFCURVE",
"1502 319 OFFCURVE",
"1553 383 CURVE SMOOTH",
"1590 432 OFFCURVE",
"1616 489 OFFCURVE",
"1632 548 CURVE SMOOTH",
"1648 607 OFFCURVE",
"1654 667 OFFCURVE",
"1654 723 CURVE SMOOTH",
"1654 823 OFFCURVE",
"1630 920 OFFCURVE",
"1578 1003 CURVE",
"1579 1003 LINE",
"1523 1082 OFFCURVE",
"1446 1142 OFFCURVE",
"1358 1182 CURVE SMOOTH",
"1270 1222 OFFCURVE",
"1171 1242 OFFCURVE",
"1071 1242 CURVE SMOOTH",
"923 1242 OFFCURVE",
"775 1206 OFFCURVE",
"644 1126 CURVE SMOOTH",
"527 1055 OFFCURVE",
"441 953 OFFCURVE",
"385 836 CURVE SMOOTH",
"328 719 OFFCURVE",
"301 588 OFFCURVE",
"301 461 CURVE SMOOTH",
"301 405 OFFCURVE",
"308 351 OFFCURVE",
"329 303 CURVE",
"329 304 LINE",
"366 224 OFFCURVE",
"420 154 OFFCURVE",
"476 86 CURVE",
"475 87 LINE",
"531 22 OFFCURVE",
"603 -18 OFFCURVE",
"683 -42 CURVE SMOOTH",
"762 -66 OFFCURVE",
"848 -74 OFFCURVE",
"935 -75 CURVE SMOOTH",
"1090 -74 OFFCURVE",
"1256 -31 OFFCURVE",
"1404 74 CURVE",
"1415 47 OFFCURVE",
"1430 12 OFFCURVE",
"1446 -23 CURVE",
"1453 -41 OFFCURVE",
"1461 -58 OFFCURVE",
"1469 -75 CURVE SMOOTH",
"1477 -92 OFFCURVE",
"1484 -106 OFFCURVE",
"1490 -119 CURVE",
"1313 -244 OFFCURVE",
"1111 -305 OFFCURVE",
"916 -305 CURVE SMOOTH",
"805 -305 OFFCURVE",
"694 -288 OFFCURVE",
"592 -249 CURVE SMOOTH",
"490 -210 OFFCURVE",
"398 -153 OFFCURVE",
"327 -70 CURVE",
"327 -71 LINE",
"263 -3 OFFCURVE",
"220 79 OFFCURVE",
"192 167 CURVE SMOOTH",
"164 255 OFFCURVE",
"152 350 OFFCURVE",
"152 445 CURVE SMOOTH",
"152 570 OFFCURVE",
"173 701 OFFCURVE",
"218 825 CURVE SMOOTH",
"263 949 OFFCURVE",
"333 1065 OFFCURVE",
"432 1160 CURVE",
"525 1240 OFFCURVE",
"634 1299 OFFCURVE",
"747 1339 CURVE SMOOTH",
"859 1379 OFFCURVE",
"979 1398 OFFCURVE",
"1096 1398 CURVE SMOOTH",
"1220 1398 OFFCURVE",
"1341 1374 OFFCURVE",
"1446 1326 CURVE SMOOTH",
"1550 1277 OFFCURVE",
"1641 1203 OFFCURVE",
"1705 1106 CURVE SMOOTH",
"1768 1009 OFFCURVE",
"1806 887 OFFCURVE",
"1806 740 CURVE SMOOTH",
"1806 659 OFFCURVE",
"1793 569 OFFCURVE",
"1763 483 CURVE SMOOTH",
"1733 397 OFFCURVE",
"1688 315 OFFCURVE",
"1624 251 CURVE",
"1568 202 OFFCURVE",
"1498 166 OFFCURVE",
"1423 143 CURVE SMOOTH",
"1347 119 OFFCURVE",
"1267 107 OFFCURVE",
"1191 107 CURVE"
);
}
);
width = 1934;
}
);
unicode = 0040;
},
{
glyphname = A;
lastChange = "2013-04-22 07:28:35 -0500";
layers = (
{
anchors = (
{
name = bottom;
position = "{720, 15}";
},
{
name = ogonek;
position = "{1347, 10}";
},
{
name = top;
position = "{840, 1455}";
}
);
layerId = "013FA67F-D7C9-4F04-AAC6-32032829ED9A";
name = "Bold Italic";
paths = (
{
closed = 1;
nodes = (
"889 971 OFFCURVE",
"877 1025 OFFCURVE",
"865 1078 CURVE SMOOTH",
"852 1131 OFFCURVE",
"839 1185 OFFCURVE",
"826 1239 CURVE",
"706 942 LINE SMOOTH",
"646 794 OFFCURVE",
"588 656 OFFCURVE",
"525 507 CURVE",
"565 508 OFFCURVE",
"604 508 OFFCURVE",
"643 508 CURVE SMOOTH",
"681 508 OFFCURVE",
"720 508 OFFCURVE",
"760 508 CURVE SMOOTH",
"782 508 OFFCURVE",
"804 508 OFFCURVE",
"827 508 CURVE",
"849 507 OFFCURVE",
"871 507 OFFCURVE",
"893 507 CURVE SMOOTH",
"1000 507 LINE",
"983 576 OFFCURVE",
"966 644 OFFCURVE",
"951 712 CURVE SMOOTH",
"935 780 OFFCURVE",
"919 848 OFFCURVE",
"902 917 CURVE SMOOTH"
);
},
{
closed = 1;
nodes = (
"945 1455 LINE",
"982 1331 OFFCURVE",
"1020 1194 OFFCURVE",
"1055 1069 CURVE SMOOTH",
"1104 894 OFFCURVE",
"1153 720 OFFCURVE",
"1209 544 CURVE SMOOTH",
"1265 367 OFFCURVE",
"1328 188 OFFCURVE",
"1404 7 CURVE",
"1361 11 OFFCURVE",
"1307 15 OFFCURVE",
"1253 19 CURVE SMOOTH",
"1199 23 OFFCURVE",
"1144 26 OFFCURVE",
"1100 29 CURVE",
"1081 106 OFFCURVE",
"1064 183 OFFCURVE",
"1049 262 CURVE",
"946 265 OFFCURVE",
"846 265 OFFCURVE",
"743 265 CURVE SMOOTH",
"635 265 OFFCURVE",
"542 265 OFFCURVE",
"434 262 CURVE",
"419 224 OFFCURVE",
"401 185 OFFCURVE",
"382 144 CURVE SMOOTH",
"362 103 OFFCURVE",
"343 65 OFFCURVE",
"326 28 CURVE",
"306 27 OFFCURVE",
"283 25 OFFCURVE",
"258 24 CURVE",
"233 22 OFFCURVE",
"207 20 OFFCURVE",
"181 18 CURVE SMOOTH",
"154 16 OFFCURVE",
"128 14 OFFCURVE",
"103 13 CURVE",
"78 11 OFFCURVE",
"55 9 OFFCURVE",
"34 7 CURVE",
"231 344 OFFCURVE",
"389 684 OFFCURVE",
"538 1008 CURVE SMOOTH",
"605 1152 OFFCURVE",
"679 1314 OFFCURVE",
"748 1455 CURVE"
);
}
);
width = 1670;
}
);
unicode = 0041;
},
{
glyphname = B;
lastChange = "2012-10-19 02:34:44 -0500";
layers = (
{
layerId = "013FA67F-D7C9-4F04-AAC6-32032829ED9A";
name = "Bold Italic";
paths = (
{
closed = 1;
nodes = (
"513 704 LINE",
"509 662 LINE SMOOTH",
"498 549 OFFCURVE",
"489 444 OFFCURVE",
"474 329 CURVE",
"570 332 OFFCURVE",
"669 335 OFFCURVE",
"765 335 CURVE SMOOTH",
"840 335 OFFCURVE",
"920 340 OFFCURVE",
"989 375 CURVE",
"988 374 LINE",
"1016 390 OFFCURVE",
"1037 417 OFFCURVE",
"1050 448 CURVE SMOOTH",
"1062 479 OFFCURVE",
"1068 512 OFFCURVE",
"1068 543 CURVE SMOOTH",
"1068 584 OFFCURVE",
"1036 618 OFFCURVE",
"1009 646 CURVE",
"1009 645 LINE",
"982 669 OFFCURVE",
"949 684 OFFCURVE",
"913 693 CURVE SMOOTH",
"877 701 OFFCURVE",
"838 704 OFFCURVE",
"801 704 CURVE SMOOTH"
);
},
{
closed = 1;
nodes = (
"554 1334 LINE",
"554 1331 OFFCURVE",
"554 1327 OFFCURVE",
"554 1324 CURVE",
"553 1321 OFFCURVE",
"553 1317 OFFCURVE",
"553 1314 CURVE",
"533 1316 LINE"
);
},
{
closed = 1;
nodes = (
"737 1307 OFFCURVE",
"645 1309 OFFCURVE",
"553 1314 CURVE",
"548 1165 OFFCURVE",
"540 1030 OFFCURVE",
"529 878 CURVE",
"572 877 OFFCURVE",
"616 876 OFFCURVE",
"660 877 CURVE SMOOTH",
"703 877 OFFCURVE",
"747 877 OFFCURVE",
"790 877 CURVE SMOOTH",
"855 877 OFFCURVE",
"927 886 OFFCURVE",
"983 923 CURVE",
"1014 947 OFFCURVE",
"1036 981 OFFCURVE",
"1051 1016 CURVE SMOOTH",
"1066 1051 OFFCURVE",
"1073 1086 OFFCURVE",
"1073 1115 CURVE SMOOTH",
"1073 1188 OFFCURVE",
"1043 1236 OFFCURVE",
"997 1266 CURVE SMOOTH",
"951 1296 OFFCURVE",
"889 1307 OFFCURVE",
"829 1307 CURVE SMOOTH"
);
},
{
closed = 1;
nodes = (
"366 1484 LINE",
"511 1464 OFFCURVE",
"658 1458 OFFCURVE",
"805 1455 CURVE SMOOTH",
"896 1454 OFFCURVE",
"983 1446 OFFCURVE",
"1064 1415 CURVE SMOOTH",
"1123 1392 OFFCURVE",
"1167 1355 OFFCURVE",
"1196 1311 CURVE SMOOTH",
"1224 1266 OFFCURVE",
"1239 1212 OFFCURVE",
"1239 1159 CURVE SMOOTH",
"1239 1088 OFFCURVE",
"1221 1011 OFFCURVE",
"1185 946 CURVE SMOOTH",
"1149 881 OFFCURVE",
"1093 826 OFFCURVE",
"1020 802 CURVE",
"1097 783 OFFCURVE",
"1167 742 OFFCURVE",
"1217 685 CURVE SMOOTH",
"1267 628 OFFCURVE",
"1298 553 OFFCURVE",
"1298 472 CURVE SMOOTH",
"1298 409 OFFCURVE",
"1290 343 OFFCURVE",
"1267 283 CURVE SMOOTH",
"1243 223 OFFCURVE",
"1205 169 OFFCURVE",
"1145 130 CURVE SMOOTH",
"1085 90 OFFCURVE",
"1020 67 OFFCURVE",
"954 54 CURVE SMOOTH",
"888 41 OFFCURVE",
"818 37 OFFCURVE",
"753 37 CURVE SMOOTH",
"582 37 OFFCURVE",
"405 28 OFFCURVE",
"213 7 CURVE",
"302 502 OFFCURVE",
"344 990 OFFCURVE",
"344 1465 CURVE"
);
}
);
width = 1480;
}
);
unicode = 0042;
},
{
glyphname = C;
lastChange = "2012-10-19 02:34:44 -0500";
layers = (
{
anchors = (
{
name = bottom;
position = "{842, 0}";
},
{
name = top;
position = "{842, 1455}";
}
);
layerId = "013FA67F-D7C9-4F04-AAC6-32032829ED9A";
name = "Bold Italic";
paths = (
{
closed = 1;
nodes = (
"1373 1358 LINE",
"1397 1356 LINE",
"1394 1341 OFFCURVE",
"1391 1323 OFFCURVE",
"1388 1304 CURVE SMOOTH",
"1385 1285 OFFCURVE",
"1381 1265 OFFCURVE",
"1378 1245 CURVE SMOOTH",
"1371 1205 OFFCURVE",
"1365 1164 OFFCURVE",
"1361 1133 CURVE",
"1249 1246 OFFCURVE",
"1105 1304 OFFCURVE",
"965 1304 CURVE SMOOTH",
"898 1304 OFFCURVE",
"827 1297 OFFCURVE",
"760 1277 CURVE SMOOTH",
"692 1257 OFFCURVE",
"628 1224 OFFCURVE",
"576 1171 CURVE",
"577 1171 LINE",
"510 1100 OFFCURVE",
"469 1017 OFFCURVE",
"445 930 CURVE SMOOTH",
"420 842 OFFCURVE",
"411 752 OFFCURVE",
"411 672 CURVE SMOOTH",
"411 621 OFFCURVE",
"416 571 OFFCURVE",
"430 526 CURVE SMOOTH",
"444 481 OFFCURVE",
"466 440 OFFCURVE",
"502 408 CURVE",
"501 409 LINE",
"550 369 OFFCURVE",
"610 346 OFFCURVE",
"674 333 CURVE SMOOTH",
"737 320 OFFCURVE",
"804 316 OFFCURVE",
"867 316 CURVE SMOOTH",
"936 316 OFFCURVE",
"1012 331 OFFCURVE",
"1085 362 CURVE SMOOTH",
"1158 393 OFFCURVE",
"1231 438 OFFCURVE",
"1298 498 CURVE",
"1295 450 OFFCURVE",
"1294 392 OFFCURVE",
"1292 333 CURVE SMOOTH",
"1290 274 OFFCURVE",
"1288 216 OFFCURVE",
"1288 169 CURVE SMOOTH",
"1288 127 LINE",
"1147 39 OFFCURVE",
"991 9 OFFCURVE",
"842 9 CURVE SMOOTH",
"746 9 OFFCURVE",
"648 21 OFFCURVE",
"557 50 CURVE SMOOTH",
"466 79 OFFCURVE",
"384 127 OFFCURVE",
"320 199 CURVE",
"272 259 OFFCURVE",
"241 328 OFFCURVE",
"222 401 CURVE SMOOTH",
"202 474 OFFCURVE",
"195 552 OFFCURVE",
"195 631 CURVE SMOOTH",
"195 734 OFFCURVE",
"208 855 OFFCURVE",
"242 972 CURVE SMOOTH",
"276 1088 OFFCURVE",
"330 1202 OFFCURVE",
"413 1289 CURVE",
"489 1362 OFFCURVE",
"582 1411 OFFCURVE",
"679 1441 CURVE SMOOTH",
"776 1471 OFFCURVE",
"878 1481 OFFCURVE",
"974 1481 CURVE SMOOTH",
"1122 1481 OFFCURVE",
"1272 1452 OFFCURVE",
"1391 1368 CURVE"
);
}
);
width = 1529;
}
);
unicode = 0043;
},
{
glyphname = D;
lastChange = "2013-05-02 13:13:45 -0500";
layers = (
{
anchors = (
{
name = bottom;
position = "{738, -21}";
},
{
name = center;
position = "{808, 728}";
},
{
name = top;
position = "{808, 1455}";
}
);
layerId = "013FA67F-D7C9-4F04-AAC6-32032829ED9A";
name = "Bold Italic";
paths = (
{
closed = 1;
nodes = (
"564 1306 LINE",
"564 1303 OFFCURVE",
"564 1299 OFFCURVE",
"564 1296 CURVE",
"563 1293 OFFCURVE",
"563 1289 OFFCURVE",
"563 1286 CURVE",
"560 1286 OFFCURVE",
"556 1286 OFFCURVE",
"553 1286 CURVE SMOOTH",
"550 1286 OFFCURVE",
"546 1286 OFFCURVE",
"543 1287 CURVE"
);
},
{
closed = 1;
nodes = (
"711 1280 OFFCURVE",
"637 1282 OFFCURVE",
"563 1286 CURVE",
"552 987 OFFCURVE",
"532 700 OFFCURVE",
"496 404 CURVE",
"568 407 OFFCURVE",
"639 408 OFFCURVE",
"711 409 CURVE SMOOTH",
"716 409 OFFCURVE",
"721 409 OFFCURVE",
"726 410 CURVE",
"731 410 OFFCURVE",
"736 410 OFFCURVE",
"741 410 CURVE SMOOTH",
"804 411 OFFCURVE",
"868 415 OFFCURVE",
"930 424 CURVE SMOOTH",
"992 433 OFFCURVE",
"1052 451 OFFCURVE",
"1108 483 CURVE",
"1107 483 LINE",
"1155 515 OFFCURVE",
"1190 561 OFFCURVE",
"1217 611 CURVE SMOOTH",
"1244 661 OFFCURVE",
"1264 716 OFFCURVE",
"1281 768 CURVE",
"1284 799 OFFCURVE",
"1284 831 OFFCURVE",
"1284 862 CURVE SMOOTH",
"1284 963 OFFCURVE",
"1262 1070 OFFCURVE",
"1201 1146 CURVE",
"1148 1198 OFFCURVE",
"1079 1230 OFFCURVE",
"1007 1250 CURVE SMOOTH",
"934 1270 OFFCURVE",
"857 1277 OFFCURVE",
"785 1280 CURVE"
);
},
{
closed = 1;
nodes = (
"365 1484 LINE",
"497 1468 OFFCURVE",
"624 1461 OFFCURVE",
"755 1458 CURVE SMOOTH",
"859 1453 OFFCURVE",
"970 1447 OFFCURVE",
"1075 1424 CURVE SMOOTH",
"1179 1401 OFFCURVE",
"1277 1362 OFFCURVE",
"1357 1290 CURVE",
"1410 1237 OFFCURVE",
"1443 1173 OFFCURVE",
"1463 1104 CURVE SMOOTH",
"1483 1035 OFFCURVE",
"1490 960 OFFCURVE",
"1490 887 CURVE SMOOTH",
"1490 784 OFFCURVE",
"1482 655 OFFCURVE",
"1450 531 CURVE SMOOTH",
"1418 406 OFFCURVE",
"1360 284 OFFCURVE",
"1260 200 CURVE SMOOTH",
"1168 128 OFFCURVE",
"1065 90 OFFCURVE",
"958 67 CURVE SMOOTH",
"850 44 OFFCURVE",
"740 38 OFFCURVE",
"635 34 CURVE SMOOTH",
"568 31 OFFCURVE",
"497 28 OFFCURVE",
"425 24 CURVE SMOOTH",
"352 19 OFFCURVE",
"280 14 OFFCURVE",
"213 7 CURVE",
"301 460 OFFCURVE",
"345 903 OFFCURVE",
"345 1339 CURVE SMOOTH",
"345 1360 OFFCURVE",
"345 1381 OFFCURVE",
"345 1402 CURVE SMOOTH",
"345 1423 OFFCURVE",
"345 1444 OFFCURVE",
"344 1465 CURVE"
);
}
);
width = 1606;
}
);
unicode = 0044;
},
{
glyphname = E;
lastChange = "2012-10-19 02:34:44 -0500";
layers = (
{
anchors = (
{
name = bottom;
position = "{665, 0}";
},
{
name = ogonek;
position = "{1227, 10}";
},
{
name = top;
position = "{665, 1455}";
}
);
layerId = "013FA67F-D7C9-4F04-AAC6-32032829ED9A";
name = "Bold Italic";
paths = (
{
closed = 1;
nodes = (
"367 1484 LINE",
"513 1464 OFFCURVE",
"660 1454 OFFCURVE",
"809 1454 CURVE SMOOTH",
"960 1454 OFFCURVE",
"1119 1465 OFFCURVE",
"1287 1485 CURVE",
"1273 1402 LINE SMOOTH",
"1268 1371 OFFCURVE",
"1261 1328 OFFCURVE",
"1257 1297 CURVE",
"1102 1281 OFFCURVE",
"956 1274 OFFCURVE",
"816 1274 CURVE SMOOTH",
"721 1274 OFFCURVE",
"645 1276 OFFCURVE",
"552 1281 CURVE",
"549 1212 OFFCURVE",
"545 1146 OFFCURVE",
"540 1083 CURVE SMOOTH",
"535 1019 OFFCURVE",
"531 952 OFFCURVE",
"526 883 CURVE",
"602 882 OFFCURVE",
"671 881 OFFCURVE",
"748 881 CURVE SMOOTH",
"885 881 OFFCURVE",
"1042 884 OFFCURVE",
"1179 887 CURVE",
"1172 848 OFFCURVE",
"1166 792 OFFCURVE",
"1163 753 CURVE",
"1163 748 OFFCURVE",
"1163 739 OFFCURVE",
"1162 728 CURVE SMOOTH",
"1161 717 OFFCURVE",
"1161 708 OFFCURVE",
"1161 703 CURVE",
"1107 703 OFFCURVE",
"1050 703 OFFCURVE",
"989 703 CURVE SMOOTH",
"928 702 OFFCURVE",
"871 702 OFFCURVE",
"817 702 CURVE SMOOTH",
"510 702 LINE",
"505 639 OFFCURVE",
"500 581 OFFCURVE",
"494 523 CURVE SMOOTH",
"491 494 OFFCURVE",
"487 464 OFFCURVE",
"484 435 CURVE SMOOTH",
"481 406 OFFCURVE",
"477 375 OFFCURVE",
"474 344 CURVE",
"559 347 OFFCURVE",
"642 349 OFFCURVE",
"726 349 CURVE SMOOTH",
"870 349 OFFCURVE",
"1020 343 OFFCURVE",
"1181 330 CURVE",
"1178 283 OFFCURVE",
"1177 225 OFFCURVE",
"1176 169 CURVE SMOOTH",
"1175 140 OFFCURVE",
"1175 112 OFFCURVE",
"1175 84 CURVE SMOOTH",
"1175 56 OFFCURVE",
"1175 30 OFFCURVE",
"1175 7 CURVE",
"1010 27 OFFCURVE",
"852 37 OFFCURVE",
"703 37 CURVE SMOOTH",
"550 37 OFFCURVE",
"387 26 OFFCURVE",
"215 7 CURVE",
"299 503 OFFCURVE",
"340 985 OFFCURVE",
"344 1465 CURVE"
);
}
);
width = 1441;
}
);
unicode = 0045;
},
{
glyphname = F;
lastChange = "2012-10-19 02:34:44 -0500";
layers = (
{
layerId = "013FA67F-D7C9-4F04-AAC6-32032829ED9A";
name = "Bold Italic";
paths = (
{
closed = 1;
nodes = (
"366 1478 LINE",
"483 1462 OFFCURVE",
"601 1454 OFFCURVE",
"720 1454 CURVE SMOOTH",
"857 1454 OFFCURVE",
"1004 1465 OFFCURVE",
"1164 1488 CURVE",
"1162 1475 OFFCURVE",
"1160 1459 OFFCURVE",
"1157 1442 CURVE SMOOTH",
"1154 1425 OFFCURVE",
"1152 1407 OFFCURVE",
"1149 1389 CURVE SMOOTH",
"1146 1370 OFFCURVE",
"1144 1352 OFFCURVE",
"1141 1335 CURVE SMOOTH",
"1138 1318 OFFCURVE",
"1136 1302 OFFCURVE",
"1134 1289 CURVE",
"986 1272 OFFCURVE",
"845 1264 OFFCURVE",
"706 1264 CURVE SMOOTH",
"647 1264 OFFCURVE",
"604 1264 OFFCURVE",
"547 1267 CURVE",
"543 1234 OFFCURVE",
"539 1201 OFFCURVE",
"536 1170 CURVE SMOOTH",
"529 1107 OFFCURVE",
"522 1046 OFFCURVE",
"514 983 CURVE SMOOTH",
"510 951 OFFCURVE",
"506 918 OFFCURVE",
"502 884 CURVE",
"511 884 OFFCURVE",
"522 884 OFFCURVE",
"535 884 CURVE",
"548 883 OFFCURVE",
"559 883 OFFCURVE",
"568 883 CURVE SMOOTH",
"657 883 LINE SMOOTH",
"777 883 OFFCURVE",
"916 885 OFFCURVE",
"1036 888 CURVE",
"1033 868 OFFCURVE",
"1031 843 OFFCURVE",
"1028 817 CURVE",
"1027 804 OFFCURVE",
"1025 791 OFFCURVE",
"1024 779 CURVE SMOOTH",
"1023 766 OFFCURVE",
"1022 755 OFFCURVE",
"1021 745 CURVE SMOOTH",
"1013 666 LINE",
"984 667 OFFCURVE",
"953 667 OFFCURVE",
"918 667 CURVE SMOOTH",
"883 667 OFFCURVE",
"851 667 OFFCURVE",
"822 667 CURVE SMOOTH",
"793 667 OFFCURVE",
"764 667 OFFCURVE",
"735 667 CURVE SMOOTH",
"706 666 OFFCURVE",
"677 666 OFFCURVE",
"648 666 CURVE SMOOTH",
"492 666 LINE",
"479 459 OFFCURVE",
"463 240 OFFCURVE",
"443 33 CURVE",
"359 26 OFFCURVE",
"271 21 OFFCURVE",
"175 6 CURVE",
"268 499 OFFCURVE",
"320 984 OFFCURVE",
"343 1460 CURVE"
);
}
);
width = 1139;
}
);
unicode = 0046;
},
{
glyphname = G;
lastChange = "2012-10-19 02:34:44 -0500";
layers = (
{
anchors = (
{
name = bottom;
position = "{885, 0}";
},
{
name = top;
position = "{885, 1455}";
}
);
layerId = "013FA67F-D7C9-4F04-AAC6-32032829ED9A";
name = "Bold Italic";
paths = (
{
closed = 1;
nodes = (
"1156 392 LINE",
"1154 389 LINE",
"1155 390 OFFCURVE",
"1156 391 OFFCURVE",
"1156 391 CURVE"
);
},
{
closed = 1;
nodes = (
"871 335 LINE",
"895 336 OFFCURVE",
"920 336 OFFCURVE",
"947 337 CURVE",
"999 337 OFFCURVE",
"1052 344 OFFCURVE",
"1097 360 CURVE SMOOTH",
"1119 367 OFFCURVE",
"1138 379 OFFCURVE",
"1154 394 CURVE SMOOTH",
"1156 396 LINE",
"1157 419 OFFCURVE",
"1159 443 OFFCURVE",
"1160 466 CURVE SMOOTH",
"1161 489 OFFCURVE",
"1163 512 OFFCURVE",
"1164 535 CURVE",
"1117 536 OFFCURVE",
"1068 537 OFFCURVE",
"1017 537 CURVE SMOOTH",
"966 537 OFFCURVE",
"917 537 OFFCURVE",
"871 537 CURVE",
"890 760 LINE",
"1150 760 LINE SMOOTH",
"1191 760 OFFCURVE",
"1235 760 OFFCURVE",
"1282 761 CURVE SMOOTH",
"1329 761 OFFCURVE",
"1372 761 OFFCURVE",
"1413 761 CURVE",
"1394 552 OFFCURVE",
"1384 350 OFFCURVE",
"1384 150 CURVE",
"1219 45 OFFCURVE",
"1034 10 OFFCURVE",
"857 10 CURVE SMOOTH",
"761 10 OFFCURVE",
"659 20 OFFCURVE",
"566 48 CURVE SMOOTH",
"473 76 OFFCURVE",
"387 123 OFFCURVE",
"322 196 CURVE",
"275 253 OFFCURVE",
"245 321 OFFCURVE",
"225 394 CURVE SMOOTH",
"205 466 OFFCURVE",
"197 542 OFFCURVE",
"197 617 CURVE SMOOTH",
"197 722 OFFCURVE",
"207 847 OFFCURVE",
"240 968 CURVE SMOOTH",
"272 1088 OFFCURVE",
"326 1204 OFFCURVE",
"417 1292 CURVE SMOOTH",
"490 1360 OFFCURVE",
"583 1408 OFFCURVE",
"680 1438 CURVE SMOOTH",
"777 1468 OFFCURVE",
"879 1481 OFFCURVE",
"971 1481 CURVE SMOOTH",
"1054 1481 OFFCURVE",
"1138 1475 OFFCURVE",
"1221 1457 CURVE SMOOTH",
"1304 1439 OFFCURVE",
"1383 1409 OFFCURVE",
"1456 1362 CURVE",
"1447 1309 LINE SMOOTH",
"1445 1299 OFFCURVE",
"1443 1287 OFFCURVE",
"1441 1273 CURVE SMOOTH",
"1439 1258 OFFCURVE",
"1437 1244 OFFCURVE",
"1435 1229 CURVE",
"1430 1200 OFFCURVE",
"1426 1169 OFFCURVE",
"1423 1149 CURVE",
"1294 1268 OFFCURVE",
"1133 1322 OFFCURVE",
"977 1322 CURVE SMOOTH",
"910 1322 OFFCURVE",
"838 1315 OFFCURVE",
"768 1295 CURVE SMOOTH",
"698 1275 OFFCURVE",
"632 1243 OFFCURVE",
"579 1194 CURVE",
"516 1126 OFFCURVE",
"476 1043 OFFCURVE",
"451 957 CURVE SMOOTH",
"426 871 OFFCURVE",
"417 782 OFFCURVE",
"417 703 CURVE SMOOTH",
"417 651 OFFCURVE",
"420 596 OFFCURVE",
"433 547 CURVE SMOOTH",
"446 498 OFFCURVE",
"468 453 OFFCURVE",
"508 420 CURVE",
"507 421 LINE",
"556 385 OFFCURVE",
"617 364 OFFCURVE",
"679 352 CURVE SMOOTH",
"741 340 OFFCURVE",
"807 336 OFFCURVE",
"871 335 CURVE SMOOTH",
"872 335 LINE"
);
}
);
width = 1620;
}
);
unicode = 0047;
},
{
glyphname = H;
lastChange = "2013-05-02 13:03:38 -0500";
layers = (
{
anchors = (
{
name = bottom;
position = "{763, 14}";
},
{
name = center;
position = "{793, 728}";
},
{
name = top;
position = "{793, 1455}";
}
);
layerId = "013FA67F-D7C9-4F04-AAC6-32032829ED9A";
name = "Bold Italic";
paths = (
{
closed = 1;
nodes = (
"366 1482 LINE",
"425 1473 OFFCURVE",
"494 1467 OFFCURVE",
"567 1464 CURVE",
"560 1237 OFFCURVE",
"549 1017 OFFCURVE",
"529 789 CURVE",
"543 789 OFFCURVE",
"555 789 OFFCURVE",
"566 789 CURVE",
"577 788 OFFCURVE",
"589 788 OFFCURVE",
"603 788 CURVE SMOOTH",
"699 788 LINE SMOOTH",
"854 788 OFFCURVE",
"989 789 OFFCURVE",
"1144 790 CURVE",
"1163 1010 OFFCURVE",
"1191 1246 OFFCURVE",
"1227 1465 CURVE",
"1318 1472 LINE SMOOTH",
"1337 1473 OFFCURVE",
"1362 1475 OFFCURVE",
"1387 1478 CURVE",
"1400 1479 OFFCURVE",
"1412 1481 OFFCURVE",
"1424 1482 CURVE SMOOTH",
"1436 1483 OFFCURVE",
"1447 1484 OFFCURVE",
"1456 1485 CURVE",
"1381 1057 OFFCURVE",
"1341 644 OFFCURVE",
"1341 240 CURVE SMOOTH",
"1341 168 OFFCURVE",
"1343 78 OFFCURVE",
"1346 7 CURVE",
"1313 11 OFFCURVE",
"1269 15 OFFCURVE",
"1225 19 CURVE",
"1203 20 OFFCURVE",
"1181 22 OFFCURVE",
"1160 24 CURVE",
"1139 25 OFFCURVE",
"1119 27 OFFCURVE",
"1102 28 CURVE",
"1103 188 OFFCURVE",
"1108 345 OFFCURVE",
"1119 504 CURVE",
"1068 505 OFFCURVE",
"1017 506 OFFCURVE",
"966 506 CURVE SMOOTH",
"915 506 OFFCURVE",
"864 506 OFFCURVE",
"813 506 CURVE SMOOTH",
"758 506 OFFCURVE",
"707 506 OFFCURVE",
"658 506 CURVE SMOOTH",
"609 506 OFFCURVE",
"558 505 OFFCURVE",
"503 504 CURVE",
"486 351 OFFCURVE",
"465 181 OFFCURVE",
"442 28 CURVE",
"407 25 OFFCURVE",
"363 22 OFFCURVE",
"318 18 CURVE SMOOTH",
"295 16 OFFCURVE",
"273 14 OFFCURVE",
"252 13 CURVE",
"230 11 OFFCURVE",
"210 9 OFFCURVE",
"193 7 CURVE",
"294 503 OFFCURVE",
"338 983 OFFCURVE",
"343 1463 CURVE"
);
}
);
width = 1612;
}
);
unicode = 0048;
},
{
glyphname = I;
lastChange = "2013-04-22 07:27:55 -0500";
layers = (
{
anchors = (
{
name = bottom;
position = "{301, -66}";
},
{
name = ogonek;
position = "{535, 43}";
},
{
name = top;
position = "{465, 1455}";
}
);
layerId = "013FA67F-D7C9-4F04-AAC6-32032829ED9A";
name = "Bold Italic";
paths = (
{
closed = 1;
nodes = (
"367 1467 LINE",
"390 1460 OFFCURVE",
"413 1455 OFFCURVE",
"436 1455 CURVE SMOOTH",
"465 1455 OFFCURVE",
"503 1466 OFFCURVE",
"550 1487 CURVE",
"529 1250 OFFCURVE",
"508 996 OFFCURVE",
"489 742 CURVE SMOOTH",
"469 488 OFFCURVE",
"453 233 OFFCURVE",
"440 -4 CURVE",
"394 23 OFFCURVE",
"353 37 OFFCURVE",
"318 37 CURVE SMOOTH",
"283 37 OFFCURVE",
"237 22 OFFCURVE",
"182 -5 CURVE",
"242 471 OFFCURVE",
"296 975 OFFCURVE",
"341 1451 CURVE"
);
}
);
width = 709;
}
);
unicode = 0049;
},
{
glyphname = J;
lastChange = "2012-10-19 02:34:44 -0500";
layers = (
{
anchors = (
{
name = top;
position = "{400, 1455}";
}
);
layerId = "013FA67F-D7C9-4F04-AAC6-32032829ED9A";
name = "Bold Italic";
paths = (
{
closed = 1;
nodes = (
"561 1453 LINE",
"622 1456 OFFCURVE",
"684 1459 OFFCURVE",
"773 1478 CURVE",
"697 1021 OFFCURVE",
"636 543 OFFCURVE",
"585 86 CURVE SMOOTH",
"578 25 OFFCURVE",
"571 -40 OFFCURVE",
"553 -102 CURVE SMOOTH",
"535 -164 OFFCURVE",
"504 -223 OFFCURVE",
"455 -272 CURVE",
"412 -308 OFFCURVE",
"364 -331 OFFCURVE",
"315 -347 CURVE SMOOTH",
"266 -363 OFFCURVE",
"213 -373 OFFCURVE",
"164 -381 CURVE SMOOTH",
"114 -390 LINE",
"97 -390 OFFCURVE",
"72 -392 OFFCURVE",
"48 -395 CURVE",
"36 -396 OFFCURVE",
"24 -398 OFFCURVE",
"13 -399 CURVE SMOOTH",
"1 -400 OFFCURVE",
"-9 -401 OFFCURVE",
"-18 -402 CURVE",
"-7 -326 OFFCURVE",
"3 -228 OFFCURVE",
"11 -152 CURVE SMOOTH",
"12 -140 OFFCURVE",
"14 -124 OFFCURVE",
"16 -105 CURVE",
"17 -86 OFFCURVE",
"19 -70 OFFCURVE",
"20 -58 CURVE",
"80 -63 LINE",
"120 -66 LINE",
"172 -58 OFFCURVE",
"230 -43 OFFCURVE",
"278 -15 CURVE SMOOTH",
"325 13 OFFCURVE",
"362 53 OFFCURVE",
"371 113 CURVE",
"371 112 LINE",
"426 556 OFFCURVE",
"478 992 OFFCURVE",
"542 1436 CURVE"
);
}
);
width = 844;
}
);
unicode = 004A;
},
{
glyphname = K;
lastChange = "2012-10-19 02:34:44 -0500";
layers = (
{
anchors = (
{
name = bottom;
position = "{738, 0}";
},
{
name = top;
position = "{738, 1455}";
}
);
layerId = "013FA67F-D7C9-4F04-AAC6-32032829ED9A";
name = "Bold Italic";
paths = (
{
closed = 1;
nodes = (
"365 1479 LINE",
"424 1472 OFFCURVE",
"499 1467 OFFCURVE",
"559 1464 CURVE",
"554 1361 OFFCURVE",
"547 1268 OFFCURVE",
"540 1173 CURVE SMOOTH",
"532 1078 OFFCURVE",
"524 985 OFFCURVE",
"513 882 CURVE",
"670 1023 OFFCURVE",
"830 1163 OFFCURVE",
"991 1300 CURVE SMOOTH",
"1021 1326 OFFCURVE",
"1052 1353 OFFCURVE",
"1085 1382 CURVE SMOOTH",
"1118 1410 OFFCURVE",
"1149 1437 OFFCURVE",
"1179 1463 CURVE",
"1239 1466 OFFCURVE",
"1301 1469 OFFCURVE",
"1361 1474 CURVE SMOOTH",
"1468 1481 LINE",
"1166 1218 LINE SMOOTH",
"1085 1148 OFFCURVE",
"1005 1077 OFFCURVE",
"924 1006 CURVE SMOOTH",
"843 935 OFFCURVE",
"762 864 OFFCURVE",
"681 793 CURVE",
"690 782 OFFCURVE",
"700 770 OFFCURVE",
"710 759 CURVE SMOOTH",
"720 748 OFFCURVE",
"730 736 OFFCURVE",
"739 725 CURVE",
"838 614 OFFCURVE",
"952 488 OFFCURVE",
"1065 362 CURVE SMOOTH",
"1178 236 OFFCURVE",
"1292 111 OFFCURVE",
"1391 4 CURVE",
"1211 23 OFFCURVE",
"1049 33 OFFCURVE",
"897 36 CURVE",
"821 149 OFFCURVE",
"756 253 OFFCURVE",
"692 358 CURVE SMOOTH",
"628 462 OFFCURVE",
"565 568 OFFCURVE",
"496 685 CURVE",
"487 468 OFFCURVE",
"472 242 OFFCURVE",
"452 29 CURVE",
"433 28 OFFCURVE",
"411 26 OFFCURVE",
"387 25 CURVE",
"363 23 OFFCURVE",
"339 21 OFFCURVE",
"314 20 CURVE",
"264 16 OFFCURVE",
"214 11 OFFCURVE",
"174 7 CURVE",
"279 504 OFFCURVE",
"334 984 OFFCURVE",
"343 1460 CURVE"
);
}
);
width = 1658;
}
);
unicode = 004B;
},
{
glyphname = L;
lastChange = "2013-05-02 13:18:16 -0500";
layers = (
{
anchors = (
{
name = bottom;
position = "{612, 0}";
},
{
name = dot;
position = "{645, 871}";
},
{
name = top;
position = "{555, 1455}";
}
);
layerId = "013FA67F-D7C9-4F04-AAC6-32032829ED9A";
name = "Bold Italic";
paths = (
{
closed = 1;
nodes = (
"366 1481 LINE",
"425 1472 OFFCURVE",
"485 1465 OFFCURVE",
"557 1462 CURVE",
"538 1087 OFFCURVE",
"510 719 OFFCURVE",
"463 344 CURVE",
"543 347 OFFCURVE",
"623 349 OFFCURVE",
"703 349 CURVE SMOOTH",
"842 349 OFFCURVE",
"984 343 OFFCURVE",
"1140 330 CURVE",
"1135 283 OFFCURVE",
"1129 227 OFFCURVE",
"1125 171 CURVE SMOOTH",
"1120 114 OFFCURVE",
"1116 58 OFFCURVE",
"1113 11 CURVE",
"961 28 OFFCURVE",
"815 37 OFFCURVE",
"670 37 CURVE SMOOTH",
"520 37 OFFCURVE",
"361 27 OFFCURVE",
"193 7 CURVE",
"284 500 OFFCURVE",
"331 988 OFFCURVE",
"343 1463 CURVE"
);
}
);
width = 1378;
}
);
unicode = 004C;
},
{
glyphname = M;
lastChange = "2013-05-02 13:03:55 -0500";
layers = (
{
anchors = (
{
name = top;
position = "{1041, 1130}";
}
);
layerId = "013FA67F-D7C9-4F04-AAC6-32032829ED9A";
name = "Bold Italic";
paths = (
{
closed = 1;
nodes = (
"364 1481 LINE",
"456 1472 OFFCURVE",
"558 1465 OFFCURVE",
"649 1461 CURVE",
"704 1321 OFFCURVE",
"753 1189 OFFCURVE",
"799 1055 CURVE SMOOTH",
"845 921 OFFCURVE",
"889 786 OFFCURVE",
"934 643 CURVE",
"991 752 LINE SMOOTH",
"1114 987 OFFCURVE",
"1244 1236 OFFCURVE",
"1383 1463 CURVE",
"1426 1464 OFFCURVE",
"1478 1468 OFFCURVE",
"1530 1472 CURVE SMOOTH",
"1556 1474 OFFCURVE",
"1582 1476 OFFCURVE",
"1607 1478 CURVE",
"1632 1479 OFFCURVE",
"1656 1481 OFFCURVE",
"1678 1483 CURVE",
"1606 1095 OFFCURVE",
"1566 722 OFFCURVE",
"1566 354 CURVE SMOOTH",
"1566 245 OFFCURVE",
"1570 116 OFFCURVE",
"1577 8 CURVE",
"1538 12 OFFCURVE",
"1491 15 OFFCURVE",
"1443 19 CURVE",
"1419 20 OFFCURVE",
"1396 22 OFFCURVE",
"1373 23 CURVE SMOOTH",
"1350 24 OFFCURVE",
"1328 26 OFFCURVE",
"1309 27 CURVE",
"1316 431 OFFCURVE",
"1359 820 OFFCURVE",
"1426 1205 CURVE",
"1302 942 OFFCURVE",
"1195 679 OFFCURVE",
"1086 411 CURVE",
"1086 412 LINE",
"1077 389 OFFCURVE",
"1066 363 OFFCURVE",
"1055 336 CURVE SMOOTH",
"1043 308 OFFCURVE",
"1032 282 OFFCURVE",
"1023 259 CURVE",
"956 259 LINE SMOOTH",
"947 259 OFFCURVE",
"939 259 OFFCURVE",
"930 260 CURVE",
"921 260 OFFCURVE",
"912 260 OFFCURVE",
"903 260 CURVE SMOOTH",
"894 260 OFFCURVE",
"885 260 OFFCURVE",
"876 260 CURVE",
"867 259 OFFCURVE",
"857 259 OFFCURVE",
"848 259 CURVE SMOOTH",
"781 259 LINE",
"719 513 LINE SMOOTH",
"666 742 OFFCURVE",
"607 983 OFFCURVE",
"539 1211 CURVE",
"538 819 OFFCURVE",
"509 426 OFFCURVE",
"456 26 CURVE",
"417 25 OFFCURVE",
"368 22 OFFCURVE",
"319 19 CURVE SMOOTH",
"270 15 OFFCURVE",
"221 12 OFFCURVE",
"182 8 CURVE",
"294 501 OFFCURVE",
"343 987 OFFCURVE",
"343 1462 CURVE"
);
}
);
width = 1843;
}
);
unicode = 004D;
},
{
glyphname = N;
lastChange = "2012-10-19 02:34:44 -0500";
layers = (
{
anchors = (
{
name = bottom;
position = "{775, 0}";
},
{
name = top;
position = "{775, 1455}";
}
);
layerId = "013FA67F-D7C9-4F04-AAC6-32032829ED9A";
name = "Bold Italic";
paths = (
{
closed = 1;
nodes = (
"358 1450 LINE",
"421 1442 OFFCURVE",
"481 1438 OFFCURVE",
"545 1434 CURVE",
"544 1434 LINE",
"551 1434 OFFCURVE",
"559 1434 OFFCURVE",
"569 1433 CURVE SMOOTH",
"579 1432 OFFCURVE",
"587 1432 OFFCURVE",
"594 1432 CURVE",
"702 1220 OFFCURVE",
"802 993 OFFCURVE",
"898 776 CURVE SMOOTH",
"916 735 OFFCURVE",
"933 698 OFFCURVE",
"948 663 CURVE SMOOTH",
"979 594 OFFCURVE",
"1008 528 OFFCURVE",
"1040 460 CURVE SMOOTH",
"1056 425 OFFCURVE",
"1074 388 OFFCURVE",
"1093 347 CURVE",
"1121 718 OFFCURVE",
"1167 1092 OFFCURVE",
"1239 1468 CURVE",
"1252 1469 OFFCURVE",
"1268 1470 OFFCURVE",
"1286 1472 CURVE",
"1303 1473 OFFCURVE",
"1322 1475 OFFCURVE",
"1341 1477 CURVE",
"1360 1478 OFFCURVE",
"1378 1480 OFFCURVE",
"1396 1482 CURVE SMOOTH",
"1413 1484 OFFCURVE",
"1429 1486 OFFCURVE",
"1442 1487 CURVE",
"1358 1030 OFFCURVE",
"1311 582 OFFCURVE",
"1311 143 CURVE SMOOTH",
"1311 104 OFFCURVE",
"1312 47 OFFCURVE",
"1313 8 CURVE",
"1269 13 OFFCURVE",
"1216 18 OFFCURVE",
"1163 22 CURVE SMOOTH",
"1110 26 OFFCURVE",
"1057 29 OFFCURVE",
"1013 32 CURVE",
"904 251 OFFCURVE",
"803 482 OFFCURVE",
"706 707 CURVE SMOOTH",
"671 790 OFFCURVE",
"637 871 OFFCURVE",
"604 951 CURVE SMOOTH",
"571 1030 OFFCURVE",
"536 1111 OFFCURVE",
"499 1192 CURVE",
"496 808 OFFCURVE",
"476 428 OFFCURVE",
"439 29 CURVE",
"420 28 OFFCURVE",
"398 26 OFFCURVE",
"375 25 CURVE",
"352 23 OFFCURVE",
"328 21 OFFCURVE",
"304 20 CURVE",
"255 16 OFFCURVE",
"206 11 OFFCURVE",
"167 7 CURVE",
"271 494 OFFCURVE",
"323 964 OFFCURVE",
"336 1431 CURVE"
);
}
);
width = 1579;
}
);
unicode = 004E;
},
{
glyphname = O;
lastChange = "2013-04-22 07:27:19 -0500";
layers = (
{
anchors = (
{
name = bottom;
position = "{728, -44}";
},
{
name = horncomb;
position = "{1409, 1010}";
},
{
name = top;
position = "{902, 1455}";
}
);
layerId = "013FA67F-D7C9-4F04-AAC6-32032829ED9A";
name = "Bold Italic";
paths = (
{
closed = 1;
nodes = (
"836 1305 OFFCURVE",
"773 1294 OFFCURVE",
"715 1270 CURVE SMOOTH",
"657 1246 OFFCURVE",
"604 1210 OFFCURVE",
"563 1158 CURVE SMOOTH",
"507 1091 OFFCURVE",
"471 1010 OFFCURVE",
"448 926 CURVE SMOOTH",
"425 841 OFFCURVE",
"416 754 OFFCURVE",
"416 675 CURVE SMOOTH",
"416 632 OFFCURVE",
"420 590 OFFCURVE",
"433 552 CURVE SMOOTH",
"445 514 OFFCURVE",
"466 480 OFFCURVE",
"501 459 CURVE SMOOTH",
"545 431 OFFCURVE",
"597 414 OFFCURVE",
"650 404 CURVE SMOOTH",
"702 394 OFFCURVE",
"757 390 OFFCURVE",
"812 390 CURVE SMOOTH",
"919 390 OFFCURVE",
"1038 408 OFFCURVE",
"1134 460 CURVE",
"1197 500 OFFCURVE",
"1231 568 OFFCURVE",
"1251 640 CURVE SMOOTH",
"1270 711 OFFCURVE",
"1274 787 OFFCURVE",
"1274 843 CURVE SMOOTH",
"1274 958 OFFCURVE",
"1256 1069 OFFCURVE",
"1199 1162 CURVE",
"1199 1161 LINE",
"1132 1257 OFFCURVE",
"1018 1305 OFFCURVE",
"897 1305 CURVE SMOOTH"
);
},
{
closed = 1;
nodes = (
"997 1480 OFFCURVE",
"1087 1467 OFFCURVE",
"1168 1436 CURVE SMOOTH",
"1249 1405 OFFCURVE",
"1322 1358 OFFCURVE",
"1375 1287 CURVE SMOOTH",
"1419 1228 OFFCURVE",
"1448 1162 OFFCURVE",
"1466 1091 CURVE SMOOTH",
"1484 1019 OFFCURVE",
"1490 944 OFFCURVE",
"1490 871 CURVE SMOOTH",
"1490 760 OFFCURVE",
"1478 639 OFFCURVE",
"1446 523 CURVE SMOOTH",
"1414 406 OFFCURVE",
"1361 294 OFFCURVE",
"1280 201 CURVE",
"1212 129 OFFCURVE",
"1130 80 OFFCURVE",
"1042 51 CURVE SMOOTH",
"954 22 OFFCURVE",
"860 10 OFFCURVE",
"769 10 CURVE SMOOTH",
"682 10 OFFCURVE",
"596 24 OFFCURVE",
"517 55 CURVE SMOOTH",
"437 86 OFFCURVE",
"367 134 OFFCURVE",
"315 202 CURVE SMOOTH",
"271 259 OFFCURVE",
"243 326 OFFCURVE",
"225 398 CURVE SMOOTH",
"207 469 OFFCURVE",
"199 543 OFFCURVE",
"199 618 CURVE SMOOTH",
"199 725 OFFCURVE",
"208 847 OFFCURVE",
"239 965 CURVE SMOOTH",
"270 1083 OFFCURVE",
"322 1197 OFFCURVE",
"409 1288 CURVE",
"408 1288 LINE",
"473 1359 OFFCURVE",
"554 1408 OFFCURVE",
"641 1438 CURVE SMOOTH",
"728 1468 OFFCURVE",
"820 1480 OFFCURVE",
"909 1480 CURVE SMOOTH"
);
}
);
width = 1605;
}
);
unicode = 004F;
},
{
glyphname = P;
lastChange = "2012-10-19 02:34:44 -0500";
layers = (
{
layerId = "013FA67F-D7C9-4F04-AAC6-32032829ED9A";
name = "Bold Italic";
paths = (
{
closed = 1;
nodes = (
"564 1376 LINE",
"562 1357 LINE",
"559 1357 OFFCURVE",
"557 1357 OFFCURVE",
"554 1357 CURVE SMOOTH",
"551 1357 OFFCURVE",
"547 1357 OFFCURVE",
"544 1358 CURVE"
);
},
{
closed = 1;
nodes = (
"718 1354 OFFCURVE",
"641 1354 OFFCURVE",
"562 1357 CURVE",
"547 1182 OFFCURVE",
"532 1025 OFFCURVE",
"512 849 CURVE",
"600 848 OFFCURVE",
"687 847 OFFCURVE",
"775 847 CURVE SMOOTH",
"844 847 OFFCURVE",
"915 876 OFFCURVE",
"967 924 CURVE SMOOTH",
"1019 972 OFFCURVE",
"1055 1038 OFFCURVE",
"1056 1111 CURVE",
"1058 1126 OFFCURVE",
"1059 1140 OFFCURVE",
"1059 1154 CURVE SMOOTH",
"1059 1238 OFFCURVE",
"1021 1289 OFFCURVE",
"969 1318 CURVE SMOOTH",
"917 1346 OFFCURVE",
"851 1354 OFFCURVE",
"798 1354 CURVE SMOOTH"
);
},
{
closed = 1;
nodes = (
"364 1476 LINE",
"504 1460 OFFCURVE",
"644 1455 OFFCURVE",
"785 1455 CURVE SMOOTH",
"841 1455 OFFCURVE",
"897 1452 OFFCURVE",
"952 1443 CURVE SMOOTH",
"1007 1434 OFFCURVE",
"1059 1417 OFFCURVE",
"1107 1389 CURVE",
"1155 1357 OFFCURVE",
"1187 1315 OFFCURVE",
"1207 1268 CURVE SMOOTH",
"1226 1221 OFFCURVE",
"1234 1169 OFFCURVE",
"1234 1117 CURVE SMOOTH",
"1234 1046 OFFCURVE",
"1223 969 OFFCURVE",
"1198 895 CURVE SMOOTH",
"1173 821 OFFCURVE",
"1132 750 OFFCURVE",
"1075 697 CURVE SMOOTH",
"1024 650 OFFCURVE",
"966 622 OFFCURVE",
"903 604 CURVE SMOOTH",
"840 586 OFFCURVE",
"775 580 OFFCURVE",
"712 580 CURVE SMOOTH",
"673 580 OFFCURVE",
"637 580 OFFCURVE",
"604 580 CURVE SMOOTH",
"571 580 OFFCURVE",
"534 580 OFFCURVE",
"495 579 CURVE",
"472 400 OFFCURVE",
"444 207 OFFCURVE",
"413 30 CURVE",
"377 27 OFFCURVE",
"331 24 OFFCURVE",
"284 20 CURVE SMOOTH",
"237 16 OFFCURVE",
"190 11 OFFCURVE",
"154 7 CURVE",
"262 500 OFFCURVE",
"318 983 OFFCURVE",
"342 1458 CURVE"
);
}
);
width = 1280;
}
);
unicode = 0050;
},
{
glyphname = Q;
lastChange = "2012-10-19 02:34:44 -0500";
layers = (
{
layerId = "013FA67F-D7C9-4F04-AAC6-32032829ED9A";
name = "Bold Italic";
paths = (
{
closed = 1;
nodes = (
"770 1299 OFFCURVE",
"648 1255 OFFCURVE",
"563 1154 CURVE SMOOTH",
"508 1089 OFFCURVE",
"473 1010 OFFCURVE",
"450 928 CURVE SMOOTH",
"426 846 OFFCURVE",
"417 761 OFFCURVE",
"417 685 CURVE SMOOTH",
"417 641 OFFCURVE",
"421 596 OFFCURVE",
"434 556 CURVE SMOOTH",
"446 516 OFFCURVE",
"469 482 OFFCURVE",
"505 459 CURVE SMOOTH",
"588 407 OFFCURVE",
"671 389 OFFCURVE",
"775 373 CURVE",
"812 426 LINE",
"819 437 OFFCURVE",
"828 450 OFFCURVE",
"839 465 CURVE",
"849 480 OFFCURVE",
"858 493 OFFCURVE",
"865 504 CURVE",
"940 468 OFFCURVE",
"1010 446 OFFCURVE",
"1082 435 CURVE",
"1161 475 OFFCURVE",
"1210 537 OFFCURVE",
"1239 610 CURVE SMOOTH",
"1268 682 OFFCURVE",
"1278 764 OFFCURVE",
"1278 844 CURVE SMOOTH",
"1278 956 OFFCURVE",
"1260 1063 OFFCURVE",
"1201 1154 CURVE SMOOTH",
"1169 1203 OFFCURVE",
"1123 1239 OFFCURVE",
"1071 1263 CURVE SMOOTH",
"1018 1287 OFFCURVE",
"957 1299 OFFCURVE",
"897 1299 CURVE SMOOTH"
);
},
{
closed = 1;
nodes = (
"1333 262 OFFCURVE",
"1283 186 OFFCURVE",
"1219 118 CURVE",
"1288 30 OFFCURVE",
"1359 -56 OFFCURVE",
"1432 -141 CURVE SMOOTH",
"1437 -147 OFFCURVE",
"1444 -155 OFFCURVE",
"1453 -165 CURVE",
"1461 -175 OFFCURVE",
"1470 -185 OFFCURVE",
"1479 -196 CURVE SMOOTH",
"1488 -207 OFFCURVE",
"1497 -218 OFFCURVE",
"1506 -228 CURVE",
"1514 -238 OFFCURVE",
"1521 -246 OFFCURVE",
"1526 -252 CURVE",
"1354 -234 OFFCURVE",
"1191 -223 OFFCURVE",
"1036 -219 CURVE",
"992 -166 LINE",
"993 -166 LINE",
"968 -135 OFFCURVE",
"944 -106 OFFCURVE",
"921 -79 CURVE SMOOTH",
"898 -52 OFFCURVE",
"874 -22 OFFCURVE",
"849 9 CURVE",
"830 7 OFFCURVE",
"809 6 OFFCURVE",
"786 6 CURVE SMOOTH",
"697 6 OFFCURVE",
"608 18 OFFCURVE",
"528 49 CURVE SMOOTH",
"448 80 OFFCURVE",
"377 127 OFFCURVE",
"324 199 CURVE SMOOTH",
"277 263 OFFCURVE",
"248 335 OFFCURVE",
"229 412 CURVE SMOOTH",
"209 488 OFFCURVE",
"202 569 OFFCURVE",
"202 649 CURVE SMOOTH",
"202 753 OFFCURVE",
"212 869 OFFCURVE",
"243 981 CURVE SMOOTH",
"274 1092 OFFCURVE",
"325 1198 OFFCURVE",
"408 1285 CURVE SMOOTH",
"472 1352 OFFCURVE",
"550 1399 OFFCURVE",
"634 1430 CURVE SMOOTH",
"717 1461 OFFCURVE",
"806 1474 OFFCURVE",
"891 1474 CURVE SMOOTH",
"980 1474 OFFCURVE",
"1074 1460 OFFCURVE",
"1159 1429 CURVE SMOOTH",
"1244 1398 OFFCURVE",
"1322 1350 OFFCURVE",
"1378 1281 CURVE SMOOTH",
"1422 1225 OFFCURVE",
"1450 1160 OFFCURVE",
"1469 1090 CURVE SMOOTH",
"1488 1020 OFFCURVE",
"1495 945 OFFCURVE",
"1495 872 CURVE SMOOTH",
"1495 792 OFFCURVE",
"1489 700 OFFCURVE",
"1472 609 CURVE SMOOTH",
"1455 518 OFFCURVE",
"1426 426 OFFCURVE",
"1382 346 CURVE SMOOTH"
);
}
);
width = 1847;
}
);
unicode = 0051;
},
{
glyphname = R;
lastChange = "2012-10-19 02:34:44 -0500";
layers = (
{
anchors = (
{
name = bottom;
position = "{731, 0}";
},
{
name = top;
position = "{731, 1455}";
}
);
layerId = "013FA67F-D7C9-4F04-AAC6-32032829ED9A";
name = "Bold Italic";
paths = (
{
closed = 1;
nodes = (
"1227 1032 OFFCURVE",
"1211 947 OFFCURVE",
"1175 872 CURVE SMOOTH",
"1138 797 OFFCURVE",
"1081 732 OFFCURVE",
"1000 700 CURVE",
"1045 675 OFFCURVE",
"1079 637 OFFCURVE",
"1107 594 CURVE SMOOTH",
"1134 551 OFFCURVE",
"1156 503 OFFCURVE",
"1177 458 CURVE SMOOTH",
"1190 428 LINE",
"1189 429 LINE",
"1217 362 OFFCURVE",
"1250 289 OFFCURVE",
"1284 216 CURVE SMOOTH",
"1318 143 OFFCURVE",
"1351 70 OFFCURVE",
"1383 6 CURVE",
"1340 11 OFFCURVE",
"1287 16 OFFCURVE",
"1233 21 CURVE SMOOTH",
"1179 25 OFFCURVE",
"1124 28 OFFCURVE",
"1081 31 CURVE",
"1037 151 OFFCURVE",
"993 280 OFFCURVE",
"954 403 CURVE",
"955 401 LINE",
"926 469 OFFCURVE",
"894 538 OFFCURVE",
"841 585 CURVE",
"842 584 LINE",
"795 617 OFFCURVE",
"738 627 OFFCURVE",
"678 627 CURVE SMOOTH",
"653 627 OFFCURVE",
"632 627 OFFCURVE",
"614 627 CURVE SMOOTH",
"595 627 OFFCURVE",
"574 627 OFFCURVE",
"550 626 CURVE",
"531 430 OFFCURVE",
"505 224 OFFCURVE",
"477 28 CURVE",
"441 27 OFFCURVE",
"395 23 OFFCURVE",
"348 19 CURVE SMOOTH",
"301 15 OFFCURVE",
"254 11 OFFCURVE",
"218 7 CURVE",
"306 484 OFFCURVE",
"348 945 OFFCURVE",
"348 1402 CURVE SMOOTH",
"348 1487 LINE",
"509 1466 OFFCURVE",
"656 1459 OFFCURVE",
"800 1456 CURVE SMOOTH",
"901 1453 OFFCURVE",
"1003 1440 OFFCURVE",
"1091 1389 CURVE",
"1142 1354 OFFCURVE",
"1176 1310 OFFCURVE",
"1197 1262 CURVE SMOOTH",
"1218 1213 OFFCURVE",
"1227 1160 OFFCURVE",
"1227 1107 CURVE SMOOTH"
);
},
{
closed = 1;
nodes = (
"579 1362 LINE",
"579 1359 OFFCURVE",
"579 1355 OFFCURVE",
"579 1352 CURVE",
"578 1349 OFFCURVE",
"578 1345 OFFCURVE",
"578 1342 CURVE",
"558 1344 LINE"
);
},
{
closed = 1;
nodes = (
"774 1336 OFFCURVE",
"736 1336 OFFCURVE",
"697 1337 CURVE SMOOTH",
"658 1338 OFFCURVE",
"618 1339 OFFCURVE",
"578 1342 CURVE",
"575 1255 OFFCURVE",
"571 1174 OFFCURVE",
"567 1092 CURVE SMOOTH",
"563 1010 OFFCURVE",
"558 928 OFFCURVE",
"551 841 CURVE",
"588 840 OFFCURVE",
"626 840 OFFCURVE",
"663 840 CURVE SMOOTH",
"700 840 OFFCURVE",
"738 840 OFFCURVE",
"775 840 CURVE SMOOTH",
"832 840 OFFCURVE",
"904 861 OFFCURVE",
"961 897 CURVE SMOOTH",
"1018 933 OFFCURVE",
"1063 985 OFFCURVE",
"1070 1045 CURVE",
"1070 1048 OFFCURVE",
"1070 1051 OFFCURVE",
"1071 1054 CURVE",
"1071 1056 OFFCURVE",
"1071 1059 OFFCURVE",
"1071 1062 CURVE",
"1072 1077 OFFCURVE",
"1073 1091 OFFCURVE",
"1073 1106 CURVE SMOOTH",
"1073 1173 OFFCURVE",
"1059 1238 OFFCURVE",
"1007 1274 CURVE SMOOTH",
"951 1314 OFFCURVE",
"885 1334 OFFCURVE",
"813 1335 CURVE SMOOTH"
);
}
);
width = 1649;
}
);
unicode = 0052;
},
{
glyphname = S;
lastChange = "2013-04-22 07:31:24 -0500";
layers = (
{
anchors = (
{
name = bottom;
position = "{694, 0}";
},
{
name = top;
position = "{831, 1493}";
}
);
layerId = "013FA67F-D7C9-4F04-AAC6-32032829ED9A";
name = "Bold Italic";
paths = (
{
closed = 1;
nodes = (
"1216 1355 LINE",
"1215 1346 OFFCURVE",
"1213 1335 OFFCURVE",
"1212 1323 CURVE",
"1210 1310 OFFCURVE",
"1208 1298 OFFCURVE",
"1206 1285 CURVE SMOOTH",
"1202 1260 OFFCURVE",
"1199 1234 OFFCURVE",
"1196 1214 CURVE",
"1067 1269 OFFCURVE",
"936 1305 OFFCURVE",
"807 1305 CURVE SMOOTH",
"730 1305 OFFCURVE",
"649 1295 OFFCURVE",
"574 1255 CURVE",
"576 1256 LINE",
"503 1208 OFFCURVE",
"476 1140 OFFCURVE",
"476 1072 CURVE SMOOTH",
"476 1029 OFFCURVE",
"489 983 OFFCURVE",
"516 954 CURVE",
"543 933 OFFCURVE",
"575 918 OFFCURVE",
"610 907 CURVE SMOOTH",
"645 895 OFFCURVE",
"681 887 OFFCURVE",
"714 879 CURVE",
"773 867 LINE SMOOTH",
"872 847 OFFCURVE",
"970 826 OFFCURVE",
"1058 766 CURVE SMOOTH",
"1110 730 OFFCURVE",
"1146 683 OFFCURVE",
"1170 630 CURVE SMOOTH",
"1193 577 OFFCURVE",
"1204 519 OFFCURVE",
"1204 460 CURVE SMOOTH",
"1204 399 OFFCURVE",
"1197 331 OFFCURVE",
"1175 270 CURVE SMOOTH",
"1153 209 OFFCURVE",
"1115 152 OFFCURVE",
"1058 111 CURVE",
"990 66 OFFCURVE",
"917 42 OFFCURVE",
"845 28 CURVE SMOOTH",
"773 14 OFFCURVE",
"700 11 OFFCURVE",
"629 10 CURVE SMOOTH",
"476 10 OFFCURVE",
"322 31 OFFCURVE",
"169 78 CURVE",
"177 126 OFFCURVE",
"186 184 OFFCURVE",
"195 243 CURVE SMOOTH",
"203 302 OFFCURVE",
"212 360 OFFCURVE",
"217 408 CURVE",
"357 327 OFFCURVE",
"504 287 OFFCURVE",
"652 287 CURVE SMOOTH",
"736 287 OFFCURVE",
"826 301 OFFCURVE",
"899 348 CURVE SMOOTH",
"920 361 OFFCURVE",
"944 380 OFFCURVE",
"961 401 CURVE SMOOTH",
"978 421 OFFCURVE",
"991 444 OFFCURVE",
"991 469 CURVE SMOOTH",
"991 537 OFFCURVE",
"940 582 OFFCURVE",
"874 614 CURVE SMOOTH",
"808 645 OFFCURVE",
"729 661 OFFCURVE",
"673 672 CURVE SMOOTH",
"640 679 LINE SMOOTH",
"587 690 OFFCURVE",
"533 705 OFFCURVE",
"483 726 CURVE SMOOTH",
"433 747 OFFCURVE",
"386 776 OFFCURVE",
"347 816 CURVE SMOOTH",
"288 880 OFFCURVE",
"269 970 OFFCURVE",
"269 1058 CURVE SMOOTH",
"269 1117 OFFCURVE",
"278 1179 OFFCURVE",
"301 1236 CURVE SMOOTH",
"324 1293 OFFCURVE",
"361 1344 OFFCURVE",
"416 1383 CURVE SMOOTH",
"473 1423 OFFCURVE",
"537 1446 OFFCURVE",
"602 1461 CURVE SMOOTH",
"666 1476 OFFCURVE",
"733 1480 OFFCURVE",
"798 1480 CURVE SMOOTH",
"941 1480 OFFCURVE",
"1079 1463 OFFCURVE",
"1215 1427 CURVE",
"1209 1415 LINE",
"1225 1414 LINE"
);
}
);
width = 1389;
}
);
unicode = 0053;
},
{
glyphname = T;
lastChange = "2013-05-02 13:24:19 -0500";
layers = (
{
anchors = (
{
name = bottom;
position = "{866, 37}";
},
{
name = center;
position = "{987, 728}";
},
{
name = top;
position = "{987, 1455}";
}
);
layerId = "013FA67F-D7C9-4F04-AAC6-32032829ED9A";
name = "Bold Italic";
paths = (
{
closed = 1;
nodes = (
"366 1484 LINE",
"560 1464 OFFCURVE",
"755 1454 OFFCURVE",
"952 1454 CURVE SMOOTH",
"1163 1454 OFFCURVE",
"1375 1465 OFFCURVE",
"1598 1486 CURVE",
"1587 1420 LINE SMOOTH",
"1584 1402 OFFCURVE",
"1580 1382 OFFCURVE",
"1575 1359 CURVE SMOOTH",
"1570 1336 OFFCURVE",
"1566 1316 OFFCURVE",
"1563 1298 CURVE",
"1462 1294 OFFCURVE",
"1343 1290 OFFCURVE",
"1243 1290 CURVE SMOOTH",
"1176 1290 OFFCURVE",
"1127 1290 OFFCURVE",
"1062 1293 CURVE",
"1033 877 OFFCURVE",
"1004 450 OFFCURVE",
"995 35 CURVE",
"959 36 OFFCURVE",
"903 37 OFFCURVE",
"866 37 CURVE SMOOTH",
"793 37 LINE SMOOTH",
"787 37 OFFCURVE",
"780 37 OFFCURVE",
"771 37 CURVE SMOOTH",
"762 37 OFFCURVE",
"754 37 OFFCURVE",
"745 37 CURVE",
"736 36 OFFCURVE",
"727 36 OFFCURVE",
"718 36 CURVE SMOOTH",
"709 36 OFFCURVE",
"702 36 OFFCURVE",
"696 36 CURVE",
"752 457 OFFCURVE",
"803 871 OFFCURVE",
"847 1292 CURVE",
"832 1292 OFFCURVE",
"815 1292 OFFCURVE",
"798 1292 CURVE SMOOTH",
"762 1291 OFFCURVE",
"726 1290 OFFCURVE",
"691 1290 CURVE SMOOTH",
"673 1290 OFFCURVE",
"657 1290 OFFCURVE",
"642 1290 CURVE SMOOTH",
"550 1290 OFFCURVE",
"438 1292 OFFCURVE",
"346 1299 CURVE",
"346 1348 OFFCURVE",
"345 1416 OFFCURVE",
"344 1465 CURVE"
);
}
);
width = 1555;
}
);
unicode = 0054;
},
{
glyphname = U;
lastChange = "2013-04-22 07:26:32 -0500";
layers = (
{
anchors = (
{
name = bottom;
position = "{825, -57}";
},
{
name = horncomb;
position = "{1363, 1242}";
},
{
name = ogonek;
position = "{1052, 55}";
},
{
name = top;
position = "{876, 1455}";
}
);
layerId = "013FA67F-D7C9-4F04-AAC6-32032829ED9A";
name = "Bold Italic";
paths = (
{
closed = 1;
nodes = (
"365 1483 LINE",
"425 1475 OFFCURVE",
"498 1467 OFFCURVE",
"558 1463 CURVE",
"553 1222 OFFCURVE",
"537 966 OFFCURVE",
"517 723 CURVE SMOOTH",
"514 688 OFFCURVE",
"512 652 OFFCURVE",
"512 619 CURVE SMOOTH",
"512 540 OFFCURVE",
"522 465 OFFCURVE",
"563 404 CURVE",
"562 404 LINE",
"587 368 OFFCURVE",
"625 345 OFFCURVE",
"669 332 CURVE SMOOTH",
"713 319 OFFCURVE",
"762 315 OFFCURVE",
"807 315 CURVE SMOOTH",
"852 315 OFFCURVE",
"902 320 OFFCURVE",
"948 334 CURVE SMOOTH",
"994 348 OFFCURVE",
"1036 370 OFFCURVE",
"1068 406 CURVE",
"1101 450 OFFCURVE",
"1125 503 OFFCURVE",
"1141 559 CURVE SMOOTH",
"1157 615 OFFCURVE",
"1165 673 OFFCURVE",
"1170 728 CURVE SMOOTH",
"1176 787 OFFCURVE",
"1182 847 OFFCURVE",
"1189 910 CURVE SMOOTH",
"1201 1034 OFFCURVE",
"1217 1161 OFFCURVE",
"1234 1285 CURVE SMOOTH",
"1242 1347 OFFCURVE",
"1251 1407 OFFCURVE",
"1261 1465 CURVE",
"1304 1468 OFFCURVE",
"1362 1473 OFFCURVE",
"1405 1478 CURVE SMOOTH",
"1481 1485 LINE",
"1418 1165 OFFCURVE",
"1386 864 OFFCURVE",
"1363 564 CURVE SMOOTH",
"1358 493 OFFCURVE",
"1348 418 OFFCURVE",
"1326 347 CURVE SMOOTH",
"1304 275 OFFCURVE",
"1268 207 OFFCURVE",
"1215 150 CURVE",
"1152 90 OFFCURVE",
"1082 55 OFFCURVE",
"1008 35 CURVE SMOOTH",
"934 15 OFFCURVE",
"857 9 OFFCURVE",
"785 9 CURVE SMOOTH",
"713 9 OFFCURVE",
"639 14 OFFCURVE",
"570 32 CURVE SMOOTH",
"501 50 OFFCURVE",
"437 81 OFFCURVE",
"388 133 CURVE SMOOTH",
"349 177 OFFCURVE",
"326 227 OFFCURVE",
"311 280 CURVE SMOOTH",
"296 332 OFFCURVE",
"291 386 OFFCURVE",
"291 441 CURVE SMOOTH",
"291 485 OFFCURVE",
"294 527 OFFCURVE",
"298 568 CURVE SMOOTH",
"326 847 OFFCURVE",
"343 1119 OFFCURVE",
"343 1395 CURVE SMOOTH",
"343 1464 LINE"
);
}
);
width = 1523;
}
);
unicode = 0055;
},
{
glyphname = V;
lastChange = "2012-10-19 02:34:44 -0500";
layers = (
{
layerId = "013FA67F-D7C9-4F04-AAC6-32032829ED9A";
name = "Bold Italic";
paths = (
{
closed = 1;
nodes = (
"736 51 LINE",
"721 110 OFFCURVE",
"707 170 OFFCURVE",
"693 229 CURVE SMOOTH",
"665 347 OFFCURVE",
"630 495 OFFCURVE",
"587 672 CURVE SMOOTH",
"544 849 OFFCURVE",
"497 1029 OFFCURVE",
"441 1211 CURVE SMOOTH",
"413 1302 OFFCURVE",
"382 1394 OFFCURVE",
"349 1488 CURVE",
"380 1484 OFFCURVE",
"420 1480 OFFCURVE",
"461 1476 CURVE SMOOTH",
"502 1472 OFFCURVE",
"542 1468 OFFCURVE",
"573 1467 CURVE",
"686 1195 OFFCURVE",
"782 905 OFFCURVE",
"874 622 CURVE SMOOTH",
"939 427 LINE",
"958 464 OFFCURVE",
"976 501 OFFCURVE",
"994 538 CURVE SMOOTH",
"1012 575 OFFCURVE",
"1030 611 OFFCURVE",
"1049 647 CURVE SMOOTH",
"1116 780 OFFCURVE",
"1187 921 OFFCURVE",
"1261 1061 CURVE SMOOTH",
"1335 1201 OFFCURVE",
"1410 1340 OFFCURVE",
"1487 1468 CURVE",
"1530 1471 OFFCURVE",
"1580 1475 OFFCURVE",
"1623 1479 CURVE SMOOTH",
"1718 1486 LINE",
"1606 1277 OFFCURVE",
"1508 1070 OFFCURVE",
"1418 865 CURVE SMOOTH",
"1328 660 OFFCURVE",
"1244 455 OFFCURVE",
"1163 251 CURVE SMOOTH",
"1076 36 LINE",
"1054 37 OFFCURVE",
"1030 37 OFFCURVE",
"1004 37 CURVE SMOOTH",
"978 37 OFFCURVE",
"954 37 OFFCURVE",
"932 37 CURVE SMOOTH",
"917 37 OFFCURVE",
"902 37 OFFCURVE",
"887 37 CURVE",
"872 36 OFFCURVE",
"857 36 OFFCURVE",
"842 36 CURVE SMOOTH",
"755 36 LINE"
);
}
);
width = 1670;
}
);
unicode = 0056;
},
{
glyphname = W;
lastChange = "2012-10-19 02:34:44 -0500";
layers = (
{
anchors = (
{
name = top;
position = "{1305, 1455}";
}
);
layerId = "013FA67F-D7C9-4F04-AAC6-32032829ED9A";
name = "Bold Italic";
paths = (
{
closed = 1;
nodes = (
"431 1480 LINE",
"555 1471 LINE",
"610 1306 OFFCURVE",
"653 1139 OFFCURVE",
"690 972 CURVE SMOOTH",
"726 804 OFFCURVE",
"756 636 OFFCURVE",
"783 468 CURVE",
"859 591 OFFCURVE",
"931 712 OFFCURVE",
"1003 837 CURVE SMOOTH",
"1028 879 OFFCURVE",
"1053 923 OFFCURVE",
"1079 968 CURVE SMOOTH",
"1105 1013 OFFCURVE",
"1131 1056 OFFCURVE",
"1156 1097 CURVE",
"1333 1097 LINE",
"1358 1028 OFFCURVE",
"1388 947 OFFCURVE",
"1412 876 CURVE SMOOTH",
"1426 837 OFFCURVE",
"1439 800 OFFCURVE",
"1451 765 CURVE SMOOTH",
"1475 696 OFFCURVE",
"1499 629 OFFCURVE",
"1524 561 CURVE SMOOTH",
"1537 526 OFFCURVE",
"1551 489 OFFCURVE",
"1566 450 CURVE",
"1693 798 OFFCURVE",
"1830 1141 OFFCURVE",
"2009 1474 CURVE",
"2044 1475 OFFCURVE",
"2087 1477 OFFCURVE",
"2122 1480 CURVE",
"2128 1481 OFFCURVE",
"2136 1481 OFFCURVE",
"2145 1482 CURVE",
"2154 1482 OFFCURVE",
"2164 1482 OFFCURVE",
"2174 1483 CURVE",
"2193 1484 OFFCURVE",
"2212 1485 OFFCURVE",
"2223 1485 CURVE",
"2104 1246 OFFCURVE",
"2007 1004 OFFCURVE",
"1927 760 CURVE SMOOTH",
"1846 516 OFFCURVE",
"1780 271 OFFCURVE",
"1723 27 CURVE",
"1678 28 OFFCURVE",
"1625 30 OFFCURVE",
"1573 31 CURVE SMOOTH",
"1520 32 OFFCURVE",
"1467 34 OFFCURVE",
"1423 35 CURVE",
"1348 256 OFFCURVE",
"1294 472 OFFCURVE",
"1241 688 CURVE SMOOTH",
"1236 711 OFFCURVE",
"1234 720 OFFCURVE",
"1232 729 CURVE SMOOTH",
"1231 734 OFFCURVE",
"1229 739 OFFCURVE",
"1228 745 CURVE",
"1226 750 OFFCURVE",
"1224 759 OFFCURVE",
"1221 770 CURVE",
"1168 651 OFFCURVE",
"1111 525 OFFCURVE",
"1052 400 CURVE SMOOTH",
"993 275 OFFCURVE",
"934 150 OFFCURVE",
"875 34 CURVE",
"826 34 OFFCURVE",
"769 33 OFFCURVE",
"713 31 CURVE SMOOTH",
"684 30 OFFCURVE",
"656 29 OFFCURVE",
"629 28 CURVE SMOOTH",
"602 27 OFFCURVE",
"576 26 OFFCURVE",
"551 25 CURVE",
"542 270 OFFCURVE",
"526 517 OFFCURVE",
"495 762 CURVE SMOOTH",
"463 1006 OFFCURVE",
"416 1249 OFFCURVE",
"348 1486 CURVE"
);
}
);
width = 2175;
}
);
unicode = 0057;
},
{
glyphname = X;
lastChange = "2012-10-19 02:34:44 -0500";
layers = (
{
layerId = "013FA67F-D7C9-4F04-AAC6-32032829ED9A";
name = "Bold Italic";
paths = (
{
closed = 1;
nodes = (
"359 1477 LINE",
"402 1472 OFFCURVE",
"440 1470 OFFCURVE",
"483 1467 CURVE SMOOTH",
"493 1466 OFFCURVE",
"506 1466 OFFCURVE",
"521 1465 CURVE SMOOTH",
"536 1464 OFFCURVE",
"548 1463 OFFCURVE",
"557 1462 CURVE",
"612 1362 OFFCURVE",
"663 1265 OFFCURVE",
"712 1169 CURVE SMOOTH",
"737 1120 OFFCURVE",
"761 1071 OFFCURVE",
"786 1022 CURVE SMOOTH",
"810 973 OFFCURVE",
"835 922 OFFCURVE",
"860 871 CURVE",
"993 1070 OFFCURVE",
"1131 1273 OFFCURVE",
"1274 1466 CURVE",
"1317 1469 OFFCURVE",
"1366 1472 OFFCURVE",
"1409 1476 CURVE SMOOTH",
"1512 1483 LINE",
"1328 1234 OFFCURVE",
"1145 957 OFFCURVE",
"977 698 CURVE",
"1044 586 OFFCURVE",
"1117 467 OFFCURVE",
"1192 348 CURVE SMOOTH",
"1267 229 OFFCURVE",
"1343 113 OFFCURVE",
"1416 6 CURVE",
"1368 11 OFFCURVE",
"1306 16 OFFCURVE",
"1245 21 CURVE SMOOTH",
"1184 25 OFFCURVE",
"1122 29 OFFCURVE",
"1073 32 CURVE",
"1026 116 OFFCURVE",
"983 197 OFFCURVE",
"942 278 CURVE SMOOTH",
"901 358 OFFCURVE",
"859 440 OFFCURVE",
"818 528 CURVE",
"707 360 OFFCURVE",
"591 191 OFFCURVE",
"474 30 CURVE",
"450 29 OFFCURVE",
"423 27 OFFCURVE",
"392 26 CURVE SMOOTH",
"331 22 OFFCURVE",
"266 17 OFFCURVE",
"206 13 CURVE SMOOTH",
"175 10 OFFCURVE",
"148 8 OFFCURVE",
"123 5 CURVE",
"218 114 OFFCURVE",
"318 232 OFFCURVE",
"416 352 CURVE SMOOTH",
"514 471 OFFCURVE",
"611 590 OFFCURVE",
"703 703 CURVE",
"700 710 OFFCURVE",
"696 718 OFFCURVE",
"693 725 CURVE SMOOTH",
"690 732 OFFCURVE",
"687 739 OFFCURVE",
"684 746 CURVE SMOOTH",
"575 982 OFFCURVE",
"461 1221 OFFCURVE",
"340 1449 CURVE"
);
}
);
width = 1682;
}
);
unicode = 0058;
},
{
glyphname = Y;
lastChange = "2013-04-22 07:17:30 -0500";
layers = (
{
anchors = (
{
name = bottom;
position = "{841, 0}";
},
{
name = top;
position = "{981, 1455}";
}
);
layerId = "013FA67F-D7C9-4F04-AAC6-32032829ED9A";
name = "Bold Italic";
paths = (
{
closed = 1;
nodes = (
"361 1484 LINE",
"425 1476 OFFCURVE",
"496 1470 OFFCURVE",
"559 1465 CURVE",
"620 1345 OFFCURVE",
"677 1228 OFFCURVE",
"732 1111 CURVE SMOOTH",
"787 994 OFFCURVE",
"839 875 OFFCURVE",
"894 751 CURVE",
"1042 991 OFFCURVE",
"1194 1236 OFFCURVE",
"1354 1468 CURVE",
"1405 1471 OFFCURVE",
"1462 1475 OFFCURVE",
"1513 1480 CURVE SMOOTH",
"1592 1487 LINE",
"1505 1360 OFFCURVE",
"1419 1224 OFFCURVE",
"1335 1085 CURVE SMOOTH",
"1251 946 OFFCURVE",
"1168 806 OFFCURVE",
"1092 674 CURVE SMOOTH",
"1077 649 OFFCURVE",
"1063 624 OFFCURVE",
"1048 599 CURVE SMOOTH",
"1033 574 OFFCURVE",
"1019 549 OFFCURVE",
"1005 524 CURVE",
"990 365 OFFCURVE",
"980 192 OFFCURVE",
"971 35 CURVE",
"936 36 OFFCURVE",
"882 37 OFFCURVE",
"847 37 CURVE SMOOTH",
"777 37 LINE SMOOTH",
"771 37 OFFCURVE",
"764 37 OFFCURVE",
"756 37 CURVE SMOOTH",
"748 37 OFFCURVE",
"740 37 OFFCURVE",
"731 37 CURVE",
"722 36 OFFCURVE",
"714 36 OFFCURVE",
"706 36 CURVE SMOOTH",
"697 36 OFFCURVE",
"690 36 OFFCURVE",
"684 36 CURVE",
"692 115 OFFCURVE",
"700 197 OFFCURVE",
"709 280 CURVE SMOOTH",
"718 363 OFFCURVE",
"726 445 OFFCURVE",
"733 524 CURVE",
"609 837 OFFCURVE",
"487 1149 OFFCURVE",
"342 1456 CURVE"
);
}
);
width = 1544;
}
);
unicode = 0059;
},
{
glyphname = Z;
lastChange = "2013-05-02 13:20:11 -0500";
layers = (
{
anchors = (
{
name = bottom;
position = "{763, -54}";
},
{
name = top;
position = "{861, 1455}";
}
);
layerId = "013FA67F-D7C9-4F04-AAC6-32032829ED9A";
name = "Bold Italic";
paths = (
{
closed = 1;
nodes = (
"364 1481 LINE",
"545 1462 OFFCURVE",
"724 1455 OFFCURVE",
"907 1455 CURVE SMOOTH",
"1096 1455 OFFCURVE",
"1298 1465 OFFCURVE",
"1511 1485 CURVE",
"1510 1479 OFFCURVE",
"1508 1472 OFFCURVE",
"1507 1464 CURVE SMOOTH",
"1506 1455 OFFCURVE",
"1504 1447 OFFCURVE",
"1502 1438 CURVE SMOOTH",
"1498 1421 OFFCURVE",
"1494 1403 OFFCURVE",
"1493 1391 CURVE",
"1479 1316 LINE",
"1396 1231 OFFCURVE",
"1312 1145 OFFCURVE",
"1228 1060 CURVE SMOOTH",
"1144 975 OFFCURVE",
"1060 889 OFFCURVE",
"977 804 CURVE SMOOTH",
"936 762 OFFCURVE",
"896 722 OFFCURVE",
"859 683 CURVE SMOOTH",
"783 606 OFFCURVE",
"710 531 OFFCURVE",
"635 455 CURVE SMOOTH",
"597 416 OFFCURVE",
"557 376 OFFCURVE",
"515 334 CURVE",
"623 337 OFFCURVE",
"733 339 OFFCURVE",
"841 339 CURVE SMOOTH",
"1024 339 OFFCURVE",
"1221 333 OFFCURVE",
"1401 321 CURVE",
"1400 289 OFFCURVE",
"1399 238 OFFCURVE",
"1399 205 CURVE SMOOTH",
"1399 146 OFFCURVE",
"1400 67 OFFCURVE",
"1403 8 CURVE",
"1196 27 OFFCURVE",
"997 37 OFFCURVE",
"802 37 CURVE SMOOTH",
"611 37 OFFCURVE",
"407 27 OFFCURVE",
"190 7 CURVE",
"199 51 OFFCURVE",
"209 102 OFFCURVE",
"218 154 CURVE SMOOTH",
"227 206 OFFCURVE",
"236 258 OFFCURVE",
"243 302 CURVE",
"406 471 OFFCURVE",
"561 633 OFFCURVE",
"718 794 CURVE SMOOTH",
"875 954 OFFCURVE",
"1033 1113 OFFCURVE",
"1200 1280 CURVE",
"1096 1276 OFFCURVE",
"992 1274 OFFCURVE",
"889 1274 CURVE SMOOTH",
"713 1274 OFFCURVE",
"534 1280 OFFCURVE",
"343 1297 CURVE",
"343 1462 LINE"
);
}
);
width = 1669;
}
);
unicode = 005A;
},
{
glyphname = bracketleft;
lastChange = "2012-10-19 02:34:44 -0500";
layers = (
{
layerId = "013FA67F-D7C9-4F04-AAC6-32032829ED9A";
name = "Bold Italic";
paths = (
{
closed = 1;
nodes = (
"385 1542 LINE",
"440 1518 OFFCURVE",
"501 1507 OFFCURVE",
"564 1507 CURVE SMOOTH",
"632 1507 OFFCURVE",
"709 1524 OFFCURVE",
"792 1553 CURVE",
"785 1481 LINE",
"774 1389 LINE",
"698 1362 OFFCURVE",
"625 1353 OFFCURVE",
"556 1353 CURVE SMOOTH",
"551 1353 OFFCURVE",
"548 1353 OFFCURVE",
"549 1353 CURVE",
"549 1352 OFFCURVE",
"546 1352 OFFCURVE",
"541 1353 CURVE",
"505 902 OFFCURVE",
"466 461 OFFCURVE",
"425 9 CURVE",
"439 9 LINE SMOOTH",
"504 9 OFFCURVE",
"574 3 OFFCURVE",
"649 -21 CURVE",
"646 -65 OFFCURVE",
"643 -125 OFFCURVE",
"640 -168 CURVE SMOOTH",
"635 -262 LINE",
"559 -234 OFFCURVE",
"489 -220 OFFCURVE",
"425 -220 CURVE SMOOTH",
"357 -220 OFFCURVE",
"282 -234 OFFCURVE",
"200 -262 CURVE",
"268 327 OFFCURVE",
"322 937 OFFCURVE",
"357 1526 CURVE"
);
}
);
width = 958;
}
);
unicode = 005B;
},
{
glyphname = backslash;
lastChange = "2012-10-19 02:34:44 -0500";
layers = (
{
layerId = "013FA67F-D7C9-4F04-AAC6-32032829ED9A";
name = "Bold Italic";
paths = (
{
closed = 1;
nodes = (
"535 1435 LINE",
"587 1179 OFFCURVE",
"633 924 OFFCURVE",
"680 667 CURVE SMOOTH",
"704 532 OFFCURVE",
"732 381 OFFCURVE",
"760 230 CURVE SMOOTH",
"788 79 OFFCURVE",
"818 -71 OFFCURVE",
"846 -204 CURVE",
"799 -195 LINE",
"744 -180 OFFCURVE",
"691 -168 OFFCURVE",
"623 -163 CURVE",
"576 96 OFFCURVE",
"534 367 OFFCURVE",
"493 627 CURVE SMOOTH",
"482 696 OFFCURVE",
"470 768 OFFCURVE",
"459 841 CURVE SMOOTH",
"435 987 OFFCURVE",
"411 1134 OFFCURVE",
"387 1279 CURVE SMOOTH",
"374 1352 OFFCURVE",
"362 1423 OFFCURVE",
"349 1492 CURVE",
"420 1467 OFFCURVE",
"471 1458 OFFCURVE",
"518 1451 CURVE"
);
}
);
width = 1157;
}
);
unicode = 005C;
},
{
glyphname = bracketright;
lastChange = "2012-10-19 02:34:44 -0500";
layers = (
{
layerId = "013FA67F-D7C9-4F04-AAC6-32032829ED9A";
name = "Bold Italic";
paths = (
{
closed = 1;
nodes = (
"794 1523 LINE",
"726 934 OFFCURVE",
"671 328 OFFCURVE",
"638 -261 CURVE",
"563 -234 OFFCURVE",
"494 -220 OFFCURVE",
"429 -220 CURVE SMOOTH",
"362 -220 OFFCURVE",
"288 -234 OFFCURVE",
"205 -262 CURVE",
"219 -137 LINE",
"230 -30 LINE",
"307 -10 OFFCURVE",
"379 0 OFFCURVE",
"446 0 CURVE SMOOTH",
"458 0 LINE",
"468 115 OFFCURVE",
"478 229 OFFCURVE",
"488 341 CURVE SMOOTH",
"507 565 OFFCURVE",
"526 788 OFFCURVE",
"547 1012 CURVE SMOOTH",
"557 1124 OFFCURVE",
"567 1238 OFFCURVE",
"578 1353 CURVE",
"560 1353 LINE SMOOTH",
"492 1353 OFFCURVE",
"422 1360 OFFCURVE",
"353 1391 CURVE",
"354 1401 OFFCURVE",
"354 1413 OFFCURVE",
"355 1428 CURVE SMOOTH",
"356 1443 OFFCURVE",
"357 1455 OFFCURVE",
"358 1465 CURVE",
"363 1554 LINE",
"436 1522 OFFCURVE",
"505 1507 OFFCURVE",
"568 1507 CURVE SMOOTH",
"636 1507 OFFCURVE",
"704 1520 OFFCURVE",
"768 1543 CURVE"
);
}
);
width = 961;
}
);
unicode = 005D;
},
{
glyphname = asciicircum;
lastChange = "2012-10-19 02:34:44 -0500";
layers = (
{
layerId = "013FA67F-D7C9-4F04-AAC6-32032829ED9A";
name = "Bold Italic";
paths = (
{
closed = 1;
nodes = (
"1016 1473 LINE",
"1037 1450 OFFCURVE",
"1059 1425 OFFCURVE",
"1082 1399 CURVE SMOOTH",
"1105 1372 OFFCURVE",
"1127 1347 OFFCURVE",
"1148 1322 CURVE SMOOTH",
"1203 1258 OFFCURVE",
"1258 1194 OFFCURVE",
"1322 1127 CURVE SMOOTH",
"1386 1060 OFFCURVE",
"1459 991 OFFCURVE",
"1550 918 CURVE",
"1527 919 OFFCURVE",
"1501 920 OFFCURVE",
"1472 921 CURVE SMOOTH",
"1412 924 OFFCURVE",
"1348 926 OFFCURVE",
"1288 927 CURVE SMOOTH",
"1257 928 OFFCURVE",
"1231 928 OFFCURVE",
"1208 929 CURVE",
"1120 1029 OFFCURVE",
"1057 1135 OFFCURVE",
"992 1243 CURVE SMOOTH",
"985 1254 OFFCURVE",
"980 1263 OFFCURVE",
"975 1272 CURVE",
"970 1280 OFFCURVE",
"965 1288 OFFCURVE",
"960 1296 CURVE SMOOTH",
"955 1304 OFFCURVE",
"949 1312 OFFCURVE",
"944 1321 CURVE SMOOTH",
"939 1330 OFFCURVE",
"933 1339 OFFCURVE",
"926 1350 CURVE",
"893 1310 OFFCURVE",
"863 1272 OFFCURVE",
"831 1231 CURVE SMOOTH",
"751 1130 OFFCURVE",
"671 1028 OFFCURVE",
"571 928 CURVE",
"526 928 OFFCURVE",
"463 927 OFFCURVE",
"400 925 CURVE SMOOTH",
"368 924 OFFCURVE",
"337 923 OFFCURVE",
"307 922 CURVE SMOOTH",
"277 921 OFFCURVE",
"251 920 OFFCURVE",
"228 919 CURVE",
"324 991 OFFCURVE",
"406 1057 OFFCURVE",
"479 1121 CURVE SMOOTH",
"551 1185 OFFCURVE",
"615 1246 OFFCURVE",
"678 1306 CURVE SMOOTH",
"705 1332 OFFCURVE",
"735 1360 OFFCURVE",
"766 1390 CURVE SMOOTH",
"797 1420 OFFCURVE",
"827 1448 OFFCURVE",
"856 1473 CURVE"
);
}
);
width = 1623;
}
);
unicode = 005E;
},
{
glyphname = underscore;
lastChange = "2012-10-19 02:34:44 -0500";
layers = (
{
layerId = "013FA67F-D7C9-4F04-AAC6-32032829ED9A";
name = "Bold Italic";
paths = (
{
closed = 1;
nodes = (
"1050 -300 LINE",
"1029 -319 OFFCURVE",
"1016 -348 OFFCURVE",
"1016 -375 CURVE SMOOTH",
"1016 -395 OFFCURVE",
"1034 -425 OFFCURVE",
"1074 -462 CURVE",
"990 -461 OFFCURVE",
"893 -460 OFFCURVE",
"795 -459 CURVE SMOOTH",
"746 -459 OFFCURVE",
"697 -459 OFFCURVE",
"650 -458 CURVE SMOOTH",
"602 -458 OFFCURVE",
"557 -458 OFFCURVE",
"515 -458 CURVE SMOOTH",
"472 -458 OFFCURVE",
"427 -458 OFFCURVE",
"380 -458 CURVE SMOOTH",
"332 -459 OFFCURVE",
"284 -459 OFFCURVE",
"235 -459 CURVE SMOOTH",
"138 -460 OFFCURVE",
"40 -461 OFFCURVE",
"-44 -462 CURVE",
"3 -419 OFFCURVE",
"26 -383 OFFCURVE",
"26 -354 CURVE SMOOTH",
"26 -332 OFFCURVE",
"9 -302 OFFCURVE",
"-24 -265 CURVE",
"56 -266 OFFCURVE",
"147 -268 OFFCURVE",
"238 -268 CURVE SMOOTH",
"283 -269 OFFCURVE",
"328 -269 OFFCURVE",
"373 -269 CURVE SMOOTH",
"418 -270 OFFCURVE",
"460 -270 OFFCURVE",
"500 -270 CURVE SMOOTH",
"680 -270 OFFCURVE",
"857 -269 OFFCURVE",
"1037 -266 CURVE"
);
}
);
width = 1440;
}
);
unicode = 005F;
},
{
glyphname = grave;
lastChange = "2013-04-22 07:14:46 -0500";
layers = (
{
anchors = (
{
name = _top;
position = "{618, 678}";
}
);
layerId = "013FA67F-D7C9-4F04-AAC6-32032829ED9A";
name = "Bold Italic";
paths = (
{
closed = 1;
nodes = (
"599 1610 LINE",
"615 1587 OFFCURVE",
"631 1564 OFFCURVE",
"646 1541 CURVE SMOOTH",
"676 1493 OFFCURVE",
"712 1436 OFFCURVE",
"763 1361 CURVE SMOOTH",
"788 1324 OFFCURVE",
"820 1283 OFFCURVE",
"857 1238 CURVE",
"840 1239 OFFCURVE",
"820 1240 OFFCURVE",
"798 1241 CURVE SMOOTH",
"776 1242 OFFCURVE",
"754 1243 OFFCURVE",
"731 1244 CURVE SMOOTH",
"708 1245 OFFCURVE",
"686 1245 OFFCURVE",
"665 1246 CURVE SMOOTH",
"643 1247 OFFCURVE",
"623 1247 OFFCURVE",
"606 1247 CURVE SMOOTH",
"562 1247 LINE",
"553 1266 OFFCURVE",
"543 1288 OFFCURVE",
"533 1311 CURVE SMOOTH",
"523 1334 OFFCURVE",
"513 1356 OFFCURVE",
"504 1375 CURVE SMOOTH",
"488 1412 OFFCURVE",
"472 1449 OFFCURVE",
"453 1489 CURVE SMOOTH",
"433 1529 OFFCURVE",
"410 1574 OFFCURVE",
"378 1627 CURVE",
"406 1624 OFFCURVE",
"443 1623 OFFCURVE",
"480 1621 CURVE SMOOTH",
"517 1619 OFFCURVE",
"555 1617 OFFCURVE",
"583 1617 CURVE"
);
}
);
width = 862;
}
);
unicode = 0060;
},
{
glyphname = a;
lastChange = "2013-06-15 12:00:20 -0500";
layers = (
{
anchors = (
{
name = bottom;
position = "{510, -61}";
},
{
name = ogonek;
position = "{1162, 64}";
},
{
name = top;
position = "{643, 1108}";
}
);
layerId = "013FA67F-D7C9-4F04-AAC6-32032829ED9A";
name = "Bold Italic";
paths = (
{
closed = 1;
nodes = (
"1066.82 614.898 OFFCURVE",
"1011 382 OFFCURVE",
"1089 9 CURVE",
"1052 14 OFFCURVE",
"974.838 19.997 OFFCURVE",
"935.844 22.996 CURVE SMOOTH",
"872.855 27.995 LINE",
"883 65 OFFCURVE",
"888 94 OFFCURVE",
"875.854 163.973 CURVE",
"835.861 115.981 OFFCURVE",
"784.869 76.987 OFFCURVE",
"728.879 50.992 CURVE SMOOTH",
"672.888 24.996 OFFCURVE",
"611.898 9.998 OFFCURVE",
"550.908 9.998 CURVE SMOOTH",
"535.911 9.998 LINE SMOOTH",
"534.911 9.998 OFFCURVE",
"532.911 9.998 OFFCURVE",
"531.911 9.998 CURVE",
"529.912 8.999 OFFCURVE",
"527.912 8.999 OFFCURVE",
"526.912 8.999 CURVE SMOOTH",
"516.914 8.999 LINE SMOOTH",
"399.933 8.999 OFFCURVE",
"290.952 57.99 OFFCURVE",
"227.962 152.975 CURVE SMOOTH",
"170.972 240.96 OFFCURVE",
"151.975 341.943 OFFCURVE",
"151.975 446.926 CURVE SMOOTH",
"151.975 527.912 OFFCURVE",
"160.973 622.896 OFFCURVE",
"184.969 715.881 CURVE SMOOTH",
"208.965 807.866 OFFCURVE",
"248.959 896.851 OFFCURVE",
"311.948 971.838 CURVE",
"310.948 970.838 LINE",
"347.942 1018.83 OFFCURVE",
"397.934 1055.82 OFFCURVE",
"450.925 1080.82 CURVE SMOOTH",
"503.916 1105.82 OFFCURVE",
"562.906 1119.81 OFFCURVE",
"618.897 1119.81 CURVE SMOOTH",
"646.892 1119.81 LINE SMOOTH",
"766.872 1119.81 OFFCURVE",
"878 1059 OFFCURVE",
"936.844 964.839 CURVE",
"948 1055 OFFCURVE",
"949 1081 OFFCURVE",
"956.841 1129.81 CURVE",
"1016 1130 OFFCURVE",
"1016 1130 OFFCURVE",
"1066.82 1129.81 CURVE",
"1068.82 1129.81 OFFCURVE",
"1115.81 1127.81 OFFCURVE",
"1122.81 1129.81 CURVE",
"1129.81 1130.81 OFFCURVE",
"1152.81 1126.81 OFFCURVE",
"1161.81 1129.81 CURVE"
);
},
{
closed = 1;
nodes = (
"596.901 975.838 LINE SMOOTH",
"529.912 975.838 OFFCURVE",
"477.92 950.842 OFFCURVE",
"435.927 910.848 CURVE SMOOTH",
"393.934 870.855 OFFCURVE",
"362.94 816.864 OFFCURVE",
"339.943 757.874 CURVE SMOOTH",
"316.947 697.884 OFFCURVE",
"310 635 OFFCURVE",
"303 578 CURVE",
"304 545 OFFCURVE",
"302.95 509.915 OFFCURVE",
"311.948 477.92 CURVE SMOOTH",
"319.947 445.926 OFFCURVE",
"335 428 OFFCURVE",
"358 404 CURVE",
"381 381 OFFCURVE",
"410 368 OFFCURVE",
"442 361 CURVE SMOOTH",
"474 354 OFFCURVE",
"509 352 OFFCURVE",
"542 352 CURVE",
"610 355 OFFCURVE",
"683 359 OFFCURVE",
"743 398 CURVE",
"742 397 LINE",
"782 426 OFFCURVE",
"802.866 463.923 OFFCURVE",
"814.864 514.914 CURVE SMOOTH",
"826.862 565.906 OFFCURVE",
"827.862 617.897 OFFCURVE",
"827.862 653.891 CURVE SMOOTH",
"827.862 705.883 OFFCURVE",
"822.863 757.874 OFFCURVE",
"811.865 808.865 CURVE SMOOTH",
"800.867 859.857 OFFCURVE",
"775.871 901.85 OFFCURVE",
"742.876 930.845 CURVE SMOOTH",
"709.882 959.84 OFFCURVE",
"667.889 975.838 OFFCURVE",
"620.897 975.838 CURVE SMOOTH"
);
}
);
width = 1276;
}
);
unicode = 0061;
},
{
glyphname = b;
lastChange = "2013-05-02 20:14:28 -0500";
layers = (
{
anchors = (
{
name = bottom;
position = "{677, -43}";
}
);
layerId = "013FA67F-D7C9-4F04-AAC6-32032829ED9A";
name = "Bold Italic";
paths = (
{
closed = 1;
nodes = (
"1088 624 LINE SMOOTH",
"1088 628 OFFCURVE",
"1088 632 OFFCURVE",
"1089 636 CURVE",
"1089 640 OFFCURVE",
"1089 644 OFFCURVE",
"1089 648 CURVE SMOOTH",
"1089 725 OFFCURVE",
"1079 809 OFFCURVE",
"1047 872 CURVE SMOOTH",
"1014 935 OFFCURVE",
"960 979 OFFCURVE",
"872 979 CURVE SMOOTH",
"791 979 OFFCURVE",
"708 947 OFFCURVE",
"653 880 CURVE",
"590 797 OFFCURVE",
"564 689 OFFCURVE",
"553 592 CURVE",
"556 528 OFFCURVE",
"569 456 OFFCURVE",
"605 405 CURVE",
"630 380 OFFCURVE",
"664 362 OFFCURVE",
"699 351 CURVE SMOOTH",
"734 339 OFFCURVE",
"770 334 OFFCURVE",
"803 334 CURVE",
"867 338 OFFCURVE",
"931 354 OFFCURVE",
"987 393 CURVE",
"985 391 LINE",
"1017 416 OFFCURVE",
"1039 452 OFFCURVE",
"1055 489 CURVE SMOOTH",
"1071 526 OFFCURVE",
"1081 566 OFFCURVE",
"1089 605 CURVE",
"1088 601 LINE"
);
},
{
closed = 1;
nodes = (
"541 1334 OFFCURVE",
"526 1146 OFFCURVE",
"507 969 CURVE",
"543 1017 OFFCURVE",
"592 1056 OFFCURVE",
"646 1081 CURVE SMOOTH",
"700 1106 OFFCURVE",
"758 1120 OFFCURVE",
"817 1120 CURVE SMOOTH",
"847 1120 LINE SMOOTH",
"976 1120 OFFCURVE",
"1068 1060 OFFCURVE",
"1128 971 CURVE SMOOTH",
"1188 882 OFFCURVE",
"1215 762 OFFCURVE",
"1215 645 CURVE SMOOTH",
"1215 565 OFFCURVE",
"1208 478 OFFCURVE",
"1187 392 CURVE SMOOTH",
"1166 306 OFFCURVE",
"1130 222 OFFCURVE",
"1071 153 CURVE SMOOTH",
"991 58 OFFCURVE",
"874 9 OFFCURVE",
"757 10 CURVE SMOOTH",
"742 10 LINE SMOOTH",
"741 10 OFFCURVE",
"739 10 OFFCURVE",
"738 10 CURVE",
"736 9 OFFCURVE",
"734 9 OFFCURVE",
"733 9 CURVE SMOOTH",
"724 9 LINE SMOOTH",
"664 9 OFFCURVE",
"606 24 OFFCURVE",
"554 51 CURVE SMOOTH",
"502 78 OFFCURVE",
"424 110 OFFCURVE",
"375 166 CURVE",
"253 307 LINE",
"346 822 OFFCURVE",
"347 1026 OFFCURVE",
"358 1533 CURVE",
"464 1511 OFFCURVE",
"546 1510 OFFCURVE",
"553 1509 CURVE"
);
}
);
width = 1372;
}
);
unicode = 0062;
},
{
glyphname = c;
lastChange = "2012-10-19 02:34:44 -0500";
layers = (
{
anchors = (
{
name = bottom;
position = "{654, 0}";
},
{
name = top;
position = "{654, 1108}";
}
);
layerId = "013FA67F-D7C9-4F04-AAC6-32032829ED9A";
name = "Bold Italic";
paths = (
{
closed = 1;
nodes = (
"1020 1049 LINE",
"1046 1053 LINE",
"1042 1034 OFFCURVE",
"1039 1016 OFFCURVE",
"1036 999 CURVE SMOOTH",
"1033 982 OFFCURVE",
"1029 964 OFFCURVE",
"1026 945 CURVE",
"1026 946 LINE",
"1018 886 LINE",
"925 933 OFFCURVE",
"828 958 OFFCURVE",
"739 958 CURVE SMOOTH",
"691 958 OFFCURVE",
"640 951 OFFCURVE",
"593 934 CURVE SMOOTH",
"545 917 OFFCURVE",
"501 890 OFFCURVE",
"468 850 CURVE",
"433 811 OFFCURVE",
"410 762 OFFCURVE",
"394 710 CURVE SMOOTH",
"377 658 OFFCURVE",
"367 604 OFFCURVE",
"362 555 CURVE",
"362 520 OFFCURVE",
"367 486 OFFCURVE",
"377 455 CURVE SMOOTH",
"387 424 OFFCURVE",
"403 396 OFFCURVE",
"428 376 CURVE",
"427 376 LINE",
"491 333 OFFCURVE",
"574 324 OFFCURVE",
"657 317 CURVE",
"656 317 LINE",
"802 314 LINE",
"814 314 LINE SMOOTH",
"853 314 OFFCURVE",
"906 328 OFFCURVE",
"962 355 CURVE",
"961 328 OFFCURVE",
"959 296 OFFCURVE",
"958 262 CURVE SMOOTH",
"957 228 OFFCURVE",
"956 193 OFFCURVE",
"956 168 CURVE SMOOTH",
"956 133 OFFCURVE",
"957 89 OFFCURVE",
"958 54 CURVE",
"854 15 OFFCURVE",
"753 1 OFFCURVE",
"657 1 CURVE SMOOTH",
"584 1 OFFCURVE",
"506 8 OFFCURVE",
"434 30 CURVE SMOOTH",
"362 52 OFFCURVE",
"297 89 OFFCURVE",
"249 149 CURVE",
"250 148 LINE",
"213 192 OFFCURVE",
"190 243 OFFCURVE",
"175 298 CURVE SMOOTH",
"160 353 OFFCURVE",
"155 410 OFFCURVE",
"155 469 CURVE SMOOTH",
"155 546 OFFCURVE",
"164 640 OFFCURVE",
"189 729 CURVE SMOOTH",
"213 818 OFFCURVE",
"255 904 OFFCURVE",
"322 969 CURVE SMOOTH",
"382 1025 OFFCURVE",
"457 1061 OFFCURVE",
"534 1084 CURVE SMOOTH",
"610 1107 OFFCURVE",
"690 1116 OFFCURVE",
"765 1116 CURVE SMOOTH",
"860 1116 OFFCURVE",
"951 1100 OFFCURVE",
"1037 1068 CURVE"
);
}
);
width = 1214;
}
);
unicode = 0063;
},
{
glyphname = d;
lastChange = "2013-05-02 13:19:15 -0500";
layers = (
{
anchors = (
{
name = bottom;
position = "{541, -57}";
},
{
name = center;
position = "{717, 554}";
},
{
name = top;
position = "{612, 1171}";
}
);
layerId = "013FA67F-D7C9-4F04-AAC6-32032829ED9A";
name = "Bold Italic";
paths = (
{
closed = 1;
nodes = (
"647 1120 LINE SMOOTH",
"767 1120 OFFCURVE",
"878 1066 OFFCURVE",
"937 965 CURVE",
"960 1146 OFFCURVE",
"992 1336 OFFCURVE",
"1024 1513 CURVE",
"1075 1517 OFFCURVE",
"1136 1523 OFFCURVE",
"1187 1530 CURVE",
"1189 1530 OFFCURVE",
"1194 1531 OFFCURVE",
"1201 1533 CURVE",
"1208 1534 OFFCURVE",
"1217 1536 OFFCURVE",
"1226 1539 CURVE",
"1131 1024 OFFCURVE",
"1076 517 OFFCURVE",
"1068 9 CURVE",
"1031 14 OFFCURVE",
"975 20 OFFCURVE",
"936 23 CURVE SMOOTH",
"873 28 LINE",
"873 35 OFFCURVE",
"873 46 OFFCURVE",
"874 60 CURVE",
"874 74 OFFCURVE",
"874 85 OFFCURVE",
"874 93 CURVE SMOOTH",
"874 104 OFFCURVE",
"874 112 OFFCURVE",
"874 117 CURVE SMOOTH",
"874 122 OFFCURVE",
"874 126 OFFCURVE",
"874 129 CURVE SMOOTH",
"874 132 OFFCURVE",
"874 135 OFFCURVE",
"875 140 CURVE",
"875 145 OFFCURVE",
"875 153 OFFCURVE",
"876 164 CURVE",
"836 116 OFFCURVE",
"785 77 OFFCURVE",
"729 51 CURVE SMOOTH",
"673 25 OFFCURVE",
"612 10 OFFCURVE",
"551 10 CURVE SMOOTH",
"536 10 LINE SMOOTH",
"535 10 OFFCURVE",
"533 10 OFFCURVE",
"532 10 CURVE",
"530 9 OFFCURVE",
"528 9 OFFCURVE",
"527 9 CURVE SMOOTH",
"517 9 LINE SMOOTH",
"400 9 OFFCURVE",
"291 58 OFFCURVE",
"228 153 CURVE SMOOTH",
"171 241 OFFCURVE",
"152 342 OFFCURVE",
"152 447 CURVE SMOOTH",
"152 528 OFFCURVE",
"161 623 OFFCURVE",
"185 716 CURVE SMOOTH",
"209 808 OFFCURVE",
"249 897 OFFCURVE",
"312 972 CURVE",
"311 971 LINE",
"348 1019 OFFCURVE",
"398 1056 OFFCURVE",
"451 1081 CURVE SMOOTH",
"504 1106 OFFCURVE",
"563 1120 OFFCURVE",
"619 1120 CURVE SMOOTH"
);
},
{
closed = 1;
nodes = (
"298 545 OFFCURVE",
"303 510 OFFCURVE",
"312 478 CURVE SMOOTH",
"320 446 OFFCURVE",
"335 417 OFFCURVE",
"358 393 CURVE",
"357 393 LINE",
"381 370 OFFCURVE",
"410 357 OFFCURVE",
"442 350 CURVE SMOOTH",
"474 343 OFFCURVE",
"509 341 OFFCURVE",
"542 341 CURVE",
"610 344 OFFCURVE",
"683 348 OFFCURVE",
"743 387 CURVE",
"742 386 LINE",
"782 415 OFFCURVE",
"803 464 OFFCURVE",
"815 515 CURVE SMOOTH",
"827 566 OFFCURVE",
"828 618 OFFCURVE",
"828 654 CURVE SMOOTH",
"828 706 OFFCURVE",
"823 758 OFFCURVE",
"812 809 CURVE SMOOTH",
"801 860 OFFCURVE",
"776 902 OFFCURVE",
"743 931 CURVE SMOOTH",
"710 960 OFFCURVE",
"668 976 OFFCURVE",
"621 976 CURVE SMOOTH",
"597 976 LINE SMOOTH",
"530 976 OFFCURVE",
"478 951 OFFCURVE",
"436 911 CURVE SMOOTH",
"394 871 OFFCURVE",
"363 817 OFFCURVE",
"340 758 CURVE SMOOTH",
"317 698 OFFCURVE",
"304 635 OFFCURVE",
"297 578 CURVE"
);
}
);
width = 1334;
}
);
unicode = 0064;
},
{
glyphname = e;
lastChange = "2012-12-04 09:49:54 -0500";
layers = (
{
anchors = (
{
name = bottom;
position = "{689, 0}";
},
{
name = ogonek;
position = "{821, 5}";
},
{
name = top;
position = "{689, 1108}";
}
);
layerId = "013FA67F-D7C9-4F04-AAC6-32032829ED9A";
name = "Bold Italic";
paths = (
{
closed = 1;
nodes = (
"1116 669 LINE",
"1115 662 OFFCURVE",
"1115 656 OFFCURVE",
"1115 651 CURVE",
"1114 645 OFFCURVE",
"1114 639 OFFCURVE",
"1113 634 CURVE",
"1113 635 LINE",
"1108 595 LINE",
"947 592 OFFCURVE",
"772 592 OFFCURVE",
"611 592 CURVE SMOOTH",
"588 592 OFFCURVE",
"565 592 OFFCURVE",
"542 593 CURVE",
"519 593 OFFCURVE",
"495 593 OFFCURVE",
"472 593 CURVE SMOOTH",
"352 593 LINE",
"352 588 LINE",
"351 569 OFFCURVE",
"350 554 OFFCURVE",
"350 537 CURVE SMOOTH",
"350 498 OFFCURVE",
"354 460 OFFCURVE",
"364 426 CURVE SMOOTH",
"374 392 OFFCURVE",
"391 361 OFFCURVE",
"420 340 CURVE",
"420 341 LINE",
"501 290 OFFCURVE",
"608 276 OFFCURVE",
"704 276 CURVE SMOOTH",
"722 276 LINE SMOOTH",
"774 276 OFFCURVE",
"827 276 OFFCURVE",
"883 284 CURVE SMOOTH",
"938 291 OFFCURVE",
"995 306 OFFCURVE",
"1056 335 CURVE",
"1056 326 OFFCURVE",
"1056 315 OFFCURVE",
"1056 303 CURVE",
"1055 278 OFFCURVE",
"1054 251 OFFCURVE",
"1054 227 CURVE SMOOTH",
"1054 214 OFFCURVE",
"1054 203 OFFCURVE",
"1054 194 CURVE SMOOTH",
"1054 157 OFFCURVE",
"1054 107 OFFCURVE",
"1057 70 CURVE",
"918 23 OFFCURVE",
"781 3 OFFCURVE",
"648 3 CURVE",
"580 8 OFFCURVE",
"505 20 OFFCURVE",
"437 44 CURVE SMOOTH",
"368 67 OFFCURVE",
"302 102 OFFCURVE",
"253 150 CURVE",
"216 193 OFFCURVE",
"191 245 OFFCURVE",
"175 301 CURVE SMOOTH",
"159 356 OFFCURVE",
"152 415 OFFCURVE",
"152 472 CURVE SMOOTH",
"152 549 OFFCURVE",
"163 640 OFFCURVE",
"190 728 CURVE SMOOTH",
"217 816 OFFCURVE",
"259 901 OFFCURVE",
"319 966 CURVE SMOOTH",
"371 1019 OFFCURVE",
"435 1056 OFFCURVE",
"504 1080 CURVE SMOOTH",
"572 1103 OFFCURVE",
"645 1113 OFFCURVE",
"713 1114 CURVE",
"769 1111 OFFCURVE",
"828 1104 OFFCURVE",
"883 1088 CURVE SMOOTH",
"938 1072 OFFCURVE",
"990 1047 OFFCURVE",
"1031 1006 CURVE",
"1067 966 OFFCURVE",
"1088 920 OFFCURVE",
"1101 870 CURVE SMOOTH",
"1113 820 OFFCURVE",
"1116 766 OFFCURVE",
"1116 714 CURVE SMOOTH",
"1116 711 OFFCURVE",
"1116 707 OFFCURVE",
"1116 704 CURVE",
"1115 700 OFFCURVE",
"1115 696 OFFCURVE",
"1115 692 CURVE SMOOTH",
"1115 670 LINE",
"1083 683 LINE"
);
},
{
closed = 1;
nodes = (
"960 743 LINE",
"960 750 OFFCURVE",
"959 756 OFFCURVE",
"958 763 CURVE",
"979 763 LINE"
);
},
{
closed = 1;
nodes = (
"703 760 OFFCURVE",
"831 761 OFFCURVE",
"958 763 CURVE",
"951 830 OFFCURVE",
"925 890 OFFCURVE",
"881 934 CURVE SMOOTH",
"837 977 OFFCURVE",
"778 1003 OFFCURVE",
"706 1003 CURVE SMOOTH",
"623 1003 OFFCURVE",
"537 981 OFFCURVE",
"474 921 CURVE",
"425 878 OFFCURVE",
"392 821 OFFCURVE",
"383 761 CURVE",
"416 760 OFFCURVE",
"448 759 OFFCURVE",
"479 760 CURVE SMOOTH",
"509 760 OFFCURVE",
"541 760 OFFCURVE",
"575 760 CURVE SMOOTH"
);
}
);
width = 1310;
}
);
unicode = 0065;
},
{
glyphname = f;
lastChange = "2012-10-19 02:34:44 -0500";
layers = (
{
layerId = "013FA67F-D7C9-4F04-AAC6-32032829ED9A";
name = "Bold Italic";
paths = (
{
closed = 1;
nodes = (
"934 1469 LINE",
"927 1426 OFFCURVE",
"919 1367 OFFCURVE",
"914 1323 CURVE",
"895 1322 OFFCURVE",
"860 1321 OFFCURVE",
"841 1321 CURVE SMOOTH",
"810 1321 OFFCURVE",
"782 1322 OFFCURVE",
"751 1323 CURVE",
"719 1320 OFFCURVE",
"687 1315 OFFCURVE",
"662 1294 CURVE",
"638 1262 OFFCURVE",
"631 1214 OFFCURVE",
"626 1173 CURVE",
"626 1175 LINE",
"626 1158 OFFCURVE",
"626 1145 OFFCURVE",
"626 1135 CURVE",
"625 1124 OFFCURVE",
"625 1111 OFFCURVE",
"626 1095 CURVE",
"711 1096 OFFCURVE",
"802 1101 OFFCURVE",
"898 1110 CURVE",
"897 1097 OFFCURVE",
"895 1082 OFFCURVE",
"893 1065 CURVE SMOOTH",
"889 1031 OFFCURVE",
"885 994 OFFCURVE",
"882 959 CURVE SMOOTH",
"880 942 OFFCURVE",
"878 927 OFFCURVE",
"877 914 CURVE",
"788 909 OFFCURVE",
"700 906 OFFCURVE",
"613 905 CURVE",
"594 620 OFFCURVE",
"578 321 OFFCURVE",
"567 36 CURVE",
"547 37 OFFCURVE",
"508 38 OFFCURVE",
"488 38 CURVE SMOOTH",
"434 38 OFFCURVE",
"367 34 OFFCURVE",
"287 26 CURVE",
"334 321 OFFCURVE",
"369 612 OFFCURVE",
"404 907 CURVE",
"381 908 OFFCURVE",
"356 909 OFFCURVE",
"329 911 CURVE",
"302 912 OFFCURVE",
"277 914 OFFCURVE",
"255 915 CURVE",
"260 986 LINE",
"261 995 OFFCURVE",
"262 1005 OFFCURVE",
"263 1016 CURVE SMOOTH",
"264 1027 OFFCURVE",
"264 1038 OFFCURVE",
"265 1049 CURVE",
"266 1072 OFFCURVE",
"268 1095 OFFCURVE",
"269 1112 CURVE",
"329 1104 OFFCURVE",
"381 1100 OFFCURVE",
"421 1097 CURVE",
"425 1116 OFFCURVE",
"427 1136 OFFCURVE",
"430 1160 CURVE",
"437 1201 OFFCURVE",
"447 1249 OFFCURVE",
"464 1293 CURVE SMOOTH",
"481 1337 OFFCURVE",
"506 1378 OFFCURVE",
"542 1409 CURVE",
"609 1457 OFFCURVE",
"688 1483 OFFCURVE",
"765 1488 CURVE",
"775 1487 OFFCURVE",
"785 1487 OFFCURVE",
"796 1487 CURVE SMOOTH",
"807 1487 OFFCURVE",
"817 1487 OFFCURVE",
"827 1487 CURVE SMOOTH",
"855 1487 OFFCURVE",
"884 1488 OFFCURVE",
"913 1491 CURVE"
);
}
);
width = 950;
}
);
unicode = 0066;
},
{
glyphname = g;
lastChange = "2013-04-22 07:18:31 -0500";
layers = (
{
anchors = (
{
name = bottom;
position = "{534, -474}";
},
{
name = top;
position = "{707, 1108}";
}
);
layerId = "013FA67F-D7C9-4F04-AAC6-32032829ED9A";
name = "Bold Italic";
paths = (
{
closed = 1;
nodes = (
"834 576 LINE",
"837 601 OFFCURVE",
"838 625 OFFCURVE",
"838 650 CURVE SMOOTH",
"838 754 OFFCURVE",
"811 830 OFFCURVE",
"767 879 CURVE SMOOTH",
"722 928 OFFCURVE",
"658 952 OFFCURVE",
"582 952 CURVE SMOOTH",
"506 952 OFFCURVE",
"423 921 OFFCURVE",
"374 861 CURVE SMOOTH",
"343 821 OFFCURVE",
"323 773 OFFCURVE",
"309 724 CURVE SMOOTH",
"295 675 OFFCURVE",
"287 623 OFFCURVE",
"283 575 CURVE",
"283 570 OFFCURVE",
"283 565 OFFCURVE",
"284 560 CURVE SMOOTH",
"285 555 OFFCURVE",
"285 550 OFFCURVE",
"285 545 CURVE SMOOTH",
"286 510 OFFCURVE",
"289 474 OFFCURVE",
"296 442 CURVE SMOOTH",
"303 409 OFFCURVE",
"315 379 OFFCURVE",
"336 355 CURVE",
"361 338 OFFCURVE",
"392 328 OFFCURVE",
"424 324 CURVE SMOOTH",
"456 319 OFFCURVE",
"490 318 OFFCURVE",
"522 318 CURVE SMOOTH",
"593 318 OFFCURVE",
"669 329 OFFCURVE",
"736 356 CURVE",
"771 379 OFFCURVE",
"793 415 OFFCURVE",
"808 455 CURVE SMOOTH",
"823 495 OFFCURVE",
"830 538 OFFCURVE",
"834 577 CURVE"
);
},
{
closed = 1;
nodes = (
"1043 117 LINE SMOOTH",
"1034 42 OFFCURVE",
"1024 -34 OFFCURVE",
"1003 -108 CURVE SMOOTH",
"982 -182 OFFCURVE",
"949 -255 OFFCURVE",
"893 -316 CURVE",
"836 -372 OFFCURVE",
"768 -403 OFFCURVE",
"696 -419 CURVE SMOOTH",
"624 -436 OFFCURVE",
"549 -439 OFFCURVE",
"480 -439 CURVE SMOOTH",
"379 -439 OFFCURVE",
"274 -430 OFFCURVE",
"163 -399 CURVE",
"171 -351 OFFCURVE",
"179 -291 OFFCURVE",
"187 -231 CURVE SMOOTH",
"191 -201 OFFCURVE",
"195 -172 OFFCURVE",
"198 -143 CURVE SMOOTH",
"201 -114 OFFCURVE",
"205 -88 OFFCURVE",
"208 -64 CURVE",
"308 -120 OFFCURVE",
"408 -140 OFFCURVE",
"504 -140 CURVE SMOOTH",
"547 -139 OFFCURVE",
"593 -134 OFFCURVE",
"637 -120 CURVE SMOOTH",
"680 -106 OFFCURVE",
"720 -85 OFFCURVE",
"751 -50 CURVE",
"802 2 OFFCURVE",
"839 60 OFFCURVE",
"858 125 CURVE",
"858 134 OFFCURVE",
"859 146 OFFCURVE",
"860 157 CURVE",
"773 65 OFFCURVE",
"660 21 OFFCURVE",
"531 21 CURVE SMOOTH",
"475 21 OFFCURVE",
"419 35 OFFCURVE",
"369 60 CURVE SMOOTH",
"319 85 OFFCURVE",
"274 123 OFFCURVE",
"245 168 CURVE SMOOTH",
"182 263 OFFCURVE",
"162 384 OFFCURVE",
"162 499 CURVE SMOOTH",
"162 572 OFFCURVE",
"169 658 OFFCURVE",
"190 741 CURVE SMOOTH",
"210 824 OFFCURVE",
"245 904 OFFCURVE",
"301 968 CURVE SMOOTH",
"341 1013 OFFCURVE",
"392 1048 OFFCURVE",
"447 1071 CURVE SMOOTH",
"502 1094 OFFCURVE",
"562 1105 OFFCURVE",
"618 1105 CURVE SMOOTH",
"648 1105 LINE SMOOTH",
"709 1105 OFFCURVE",
"770 1089 OFFCURVE",
"823 1061 CURVE SMOOTH",
"875 1033 OFFCURVE",
"922 993 OFFCURVE",
"954 945 CURVE",
"955 952 OFFCURVE",
"957 959 OFFCURVE",
"960 966 CURVE",
"962 973 OFFCURVE",
"964 980 OFFCURVE",
"965 986 CURVE",
"992 1093 LINE",
"1057 1098 LINE",
"1056 1098 LINE",
"1191 1115 LINE",
"1124 780 OFFCURVE",
"1080 461 OFFCURVE",
"1048 153 CURVE SMOOTH"
);
}
);
width = 1296;
}
);
unicode = 0067;
},
{
glyphname = h;
lastChange = "2013-05-02 20:05:24 -0500";
layers = (
{
anchors = (
{
name = bottom;
position = "{674, -8}";
},
{
name = center;
position = "{603, 554}";
},
{
name = top;
position = "{603, 1108}";
}
);
layerId = "013FA67F-D7C9-4F04-AAC6-32032829ED9A";
name = "Bold Italic";
paths = (
{
closed = 1;
nodes = (
"1152 532 OFFCURVE",
"1148 394 OFFCURVE",
"1148 258 CURVE SMOOTH",
"1148 239 OFFCURVE",
"1148 218 OFFCURVE",
"1149 197 CURVE",
"1149 176 OFFCURVE",
"1149 154 OFFCURVE",
"1150 132 CURVE",
"1150 88 OFFCURVE",
"1152 44 OFFCURVE",
"1153 7 CURVE",
"1121 11 OFFCURVE",
"1078 16 OFFCURVE",
"1035 20 CURVE SMOOTH",
"1014 22 OFFCURVE",
"993 24 OFFCURVE",
"973 26 CURVE SMOOTH",
"952 28 OFFCURVE",
"934 30 OFFCURVE",
"917 31 CURVE",
"930 238 OFFCURVE",
"951 462 OFFCURVE",
"972 670 CURVE",
"975 689 OFFCURVE",
"975 711 OFFCURVE",
"975 731 CURVE SMOOTH",
"975 784 OFFCURVE",
"968 837 OFFCURVE",
"948 881 CURVE",
"911 941 OFFCURVE",
"847 970 OFFCURVE",
"783 970 CURVE SMOOTH",
"707 970 OFFCURVE",
"625 937 OFFCURVE",
"572 877 CURVE SMOOTH",
"513 809 OFFCURVE",
"481 718 OFFCURVE",
"474 630 CURVE SMOOTH",
"472 601 OFFCURVE",
"470 573 OFFCURVE",
"468 545 CURVE SMOOTH",
"466 517 OFFCURVE",
"464 489 OFFCURVE",
"462 460 CURVE SMOOTH",
"451 321 OFFCURVE",
"440 169 OFFCURVE",
"424 30 CURVE",
"408 29 OFFCURVE",
"390 27 OFFCURVE",
"369 25 CURVE SMOOTH",
"348 23 OFFCURVE",
"326 21 OFFCURVE",
"305 19 CURVE SMOOTH",
"261 15 OFFCURVE",
"217 10 OFFCURVE",
"184 6 CURVE",
"283 517 OFFCURVE",
"338 1020 OFFCURVE",
"357 1528 CURVE",
"370 1526 OFFCURVE",
"386 1524 OFFCURVE",
"403 1523 CURVE",
"420 1521 OFFCURVE",
"438 1519 OFFCURVE",
"456 1517 CURVE SMOOTH",
"492 1513 OFFCURVE",
"528 1509 OFFCURVE",
"555 1508 CURVE",
"547 1409 OFFCURVE",
"540 1322 OFFCURVE",
"533 1235 CURVE SMOOTH",
"525 1148 OFFCURVE",
"516 1061 OFFCURVE",
"504 961 CURVE",
"588 1057 OFFCURVE",
"699 1120 OFFCURVE",
"824 1120 CURVE SMOOTH",
"850 1120 LINE SMOOTH",
"902 1120 OFFCURVE",
"955 1111 OFFCURVE",
"1003 1089 CURVE SMOOTH",
"1050 1067 OFFCURVE",
"1089 1033 OFFCURVE",
"1113 985 CURVE SMOOTH",
"1153 906 OFFCURVE",
"1163 826 OFFCURVE",
"1163 750 CURVE SMOOTH",
"1163 723 OFFCURVE",
"1162 697 OFFCURVE",
"1160 671 CURVE SMOOTH"
);
}
);
width = 1419;
}
);
unicode = 0068;
},
{
glyphname = i;
lastChange = "2013-04-22 07:18:55 -0500";
layers = (
{
anchors = (
{
name = bottom;
position = "{326, -27}";
}
);
layerId = "013FA67F-D7C9-4F04-AAC6-32032829ED9A";
name = "Bold Italic";
paths = (
{
closed = 1;
nodes = (
"345 1103 LINE",
"364 1097 OFFCURVE",
"382 1094 OFFCURVE",
"400 1094 CURVE SMOOTH",
"423 1094 OFFCURVE",
"454 1101 OFFCURVE",
"491 1112 CURVE",
"476 936 OFFCURVE",
"461 743 OFFCURVE",
"447 551 CURVE SMOOTH",
"433 358 OFFCURVE",
"419 164 OFFCURVE",
"407 -12 CURVE",
"371 20 OFFCURVE",
"340 38 OFFCURVE",
"316 38 CURVE SMOOTH",
"290 38 OFFCURVE",
"254 21 OFFCURVE",
"208 -14 CURVE",
"228 162 OFFCURVE",
"247 350 OFFCURVE",
"266 537 CURVE SMOOTH",
"285 724 OFFCURVE",
"303 911 OFFCURVE",
"319 1087 CURVE"
);
},
{
closed = 1;
nodes = (
"384 1518 LINE",
"399 1507 OFFCURVE",
"416 1501 OFFCURVE",
"437 1501 CURVE SMOOTH",
"460 1501 OFFCURVE",
"492 1515 OFFCURVE",
"533 1543 CURVE",
"532 1530 OFFCURVE",
"530 1507 OFFCURVE",
"529 1484 CURVE",
"528 1472 OFFCURVE",
"528 1461 OFFCURVE",
"527 1450 CURVE SMOOTH",
"526 1439 OFFCURVE",
"526 1431 OFFCURVE",
"526 1424 CURVE",
"525 1403 OFFCURVE",
"523 1381 OFFCURVE",
"522 1357 CURVE SMOOTH",
"521 1333 OFFCURVE",
"519 1311 OFFCURVE",
"518 1290 CURVE",
"485 1273 OFFCURVE",
"451 1262 OFFCURVE",
"419 1262 CURVE SMOOTH",
"388 1262 OFFCURVE",
"358 1272 OFFCURVE",
"327 1295 CURVE",
"340 1405 LINE",
"352 1506 LINE"
);
}
);
width = 677;
}
);
unicode = 0069;
},
{
glyphname = j;
lastChange = "2012-10-19 02:34:44 -0500";
layers = (
{
layerId = "013FA67F-D7C9-4F04-AAC6-32032829ED9A";
name = "Bold Italic";
paths = (
{
closed = 1;
nodes = (
"418 1081 LINE",
"465 1082 OFFCURVE",
"524 1088 OFFCURVE",
"584 1096 CURVE",
"536 737 OFFCURVE",
"489 363 OFFCURVE",
"450 4 CURVE SMOOTH",
"445 -44 OFFCURVE",
"439 -95 OFFCURVE",
"424 -144 CURVE SMOOTH",
"408 -193 OFFCURVE",
"385 -239 OFFCURVE",
"345 -278 CURVE",
"310 -309 OFFCURVE",
"271 -329 OFFCURVE",
"231 -344 CURVE SMOOTH",
"190 -359 OFFCURVE",
"147 -367 OFFCURVE",
"107 -375 CURVE SMOOTH",
"98 -377 OFFCURVE",
"88 -379 OFFCURVE",
"79 -380 CURVE",
"60 -384 OFFCURVE",
"39 -388 OFFCURVE",
"12 -396 CURVE SMOOTH",
"-1 -400 OFFCURVE",
"-17 -405 OFFCURVE",
"-34 -411 CURVE",
"-18 -296 LINE SMOOTH",
"-10 -241 OFFCURVE",
"0 -172 OFFCURVE",
"7 -117 CURVE",
"66 -105 LINE",
"121 -96 OFFCURVE",
"180 -84 OFFCURVE",
"219 -48 CURVE",
"236 -27 OFFCURVE",
"247 2 OFFCURVE",
"255 31 CURVE SMOOTH",
"263 60 OFFCURVE",
"267 91 OFFCURVE",
"271 119 CURVE",
"271 121 OFFCURVE",
"271 123 OFFCURVE",
"272 126 CURVE",
"273 128 OFFCURVE",
"273 130 OFFCURVE",
"273 131 CURVE",
"282 194 OFFCURVE",
"290 257 OFFCURVE",
"299 320 CURVE SMOOTH",
"307 383 OFFCURVE",
"315 446 OFFCURVE",
"324 510 CURVE SMOOTH",
"337 603 OFFCURVE",
"349 696 OFFCURVE",
"361 788 CURVE SMOOTH",
"373 879 OFFCURVE",
"386 972 OFFCURVE",
"399 1065 CURVE"
);
},
{
closed = 1;
nodes = (
"498 1498 LINE",
"545 1505 OFFCURVE",
"599 1515 OFFCURVE",
"663 1536 CURVE",
"662 1525 OFFCURVE",
"661 1512 OFFCURVE",
"660 1498 CURVE SMOOTH",
"659 1483 OFFCURVE",
"657 1469 OFFCURVE",
"656 1454 CURVE SMOOTH",
"653 1424 OFFCURVE",
"651 1394 OFFCURVE",
"650 1371 CURVE",
"649 1360 OFFCURVE",
"648 1346 OFFCURVE",
"647 1330 CURVE SMOOTH",
"646 1314 OFFCURVE",
"645 1300 OFFCURVE",
"644 1289 CURVE",
"580 1272 OFFCURVE",
"514 1263 OFFCURVE",
"446 1256 CURVE",
"453 1303 LINE SMOOTH",
"458 1333 OFFCURVE",
"463 1363 OFFCURVE",
"467 1393 CURVE SMOOTH",
"471 1422 OFFCURVE",
"475 1452 OFFCURVE",
"480 1482 CURVE"
);
}
);
width = 724;
}
);
unicode = 006A;
},
{
glyphname = k;
lastChange = "2012-10-19 02:34:44 -0500";
layers = (
{
anchors = (
{
name = bottom;
position = "{588, 0}";
}
);
layerId = "013FA67F-D7C9-4F04-AAC6-32032829ED9A";
name = "Bold Italic";
paths = (
{
closed = 1;
nodes = (
"375 1525 LINE",
"428 1518 OFFCURVE",
"498 1512 OFFCURVE",
"551 1509 CURVE",
"544 1369 OFFCURVE",
"537 1238 OFFCURVE",
"527 1107 CURVE SMOOTH",
"517 975 OFFCURVE",
"505 845 OFFCURVE",
"490 705 CURVE",
"550 770 OFFCURVE",
"610 835 OFFCURVE",
"671 901 CURVE SMOOTH",
"732 966 OFFCURVE",
"792 1031 OFFCURVE",
"853 1095 CURVE",
"885 1095 OFFCURVE",
"930 1096 OFFCURVE",
"975 1097 CURVE SMOOTH",
"998 1098 OFFCURVE",
"1020 1098 OFFCURVE",
"1041 1099 CURVE",
"1062 1099 OFFCURVE",
"1081 1099 OFFCURVE",
"1097 1100 CURVE",
"1050 1047 OFFCURVE",
"996 985 OFFCURVE",
"941 924 CURVE SMOOTH",
"914 893 OFFCURVE",
"887 863 OFFCURVE",
"861 833 CURVE SMOOTH",
"834 802 OFFCURVE",
"809 774 OFFCURVE",
"786 747 CURVE SMOOTH",
"656 600 LINE",
"692 563 LINE SMOOTH",
"773 476 OFFCURVE",
"864 380 OFFCURVE",
"954 284 CURVE SMOOTH",
"1044 187 OFFCURVE",
"1131 90 OFFCURVE",
"1210 3 CURVE",
"1066 22 OFFCURVE",
"936 33 OFFCURVE",
"816 36 CURVE",
"785 78 OFFCURVE",
"755 118 OFFCURVE",
"726 156 CURVE SMOOTH",
"669 232 OFFCURVE",
"614 306 OFFCURVE",
"559 383 CURVE SMOOTH",
"531 422 OFFCURVE",
"502 463 OFFCURVE",
"472 506 CURVE",
"469 449 OFFCURVE",
"466 391 OFFCURVE",
"462 334 CURVE SMOOTH",
"458 276 OFFCURVE",
"454 218 OFFCURVE",
"450 160 CURVE SMOOTH",
"449 142 OFFCURVE",
"447 121 OFFCURVE",
"446 96 CURVE",
"444 71 OFFCURVE",
"442 49 OFFCURVE",
"441 31 CURVE",
"423 30 OFFCURVE",
"403 28 OFFCURVE",
"381 26 CURVE SMOOTH",
"358 24 OFFCURVE",
"335 22 OFFCURVE",
"312 20 CURVE SMOOTH",
"264 16 OFFCURVE",
"217 11 OFFCURVE",
"181 7 CURVE",
"280 514 OFFCURVE",
"337 1015 OFFCURVE",
"353 1507 CURVE"
);
}
);
width = 1477;
}
);
unicode = 006B;
},
{
glyphname = l;
lastChange = "2013-04-22 07:20:06 -0500";
layers = (
{
anchors = (
{
name = bottom;
position = "{300, 0}";
},
{
name = dot;
position = "{498, 858}";
},
{
name = top;
position = "{446, 1455}";
},
{
name = topright;
position = "{626, 1455}";
}
);
layerId = "013FA67F-D7C9-4F04-AAC6-32032829ED9A";
name = "Bold Italic";
paths = (
{
closed = 1;
nodes = (
"379 1520 LINE",
"412 1505 OFFCURVE",
"448 1501 OFFCURVE",
"487 1501 CURVE SMOOTH",
"492 1501 OFFCURVE",
"499 1501 OFFCURVE",
"506 1502 CURVE",
"513 1502 OFFCURVE",
"524 1503 OFFCURVE",
"540 1504 CURVE",
"501 1091 OFFCURVE",
"466 683 OFFCURVE",
"431 268 CURVE",
"467 265 OFFCURVE",
"506 256 OFFCURVE",
"545 243 CURVE",
"542 210 OFFCURVE",
"539 166 OFFCURVE",
"536 122 CURVE SMOOTH",
"535 100 OFFCURVE",
"533 78 OFFCURVE",
"532 57 CURVE SMOOTH",
"531 36 OFFCURVE",
"530 17 OFFCURVE",
"529 0 CURVE",
"472 25 OFFCURVE",
"419 38 OFFCURVE",
"372 38 CURVE SMOOTH",
"325 38 OFFCURVE",
"268 24 OFFCURVE",
"200 -1 CURVE",
"263 494 OFFCURVE",
"313 1010 OFFCURVE",
"352 1505 CURVE"
);
}
);
width = 797;
}
);
unicode = 006C;
},
{
glyphname = m;
lastChange = "2012-10-19 02:34:44 -0500";
layers = (
{
layerId = "013FA67F-D7C9-4F04-AAC6-32032829ED9A";
name = "Bold Italic";
paths = (
{
closed = 1;
nodes = (
"436 940 LINE",
"437 939 LINE",
"437 940 LINE"
);
},
{
closed = 1;
nodes = (
"831 1118 OFFCURVE",
"908 1103 OFFCURVE",
"971 1068 CURVE SMOOTH",
"1034 1033 OFFCURVE",
"1083 980 OFFCURVE",
"1106 905 CURVE",
"1146 965 OFFCURVE",
"1198 1020 OFFCURVE",
"1261 1060 CURVE SMOOTH",
"1333 1107 OFFCURVE",
"1426 1123 OFFCURVE",
"1506 1123 CURVE SMOOTH",
"1558 1123 OFFCURVE",
"1610 1110 OFFCURVE",
"1653 1083 CURVE SMOOTH",
"1696 1056 OFFCURVE",
"1730 1016 OFFCURVE",
"1745 964 CURVE",
"1745 965 LINE",
"1761 909 OFFCURVE",
"1766 854 OFFCURVE",
"1766 801 CURVE SMOOTH",
"1766 756 OFFCURVE",
"1762 713 OFFCURVE",
"1758 670 CURVE SMOOTH",
"1748 571 OFFCURVE",
"1743 473 OFFCURVE",
"1743 376 CURVE SMOOTH",
"1743 260 OFFCURVE",
"1751 140 OFFCURVE",
"1774 9 CURVE",
"1755 10 OFFCURVE",
"1735 11 OFFCURVE",
"1712 12 CURVE SMOOTH",
"1689 13 OFFCURVE",
"1665 15 OFFCURVE",
"1641 16 CURVE SMOOTH",
"1617 17 OFFCURVE",
"1594 18 OFFCURVE",
"1571 19 CURVE SMOOTH",
"1548 20 OFFCURVE",
"1527 20 OFFCURVE",
"1508 21 CURVE",
"1508 69 LINE SMOOTH",
"1508 277 OFFCURVE",
"1537 488 OFFCURVE",
"1572 695 CURVE",
"1575 726 LINE",
"1576 743 OFFCURVE",
"1578 759 OFFCURVE",
"1579 776 CURVE SMOOTH",
"1580 793 OFFCURVE",
"1581 809 OFFCURVE",
"1581 824 CURVE SMOOTH",
"1581 931 OFFCURVE",
"1543 978 OFFCURVE",
"1459 978 CURVE SMOOTH",
"1372 978 OFFCURVE",
"1285 947 OFFCURVE",
"1228 874 CURVE",
"1168 803 OFFCURVE",
"1142 714 OFFCURVE",
"1135 625 CURVE",
"1112 430 OFFCURVE",
"1094 225 OFFCURVE",
"1081 30 CURVE",
"812 30 LINE",
"857 247 OFFCURVE",
"903 485 OFFCURVE",
"942 702 CURVE",
"942 700 LINE",
"944 720 OFFCURVE",
"945 740 OFFCURVE",
"945 761 CURVE SMOOTH",
"945 813 OFFCURVE",
"938 864 OFFCURVE",
"914 908 CURVE",
"915 906 LINE",
"895 938 OFFCURVE",
"868 958 OFFCURVE",
"838 970 CURVE SMOOTH",
"808 981 OFFCURVE",
"775 985 OFFCURVE",
"743 985 CURVE SMOOTH",
"654 985 OFFCURVE",
"585 936 OFFCURVE",
"537 868 CURVE SMOOTH",
"489 799 OFFCURVE",
"462 709 OFFCURVE",
"458 628 CURVE SMOOTH",
"447 428 OFFCURVE",
"429 227 OFFCURVE",
"385 19 CURVE",
"367 18 OFFCURVE",
"347 18 OFFCURVE",
"325 17 CURVE SMOOTH",
"280 16 OFFCURVE",
"232 14 OFFCURVE",
"187 11 CURVE SMOOTH",
"164 10 OFFCURVE",
"144 9 OFFCURVE",
"126 8 CURVE",
"225 324 OFFCURVE",
"272 637 OFFCURVE",
"272 942 CURVE SMOOTH",
"272 991 OFFCURVE",
"271 1060 OFFCURVE",
"268 1109 CURVE",
"367 1104 LINE",
"465 1100 LINE",
"462 1061 OFFCURVE",
"458 1012 OFFCURVE",
"454 965 CURVE",
"525 1062 OFFCURVE",
"639 1118 OFFCURVE",
"754 1118 CURVE SMOOTH"
);
}
);
width = 2040;
}
);
unicode = 006D;
},
{
glyphname = n;
lastChange = "2012-10-19 02:34:44 -0500";
layers = (
{
anchors = (
{
name = bottom;
position = "{646, 0}";
},
{
name = top;
position = "{646, 1108}";
}
);
layerId = "013FA67F-D7C9-4F04-AAC6-32032829ED9A";
name = "Bold Italic";
paths = (
{
closed = 1;
nodes = (
"1130 553 OFFCURVE",
"1125 438 OFFCURVE",
"1125 321 CURVE SMOOTH",
"1125 224 OFFCURVE",
"1130 120 OFFCURVE",
"1140 8 CURVE",
"1101 12 OFFCURVE",
"1052 15 OFFCURVE",
"1004 19 CURVE SMOOTH",
"955 22 OFFCURVE",
"905 25 OFFCURVE",
"866 26 CURVE",
"881 237 OFFCURVE",
"910 464 OFFCURVE",
"942 675 CURVE",
"942 678 OFFCURVE",
"942 682 OFFCURVE",
"942 685 CURVE SMOOTH",
"942 688 OFFCURVE",
"942 692 OFFCURVE",
"943 695 CURVE",
"943 694 LINE",
"946 717 OFFCURVE",
"947 739 OFFCURVE",
"947 762 CURVE SMOOTH",
"947 805 OFFCURVE",
"942 845 OFFCURVE",
"925 884 CURVE",
"925 883 LINE",
"910 911 OFFCURVE",
"888 928 OFFCURVE",
"863 940 CURVE SMOOTH",
"838 951 OFFCURVE",
"810 955 OFFCURVE",
"782 955 CURVE SMOOTH",
"741 955 OFFCURVE",
"696 951 OFFCURVE",
"654 939 CURVE SMOOTH",
"612 926 OFFCURVE",
"572 905 OFFCURVE",
"541 872 CURVE SMOOTH",
"481 807 OFFCURVE",
"459 719 OFFCURVE",
"452 635 CURVE",
"452 636 LINE",
"445 437 OFFCURVE",
"430 225 OFFCURVE",
"409 26 CURVE",
"390 25 OFFCURVE",
"369 23 OFFCURVE",
"346 22 CURVE SMOOTH",
"300 19 OFFCURVE",
"251 16 OFFCURVE",
"204 13 CURVE SMOOTH",
"181 11 OFFCURVE",
"160 9 OFFCURVE",
"141 7 CURVE",
"225 378 OFFCURVE",
"265 747 OFFCURVE",
"270 1120 CURVE",
"295 1117 OFFCURVE",
"332 1114 OFFCURVE",
"368 1111 CURVE SMOOTH",
"385 1110 OFFCURVE",
"403 1108 OFFCURVE",
"420 1107 CURVE SMOOTH",
"437 1106 OFFCURVE",
"452 1105 OFFCURVE",
"465 1104 CURVE",
"463 1016 LINE SMOOTH",
"463 1010 OFFCURVE",
"463 1006 OFFCURVE",
"463 1005 CURVE",
"462 1004 OFFCURVE",
"462 1003 OFFCURVE",
"462 1002 CURVE",
"461 1001 OFFCURVE",
"461 999 OFFCURVE",
"461 998 CURVE SMOOTH",
"461 997 OFFCURVE",
"461 993 OFFCURVE",
"461 987 CURVE",
"576 1067 OFFCURVE",
"692 1116 OFFCURVE",
"829 1116 CURVE SMOOTH",
"882 1116 OFFCURVE",
"935 1106 OFFCURVE",
"983 1085 CURVE SMOOTH",
"1030 1064 OFFCURVE",
"1070 1030 OFFCURVE",
"1095 982 CURVE",
"1131 902 OFFCURVE",
"1140 822 OFFCURVE",
"1140 743 CURVE SMOOTH",
"1140 719 OFFCURVE",
"1139 694 OFFCURVE",
"1138 670 CURVE SMOOTH"
);
}
);
width = 1406;
}
);
unicode = 006E;
},
{
glyphname = o;
lastChange = "2013-04-22 07:23:44 -0500";
layers = (
{
anchors = (
{
name = bottom;
position = "{579, -58}";
},
{
name = horncomb;
position = "{1025, 836}";
},
{
name = top;
position = "{683, 1108}";
}
);
layerId = "013FA67F-D7C9-4F04-AAC6-32032829ED9A";
name = "Bold Italic";
paths = (
{
closed = 1;
nodes = (
"592 967 OFFCURVE",
"508 936 OFFCURVE",
"455 868 CURVE SMOOTH",
"415 817 OFFCURVE",
"391 757 OFFCURVE",
"376 696 CURVE SMOOTH",
"360 635 OFFCURVE",
"356 570 OFFCURVE",
"356 513 CURVE SMOOTH",
"356 454 OFFCURVE",
"364 397 OFFCURVE",
"409 362 CURVE",
"408 363 LINE",
"468 324 OFFCURVE",
"541 318 OFFCURVE",
"613 318 CURVE SMOOTH",
"685 318 OFFCURVE",
"761 327 OFFCURVE",
"825 364 CURVE",
"824 364 LINE",
"869 395 OFFCURVE",
"893 448 OFFCURVE",
"906 504 CURVE SMOOTH",
"918 559 OFFCURVE",
"919 617 OFFCURVE",
"919 654 CURVE SMOOTH",
"919 730 OFFCURVE",
"907 806 OFFCURVE",
"870 869 CURVE SMOOTH",
"831 934 OFFCURVE",
"753 966 OFFCURVE",
"673 967 CURVE SMOOTH"
);
},
{
closed = 1;
nodes = (
"749 1114 OFFCURVE",
"817 1106 OFFCURVE",
"878 1084 CURVE SMOOTH",
"938 1062 OFFCURVE",
"992 1026 OFFCURVE",
"1032 971 CURVE SMOOTH",
"1096 882 OFFCURVE",
"1115 774 OFFCURVE",
"1115 665 CURVE SMOOTH",
"1115 585 OFFCURVE",
"1107 491 OFFCURVE",
"1084 399 CURVE SMOOTH",
"1061 307 OFFCURVE",
"1021 217 OFFCURVE",
"960 145 CURVE",
"912 93 OFFCURVE",
"851 57 OFFCURVE",
"785 35 CURVE SMOOTH",
"719 13 OFFCURVE",
"649 3 OFFCURVE",
"584 3 CURVE SMOOTH",
"520 3 OFFCURVE",
"452 12 OFFCURVE",
"392 34 CURVE SMOOTH",
"331 56 OFFCURVE",
"276 91 OFFCURVE",
"239 146 CURVE",
"239 145 LINE",
"174 234 OFFCURVE",
"156 344 OFFCURVE",
"156 455 CURVE SMOOTH",
"156 534 OFFCURVE",
"163 628 OFFCURVE",
"186 720 CURVE SMOOTH",
"209 812 OFFCURVE",
"247 902 OFFCURVE",
"310 973 CURVE",
"359 1021 OFFCURVE",
"421 1057 OFFCURVE",
"486 1080 CURVE SMOOTH",
"551 1103 OFFCURVE",
"620 1114 OFFCURVE",
"684 1114 CURVE SMOOTH"
);
}
);
width = 1268;
}
);
unicode = 006F;
},
{
glyphname = p;
lastChange = "2012-10-19 02:34:44 -0500";
layers = (
{
layerId = "013FA67F-D7C9-4F04-AAC6-32032829ED9A";
name = "Bold Italic";
paths = (
{
closed = 1;
nodes = (
"668 -4 LINE SMOOTH",
"609 -4 OFFCURVE",
"551 9 OFFCURVE",
"500 34 CURVE SMOOTH",
"449 59 OFFCURVE",
"406 98 OFFCURVE",
"378 149 CURVE",
"355 -26 OFFCURVE",
"324 -209 OFFCURVE",
"295 -384 CURVE",
"281 -385 OFFCURVE",
"265 -387 OFFCURVE",
"248 -388 CURVE",
"231 -390 OFFCURVE",
"213 -392 OFFCURVE",
"195 -393 CURVE",
"176 -395 OFFCURVE",
"158 -397 OFFCURVE",
"141 -399 CURVE SMOOTH",
"123 -401 OFFCURVE",
"107 -403 OFFCURVE",
"94 -404 CURVE",
"193 104 OFFCURVE",
"248 603 OFFCURVE",
"268 1107 CURVE",
"295 1104 OFFCURVE",
"330 1101 OFFCURVE",
"366 1098 CURVE SMOOTH",
"402 1094 OFFCURVE",
"437 1091 OFFCURVE",
"464 1090 CURVE",
"449 991 LINE",
"444 962 LINE",
"483 1011 OFFCURVE",
"534 1047 OFFCURVE",
"591 1071 CURVE SMOOTH",
"647 1095 OFFCURVE",
"708 1107 OFFCURVE",
"767 1107 CURVE SMOOTH",
"796 1107 LINE SMOOTH",
"851 1107 OFFCURVE",
"908 1092 OFFCURVE",
"959 1067 CURVE SMOOTH",
"1010 1042 OFFCURVE",
"1055 1006 OFFCURVE",
"1087 963 CURVE",
"1142 879 OFFCURVE",
"1163 773 OFFCURVE",
"1163 672 CURVE SMOOTH",
"1163 587 OFFCURVE",
"1154 492 OFFCURVE",
"1130 400 CURVE SMOOTH",
"1106 308 OFFCURVE",
"1066 219 OFFCURVE",
"1003 146 CURVE",
"1004 146 LINE",
"965 98 OFFCURVE",
"917 62 OFFCURVE",
"864 36 CURVE SMOOTH",
"811 10 OFFCURVE",
"751 -4 OFFCURVE",
"694 -4 CURVE SMOOTH"
);
},
{
closed = 1;
nodes = (
"1033 588 LINE",
"1036 619 OFFCURVE",
"1038 647 OFFCURVE",
"1038 678 CURVE SMOOTH",
"1038 755 OFFCURVE",
"1021 829 OFFCURVE",
"984 884 CURVE SMOOTH",
"947 939 OFFCURVE",
"889 974 OFFCURVE",
"809 974 CURVE SMOOTH",
"721 974 OFFCURVE",
"635 942 OFFCURVE",
"579 869 CURVE SMOOTH",
"539 820 OFFCURVE",
"514 760 OFFCURVE",
"500 698 CURVE SMOOTH",
"486 636 OFFCURVE",
"481 571 OFFCURVE",
"481 514 CURVE SMOOTH",
"481 450 OFFCURVE",
"491 386 OFFCURVE",
"540 347 CURVE",
"539 348 LINE",
"598 309 OFFCURVE",
"667 296 OFFCURVE",
"739 296 CURVE SMOOTH",
"810 296 OFFCURVE",
"882 308 OFFCURVE",
"942 348 CURVE",
"940 347 LINE",
"972 374 OFFCURVE",
"993 410 OFFCURVE",
"1006 450 CURVE SMOOTH",
"1019 490 OFFCURVE",
"1026 532 OFFCURVE",
"1031 571 CURVE",
"1031 574 OFFCURVE",
"1031 576 OFFCURVE",
"1032 579 CURVE",
"1033 581 OFFCURVE",
"1033 583 OFFCURVE",
"1033 586 CURVE SMOOTH"
);
}
);
width = 1314;
}
);
unicode = 0070;
},
{
glyphname = q;
lastChange = "2012-10-19 02:34:44 -0500";
layers = (
{
layerId = "013FA67F-D7C9-4F04-AAC6-32032829ED9A";
name = "Bold Italic";
paths = (
{
closed = 1;
nodes = (
"293 575 OFFCURVE",
"293 571 OFFCURVE",
"293 568 CURVE",
"292 564 OFFCURVE",
"292 560 OFFCURVE",
"292 557 CURVE",
"291 541 OFFCURVE",
"290 525 OFFCURVE",
"290 510 CURVE SMOOTH",
"290 446 OFFCURVE",
"300 384 OFFCURVE",
"344 345 CURVE",
"342 346 LINE",
"395 307 OFFCURVE",
"468 300 OFFCURVE",
"537 300 CURVE SMOOTH",
"609 300 OFFCURVE",
"684 311 OFFCURVE",
"748 347 CURVE",
"746 347 LINE",
"794 380 OFFCURVE",
"820 439 OFFCURVE",
"833 499 CURVE SMOOTH",
"846 558 OFFCURVE",
"848 619 OFFCURVE",
"848 660 CURVE SMOOTH",
"848 736 OFFCURVE",
"835 806 OFFCURVE",
"799 867 CURVE SMOOTH",
"755 939 OFFCURVE",
"674 968 OFFCURVE",
"586 967 CURVE SMOOTH",
"549 967 OFFCURVE",
"511 958 OFFCURVE",
"476 942 CURVE SMOOTH",
"441 925 OFFCURVE",
"410 901 OFFCURVE",
"386 870 CURVE SMOOTH",
"353 827 OFFCURVE",
"332 779 OFFCURVE",
"318 730 CURVE SMOOTH",
"304 681 OFFCURVE",
"297 629 OFFCURVE",
"293 578 CURVE"
);
},
{
closed = 1;
nodes = (
"833 -210 OFFCURVE",
"845 -26 OFFCURVE",
"864 147 CURVE",
"827 99 OFFCURVE",
"779 62 OFFCURVE",
"725 36 CURVE SMOOTH",
"671 10 OFFCURVE",
"612 -4 OFFCURVE",
"555 -4 CURVE SMOOTH",
"527 -4 LINE SMOOTH",
"411 -4 OFFCURVE",
"302 50 OFFCURVE",
"242 146 CURVE SMOOTH",
"177 245 OFFCURVE",
"159 364 OFFCURVE",
"159 484 CURVE SMOOTH",
"159 560 OFFCURVE",
"167 647 OFFCURVE",
"189 731 CURVE SMOOTH",
"211 815 OFFCURVE",
"245 896 OFFCURVE",
"301 964 CURVE SMOOTH",
"381 1056 OFFCURVE",
"499 1108 OFFCURVE",
"614 1107 CURVE SMOOTH",
"648 1107 LINE SMOOTH",
"708 1107 OFFCURVE",
"767 1090 OFFCURVE",
"820 1062 CURVE SMOOTH",
"873 1033 OFFCURVE",
"919 992 OFFCURVE",
"951 945 CURVE",
"974 1035 LINE",
"990 1094 LINE",
"1017 1095 OFFCURVE",
"1053 1099 OFFCURVE",
"1090 1103 CURVE SMOOTH",
"1108 1105 OFFCURVE",
"1126 1107 OFFCURVE",
"1143 1109 CURVE",
"1160 1110 OFFCURVE",
"1176 1112 OFFCURVE",
"1189 1114 CURVE",
"1089 605 OFFCURVE",
"1031 104 OFFCURVE",
"1018 -397 CURVE",
"1017 -397 OFFCURVE",
"1016 -397 OFFCURVE",
"1013 -397 CURVE SMOOTH",
"1010 -397 OFFCURVE",
"1006 -397 OFFCURVE",
"1003 -396 CURVE",
"1000 -396 OFFCURVE",
"997 -396 OFFCURVE",
"994 -396 CURVE SMOOTH",
"991 -396 OFFCURVE",
"989 -396 OFFCURVE",
"988 -396 CURVE",
"939 -389 OFFCURVE",
"873 -384 OFFCURVE",
"822 -381 CURVE"
);
}
);
width = 1370;
}
);
unicode = 0071;
},
{
glyphname = r;
lastChange = "2012-10-19 02:34:44 -0500";
layers = (
{
anchors = (
{
name = bottom;
position = "{359, 0}";
},
{
name = top;
position = "{359, 1108}";
}
);
layerId = "013FA67F-D7C9-4F04-AAC6-32032829ED9A";
name = "Bold Italic";
paths = (
{
closed = 1;
nodes = (
"807 912 LINE",
"790 919 OFFCURVE",
"771 921 OFFCURVE",
"752 921 CURVE SMOOTH",
"705 921 OFFCURVE",
"654 917 OFFCURVE",
"606 902 CURVE SMOOTH",
"558 886 OFFCURVE",
"515 861 OFFCURVE",
"484 818 CURVE SMOOTH",
"429 741 OFFCURVE",
"410 646 OFFCURVE",
"401 557 CURVE",
"401 558 LINE",
"392 386 OFFCURVE",
"383 201 OFFCURVE",
"368 29 CURVE",
"291 26 OFFCURVE",
"208 18 OFFCURVE",
"116 6 CURVE",
"192 377 OFFCURVE",
"238 737 OFFCURVE",
"265 1096 CURVE",
"304 1092 OFFCURVE",
"358 1088 OFFCURVE",
"395 1085 CURVE",
"400 1085 OFFCURVE",
"407 1085 OFFCURVE",
"418 1084 CURVE SMOOTH",
"429 1083 OFFCURVE",
"436 1083 OFFCURVE",
"440 1083 CURVE",
"434 983 LINE",
"454 995 OFFCURVE",
"473 1005 OFFCURVE",
"493 1016 CURVE SMOOTH",
"539 1042 LINE SMOOTH",
"579 1066 OFFCURVE",
"625 1083 OFFCURVE",
"673 1094 CURVE SMOOTH",
"720 1105 OFFCURVE",
"766 1110 OFFCURVE",
"809 1110 CURVE SMOOTH",
"860 1110 LINE",
"856 1083 OFFCURVE",
"851 1053 OFFCURVE",
"846 1019 CURVE SMOOTH",
"841 985 OFFCURVE",
"836 955 OFFCURVE",
"833 928 CURVE"
);
}
);
width = 904;
}
);
unicode = 0072;
},
{
glyphname = s;
lastChange = "2013-04-22 07:30:42 -0500";
layers = (
{
anchors = (
{
name = bottom;
position = "{548, 0}";
},
{
name = top;
position = "{696, 1108}";
}
);
layerId = "013FA67F-D7C9-4F04-AAC6-32032829ED9A";
name = "Bold Italic";
paths = (
{
closed = 1;
nodes = (
"989 1068 LINE",
"978 1005 LINE",
"975 992 OFFCURVE",
"972 972 OFFCURVE",
"969 953 CURVE",
"968 944 OFFCURVE",
"966 934 OFFCURVE",
"965 925 CURVE",
"963 916 OFFCURVE",
"962 908 OFFCURVE",
"961 901 CURVE",
"848 953 OFFCURVE",
"740 968 OFFCURVE",
"632 968 CURVE SMOOTH",
"577 968 OFFCURVE",
"515 959 OFFCURVE",
"466 934 CURVE SMOOTH",
"417 909 OFFCURVE",
"381 866 OFFCURVE",
"381 801 CURVE SMOOTH",
"381 744 OFFCURVE",
"420 708 OFFCURVE",
"472 684 CURVE SMOOTH",
"523 660 OFFCURVE",
"585 647 OFFCURVE",
"629 639 CURVE",
"648 634 LINE SMOOTH",
"692 623 OFFCURVE",
"738 611 OFFCURVE",
"780 595 CURVE SMOOTH",
"822 578 OFFCURVE",
"862 556 OFFCURVE",
"895 524 CURVE SMOOTH",
"944 477 OFFCURVE",
"961 406 OFFCURVE",
"961 341 CURVE SMOOTH",
"961 292 OFFCURVE",
"952 240 OFFCURVE",
"932 195 CURVE SMOOTH",
"911 150 OFFCURVE",
"879 108 OFFCURVE",
"832 79 CURVE SMOOTH",
"779 46 OFFCURVE",
"721 27 OFFCURVE",
"661 16 CURVE SMOOTH",
"601 5 OFFCURVE",
"540 3 OFFCURVE",
"483 3 CURVE SMOOTH",
"366 3 OFFCURVE",
"242 21 OFFCURVE",
"119 52 CURVE",
"126 92 OFFCURVE",
"133 143 OFFCURVE",
"141 193 CURVE SMOOTH",
"148 243 OFFCURVE",
"155 293 OFFCURVE",
"160 333 CURVE",
"272 273 OFFCURVE",
"388 241 OFFCURVE",
"501 241 CURVE SMOOTH",
"524 241 LINE",
"529 240 OFFCURVE",
"533 240 OFFCURVE",
"537 240 CURVE SMOOTH",
"540 240 OFFCURVE",
"544 240 OFFCURVE",
"548 240 CURVE SMOOTH",
"589 240 OFFCURVE",
"639 247 OFFCURVE",
"679 267 CURVE SMOOTH",
"719 287 OFFCURVE",
"763 316 OFFCURVE",
"753 366 CURVE SMOOTH",
"746 400 OFFCURVE",
"730 423 OFFCURVE",
"714 440 CURVE",
"690 459 OFFCURVE",
"656 472 OFFCURVE",
"623 482 CURVE SMOOTH",
"590 492 OFFCURVE",
"556 499 OFFCURVE",
"525 506 CURVE SMOOTH",
"487 515 LINE SMOOTH",
"448 524 OFFCURVE",
"409 534 OFFCURVE",
"371 550 CURVE SMOOTH",
"333 565 OFFCURVE",
"295 584 OFFCURVE",
"266 612 CURVE SMOOTH",
"221 656 OFFCURVE",
"208 725 OFFCURVE",
"208 789 CURVE SMOOTH",
"208 844 OFFCURVE",
"220 902 OFFCURVE",
"246 952 CURVE SMOOTH",
"272 1002 OFFCURVE",
"312 1043 OFFCURVE",
"371 1067 CURVE SMOOTH",
"468 1106 OFFCURVE",
"551 1114 OFFCURVE",
"638 1114 CURVE SMOOTH",
"754 1114 OFFCURVE",
"868 1107 OFFCURVE",
"977 1072 CURVE"
);
}
);
width = 1165;
}
);
unicode = 0073;
},
{
glyphname = t;
lastChange = "2013-04-20 04:42:31 -0500";
layers = (
{
anchors = (
{
name = bottom;
position = "{611, 0}";
},
{
name = center;
position = "{611, 554}";
},
{
name = top;
position = "{555, 1306}";
}
);
layerId = "013FA67F-D7C9-4F04-AAC6-32032829ED9A";
name = "Bold Italic";
paths = (
{
closed = 1;
nodes = (
"622 1330 LINE",
"619 1308 OFFCURVE",
"617 1286 OFFCURVE",
"615 1263 CURVE",
"612 1240 OFFCURVE",
"609 1217 OFFCURVE",
"606 1195 CURVE",
"606 1196 LINE",
"594 1092 LINE",
"611 1092 LINE SMOOTH",
"644 1092 OFFCURVE",
"683 1093 OFFCURVE",
"722 1095 CURVE SMOOTH",
"741 1096 OFFCURVE",
"761 1096 OFFCURVE",
"780 1097 CURVE SMOOTH",
"799 1098 OFFCURVE",
"817 1099 OFFCURVE",
"834 1100 CURVE",
"828 1031 LINE",
"825 1008 OFFCURVE",
"820 968 OFFCURVE",
"816 945 CURVE",
"751 942 OFFCURVE",
"670 939 OFFCURVE",
"603 939 CURVE SMOOTH",
"580 939 LINE",
"575 895 OFFCURVE",
"569 847 OFFCURVE",
"565 803 CURVE SMOOTH",
"560 752 OFFCURVE",
"554 701 OFFCURVE",
"549 650 CURVE SMOOTH",
"544 599 OFFCURVE",
"538 547 OFFCURVE",
"533 496 CURVE",
"533 492 OFFCURVE",
"533 488 OFFCURVE",
"533 485 CURVE",
"532 482 OFFCURVE",
"532 478 OFFCURVE",
"532 475 CURVE",
"531 459 OFFCURVE",
"530 446 OFFCURVE",
"530 430 CURVE SMOOTH",
"530 397 OFFCURVE",
"532 364 OFFCURVE",
"551 340 CURVE",
"549 343 LINE",
"580 312 OFFCURVE",
"633 310 OFFCURVE",
"681 307 CURVE SMOOTH",
"737 304 OFFCURVE",
"809 299 OFFCURVE",
"865 292 CURVE",
"864 271 OFFCURVE",
"863 249 OFFCURVE",
"862 224 CURVE SMOOTH",
"861 199 OFFCURVE",
"861 174 OFFCURVE",
"860 149 CURVE SMOOTH",
"858 98 OFFCURVE",
"856 47 OFFCURVE",
"856 6 CURVE",
"832 10 OFFCURVE",
"803 14 OFFCURVE",
"774 18 CURVE",
"759 19 OFFCURVE",
"745 21 OFFCURVE",
"730 23 CURVE",
"715 24 OFFCURVE",
"702 26 OFFCURVE",
"690 27 CURVE SMOOTH",
"664 30 LINE",
"630 33 LINE SMOOTH",
"587 37 OFFCURVE",
"541 40 OFFCURVE",
"498 51 CURVE SMOOTH",
"454 62 OFFCURVE",
"412 79 OFFCURVE",
"379 107 CURVE",
"328 158 OFFCURVE",
"317 226 OFFCURVE",
"317 294 CURVE SMOOTH",
"317 325 OFFCURVE",
"319 357 OFFCURVE",
"322 385 CURVE SMOOTH",
"327 433 OFFCURVE",
"333 480 OFFCURVE",
"338 527 CURVE SMOOTH",
"349 619 OFFCURVE",
"359 710 OFFCURVE",
"368 803 CURVE SMOOTH",
"373 849 OFFCURVE",
"377 896 OFFCURVE",
"381 944 CURVE",
"342 947 OFFCURVE",
"293 950 OFFCURVE",
"260 954 CURVE",
"261 966 OFFCURVE",
"261 981 OFFCURVE",
"262 999 CURVE SMOOTH",
"263 1017 OFFCURVE",
"264 1032 OFFCURVE",
"265 1044 CURVE",
"265 1043 LINE",
"269 1112 LINE",
"313 1106 LINE SMOOTH",
"329 1104 OFFCURVE",
"342 1102 OFFCURVE",
"352 1101 CURVE SMOOTH",
"362 1100 OFFCURVE",
"375 1098 OFFCURVE",
"392 1097 CURVE",
"396 1139 OFFCURVE",
"400 1183 OFFCURVE",
"405 1230 CURVE SMOOTH",
"410 1276 OFFCURVE",
"414 1319 OFFCURVE",
"417 1360 CURVE",
"489 1353 OFFCURVE",
"548 1351 OFFCURVE",
"603 1351 CURVE"
);
}
);
width = 1122;
}
);
unicode = 0074;
},
{
glyphname = u;
lastChange = "2013-04-22 07:24:48 -0500";
layers = (
{
anchors = (
{
name = bottom;
position = "{566, -34}";
},
{
name = horncomb;
position = "{1117, 892}";
},
{
name = ogonek;
position = "{1178, 0}";
},
{
name = top;
position = "{728, 1108}";
}
);
layerId = "013FA67F-D7C9-4F04-AAC6-32032829ED9A";
name = "Bold Italic";
paths = (
{
closed = 1;
nodes = (
"259 635 OFFCURVE",
"270 818 OFFCURVE",
"270 1005 CURVE SMOOTH",
"270 1012 OFFCURVE",
"270 1020 OFFCURVE",
"270 1027 CURVE",
"269 1034 OFFCURVE",
"269 1041 OFFCURVE",
"269 1048 CURVE SMOOTH",
"269 1114 LINE",
"275 1113 OFFCURVE",
"282 1113 OFFCURVE",
"290 1112 CURVE SMOOTH",
"298 1111 OFFCURVE",
"306 1110 OFFCURVE",
"315 1109 CURVE SMOOTH",
"324 1108 OFFCURVE",
"332 1107 OFFCURVE",
"341 1106 CURVE SMOOTH",
"349 1105 OFFCURVE",
"356 1104 OFFCURVE",
"362 1103 CURVE",
"435 1097 LINE",
"432 938 OFFCURVE",
"424 763 OFFCURVE",
"412 603 CURVE",
"412 589 LINE SMOOTH",
"412 586 OFFCURVE",
"412 583 OFFCURVE",
"412 580 CURVE",
"411 577 OFFCURVE",
"411 574 OFFCURVE",
"411 571 CURVE SMOOTH",
"411 511 OFFCURVE",
"418 450 OFFCURVE",
"443 398 CURVE",
"442 399 LINE",
"475 340 OFFCURVE",
"533 319 OFFCURVE",
"589 319 CURVE SMOOTH",
"669 319 OFFCURVE",
"749 340 OFFCURVE",
"809 404 CURVE",
"809 403 LINE",
"869 470 OFFCURVE",
"898 556 OFFCURVE",
"911 641 CURVE",
"911 640 LINE",
"927 788 OFFCURVE",
"953 949 OFFCURVE",
"978 1096 CURVE",
"1010 1097 OFFCURVE",
"1052 1100 OFFCURVE",
"1094 1104 CURVE SMOOTH",
"1136 1107 OFFCURVE",
"1177 1110 OFFCURVE",
"1209 1114 CURVE",
"1129 743 OFFCURVE",
"1088 377 OFFCURVE",
"1087 10 CURVE",
"1074 11 OFFCURVE",
"1059 12 OFFCURVE",
"1042 13 CURVE SMOOTH",
"1008 16 OFFCURVE",
"971 19 OFFCURVE",
"936 21 CURVE SMOOTH",
"919 22 OFFCURVE",
"904 22 OFFCURVE",
"891 23 CURVE",
"894 63 OFFCURVE",
"897 117 OFFCURVE",
"902 160 CURVE",
"818 64 OFFCURVE",
"698 1 OFFCURVE",
"573 1 CURVE SMOOTH",
"547 1 LINE SMOOTH",
"492 1 OFFCURVE",
"438 10 OFFCURVE",
"390 31 CURVE SMOOTH",
"341 51 OFFCURVE",
"299 85 OFFCURVE",
"274 133 CURVE",
"243 205 OFFCURVE",
"234 275 OFFCURVE",
"234 346 CURVE SMOOTH",
"234 381 OFFCURVE",
"236 415 OFFCURVE",
"239 448 CURVE SMOOTH"
);
}
);
width = 1353;
}
);
unicode = 0075;
},
{
glyphname = v;
lastChange = "2012-10-19 02:34:44 -0500";
layers = (
{
layerId = "013FA67F-D7C9-4F04-AAC6-32032829ED9A";
name = "Bold Italic";
paths = (
{
closed = 1;
nodes = (
"340 1106 LINE SMOOTH",
"383 1102 OFFCURVE",
"434 1097 OFFCURVE",
"475 1096 CURVE",
"563 885 OFFCURVE",
"640 657 OFFCURVE",
"712 440 CURVE SMOOTH",
"715 431 OFFCURVE",
"717 423 OFFCURVE",
"720 416 CURVE",
"722 409 OFFCURVE",
"724 403 OFFCURVE",
"726 396 CURVE SMOOTH",
"730 382 OFFCURVE",
"735 367 OFFCURVE",
"743 346 CURVE",
"801 460 LINE SMOOTH",
"908 673 OFFCURVE",
"1019 892 OFFCURVE",
"1142 1096 CURVE",
"1156 1097 OFFCURVE",
"1173 1098 OFFCURVE",
"1192 1100 CURVE",
"1211 1101 OFFCURVE",
"1230 1103 OFFCURVE",
"1250 1104 CURVE SMOOTH",
"1290 1107 OFFCURVE",
"1330 1110 OFFCURVE",
"1358 1113 CURVE",
"1269 957 OFFCURVE",
"1193 805 OFFCURVE",
"1125 656 CURVE SMOOTH",
"1056 507 OFFCURVE",
"993 360 OFFCURVE",
"932 212 CURVE SMOOTH",
"855 29 LINE",
"838 30 OFFCURVE",
"818 30 OFFCURVE",
"796 30 CURVE SMOOTH",
"774 30 OFFCURVE",
"754 30 OFFCURVE",
"737 30 CURVE SMOOTH",
"667 30 LINE SMOOTH",
"654 30 OFFCURVE",
"640 30 OFFCURVE",
"623 30 CURVE",
"606 29 OFFCURVE",
"592 29 OFFCURVE",
"580 29 CURVE",
"568 72 OFFCURVE",
"556 118 OFFCURVE",
"544 165 CURVE SMOOTH",
"520 260 OFFCURVE",
"493 367 OFFCURVE",
"459 500 CURVE SMOOTH",
"425 632 OFFCURVE",
"387 766 OFFCURVE",
"343 903 CURVE SMOOTH",
"320 972 OFFCURVE",
"296 1042 OFFCURVE",
"269 1113 CURVE"
);
}
);
width = 1389;
}
);
unicode = 0076;
},
{
glyphname = w;
lastChange = "2012-10-19 02:34:44 -0500";
layers = (
{
anchors = (
{
name = top;
position = "{1023, 1108}";
}
);
layerId = "013FA67F-D7C9-4F04-AAC6-32032829ED9A";
name = "Bold Italic";
paths = (
{
closed = 1;
nodes = (
"283 1110 LINE",
"334 1106 OFFCURVE",
"398 1102 OFFCURVE",
"450 1099 CURVE",
"533 856 OFFCURVE",
"583 618 OFFCURVE",
"623 378 CURVE",
"646 418 OFFCURVE",
"669 457 OFFCURVE",
"692 494 CURVE SMOOTH",
"714 531 OFFCURVE",
"736 569 OFFCURVE",
"759 608 CURVE SMOOTH",
"771 629 OFFCURVE",
"784 652 OFFCURVE",
"799 677 CURVE SMOOTH",
"814 701 OFFCURVE",
"827 724 OFFCURVE",
"839 745 CURVE",
"989 745 LINE SMOOTH",
"1017 745 OFFCURVE",
"1057 746 OFFCURVE",
"1085 747 CURVE",
"1112 679 OFFCURVE",
"1135 621 OFFCURVE",
"1159 562 CURVE SMOOTH",
"1183 502 OFFCURVE",
"1207 444 OFFCURVE",
"1236 377 CURVE",
"1320 618 OFFCURVE",
"1410 859 OFFCURVE",
"1538 1100 CURVE",
"1603 1104 LINE SMOOTH",
"1620 1105 OFFCURVE",
"1647 1107 OFFCURVE",
"1673 1108 CURVE",
"1686 1109 OFFCURVE",
"1698 1110 OFFCURVE",
"1711 1111 CURVE SMOOTH",
"1723 1112 OFFCURVE",
"1733 1112 OFFCURVE",
"1742 1113 CURVE",
"1647 934 OFFCURVE",
"1571 753 OFFCURVE",
"1508 570 CURVE SMOOTH",
"1444 387 OFFCURVE",
"1394 203 OFFCURVE",
"1353 22 CURVE",
"1326 23 OFFCURVE",
"1298 24 OFFCURVE",
"1267 25 CURVE SMOOTH",
"1236 26 OFFCURVE",
"1208 26 OFFCURVE",
"1182 27 CURVE",
"1169 27 OFFCURVE",
"1154 27 OFFCURVE",
"1137 28 CURVE SMOOTH",
"1119 29 OFFCURVE",
"1104 29 OFFCURVE",
"1091 29 CURVE",
"1060 109 OFFCURVE",
"1035 181 OFFCURVE",
"1011 254 CURVE SMOOTH",
"986 326 OFFCURVE",
"963 399 OFFCURVE",
"939 482 CURVE",
"864 331 OFFCURVE",
"783 173 OFFCURVE",
"702 28 CURVE",
"659 28 OFFCURVE",
"607 26 OFFCURVE",
"564 25 CURVE SMOOTH",
"556 25 OFFCURVE",
"547 25 OFFCURVE",
"537 25 CURVE",
"516 24 OFFCURVE",
"494 23 OFFCURVE",
"474 23 CURVE SMOOTH",
"464 23 OFFCURVE",
"455 23 OFFCURVE",
"448 23 CURVE",
"433 207 OFFCURVE",
"415 390 OFFCURVE",
"386 568 CURVE SMOOTH",
"357 746 OFFCURVE",
"318 918 OFFCURVE",
"263 1085 CURVE"
);
}
);
width = 1773;
}
);
unicode = 0077;
},
{
glyphname = x;
lastChange = "2012-10-19 02:34:44 -0500";
layers = (
{
layerId = "013FA67F-D7C9-4F04-AAC6-32032829ED9A";
name = "Bold Italic";
paths = (
{
closed = 1;
nodes = (
"1278 1075 LINE",
"1133 902 OFFCURVE",
"1003 726 OFFCURVE",
"868 543 CURVE",
"868 544 LINE",
"865 539 OFFCURVE",
"863 537 OFFCURVE",
"862 536 CURVE SMOOTH",
"861 535 OFFCURVE",
"858 532 OFFCURVE",
"855 527 CURVE",
"915 443 OFFCURVE",
"983 353 OFFCURVE",
"1052 263 CURVE SMOOTH",
"1120 173 OFFCURVE",
"1189 85 OFFCURVE",
"1253 6 CURVE",
"1210 10 OFFCURVE",
"1153 14 OFFCURVE",
"1096 18 CURVE SMOOTH",
"1039 21 OFFCURVE",
"982 24 OFFCURVE",
"939 25 CURVE",
"899 86 OFFCURVE",
"864 144 OFFCURVE",
"829 202 CURVE SMOOTH",
"793 260 OFFCURVE",
"760 318 OFFCURVE",
"725 381 CURVE",
"632 261 OFFCURVE",
"532 140 OFFCURVE",
"433 25 CURVE",
"389 24 OFFCURVE",
"332 21 OFFCURVE",
"274 17 CURVE SMOOTH",
"245 15 OFFCURVE",
"216 13 OFFCURVE",
"188 12 CURVE",
"160 10 OFFCURVE",
"135 8 OFFCURVE",
"113 6 CURVE",
"193 89 OFFCURVE",
"280 179 OFFCURVE",
"365 270 CURVE SMOOTH",
"449 361 OFFCURVE",
"533 452 OFFCURVE",
"609 539 CURVE",
"557 631 OFFCURVE",
"501 730 OFFCURVE",
"443 827 CURVE SMOOTH",
"385 924 OFFCURVE",
"325 1021 OFFCURVE",
"268 1109 CURVE",
"282 1108 OFFCURVE",
"299 1106 OFFCURVE",
"318 1105 CURVE SMOOTH",
"337 1104 OFFCURVE",
"356 1102 OFFCURVE",
"376 1101 CURVE",
"415 1097 OFFCURVE",
"455 1095 OFFCURVE",
"483 1094 CURVE",
"576 951 OFFCURVE",
"654 820 OFFCURVE",
"738 672 CURVE",
"854 816 OFFCURVE",
"976 960 OFFCURVE",
"1097 1096 CURVE",
"1150 1099 OFFCURVE",
"1210 1102 OFFCURVE",
"1262 1107 CURVE"
);
}
);
width = 1519;
}
);
unicode = 0078;
},
{
glyphname = y;
lastChange = "2013-05-02 20:12:54 -0500";
layers = (
{
anchors = (
{
name = bottom;
position = "{834, -228}";
},
{
name = top;
position = "{673, 1108}";
}
);
layerId = "013FA67F-D7C9-4F04-AAC6-32032829ED9A";
name = "Bold Italic";
paths = (
{
closed = 1;
nodes = (
"786 -69 LINE",
"761 -117 OFFCURVE",
"734 -166 OFFCURVE",
"703 -211 CURVE SMOOTH",
"671 -256 OFFCURVE",
"635 -299 OFFCURVE",
"588 -335 CURVE",
"544 -366 OFFCURVE",
"498 -382 OFFCURVE",
"451 -392 CURVE SMOOTH",
"403 -402 OFFCURVE",
"354 -405 OFFCURVE",
"305 -408 CURVE",
"298 -409 OFFCURVE",
"289 -409 OFFCURVE",
"280 -410 CURVE",
"261 -411 OFFCURVE",
"241 -413 OFFCURVE",
"222 -415 CURVE SMOOTH",
"213 -416 OFFCURVE",
"205 -417 OFFCURVE",
"198 -418 CURVE",
"202 -397 OFFCURVE",
"207 -369 OFFCURVE",
"212 -341 CURVE SMOOTH",
"216 -313 OFFCURVE",
"220 -285 OFFCURVE",
"223 -264 CURVE SMOOTH",
"225 -250 OFFCURVE",
"228 -233 OFFCURVE",
"231 -214 CURVE SMOOTH",
"234 -195 OFFCURVE",
"237 -178 OFFCURVE",
"239 -163 CURVE",
"248 -162 OFFCURVE",
"261 -161 OFFCURVE",
"276 -160 CURVE SMOOTH",
"291 -159 OFFCURVE",
"303 -159 OFFCURVE",
"312 -158 CURVE",
"372 -155 OFFCURVE",
"429 -153 OFFCURVE",
"476 -118 CURVE",
"475 -119 LINE",
"510 -90 OFFCURVE",
"539 -59 OFFCURVE",
"570 -26 CURVE",
"590 11 OFFCURVE",
"612 49 OFFCURVE",
"635 85 CURVE",
"654 118 LINE",
"627 191 LINE SMOOTH",
"572 338 OFFCURVE",
"513 497 OFFCURVE",
"452 656 CURVE SMOOTH",
"391 815 OFFCURVE",
"329 972 OFFCURVE",
"269 1115 CURVE",
"296 1111 OFFCURVE",
"335 1106 OFFCURVE",
"373 1102 CURVE SMOOTH",
"411 1097 OFFCURVE",
"449 1092 OFFCURVE",
"477 1091 CURVE",
"534 987 OFFCURVE",
"588 890 OFFCURVE",
"641 791 CURVE SMOOTH",
"693 692 OFFCURVE",
"745 593 OFFCURVE",
"798 488 CURVE",
"906 685 OFFCURVE",
"1026 900 OFFCURVE",
"1143 1092 CURVE",
"1171 1093 OFFCURVE",
"1211 1098 OFFCURVE",
"1251 1103 CURVE SMOOTH",
"1271 1105 OFFCURVE",
"1291 1107 OFFCURVE",
"1310 1109 CURVE SMOOTH",
"1329 1111 OFFCURVE",
"1346 1113 OFFCURVE",
"1360 1115 CURVE",
"1200 822 OFFCURVE",
"1047 495 OFFCURVE",
"908 194 CURVE SMOOTH"
);
}
);
width = 1391;
}
);
unicode = 0079;
},
{
glyphname = z;
lastChange = "2013-05-02 20:12:36 -0500";
layers = (
{
anchors = (
{
name = bottom;
position = "{487, -55}";
},
{
name = top;
position = "{642, 1108}";
}
);
layerId = "013FA67F-D7C9-4F04-AAC6-32032829ED9A";
name = "Bold Italic";
paths = (
{
closed = 1;
nodes = (
"285 1105 LINE",
"410 1094 OFFCURVE",
"535 1088 OFFCURVE",
"662 1088 CURVE SMOOTH",
"805 1088 OFFCURVE",
"957 1096 OFFCURVE",
"1124 1113 CURVE",
"1119 1088 OFFCURVE",
"1113 1055 OFFCURVE",
"1107 1023 CURVE SMOOTH",
"1104 1006 OFFCURVE",
"1101 990 OFFCURVE",
"1098 975 CURVE SMOOTH",
"1095 959 OFFCURVE",
"1092 945 OFFCURVE",
"1090 932 CURVE",
"1049 890 OFFCURVE",
"1007 847 OFFCURVE",
"965 804 CURVE SMOOTH",
"923 760 OFFCURVE",
"882 717 OFFCURVE",
"841 675 CURVE SMOOTH",
"806 639 OFFCURVE",
"774 605 OFFCURVE",
"743 573 CURVE SMOOTH",
"682 508 OFFCURVE",
"622 445 OFFCURVE",
"559 381 CURVE SMOOTH",
"528 349 OFFCURVE",
"494 315 OFFCURVE",
"459 280 CURVE",
"486 281 OFFCURVE",
"513 281 OFFCURVE",
"539 281 CURVE SMOOTH",
"565 281 OFFCURVE",
"592 281 OFFCURVE",
"619 281 CURVE SMOOTH",
"746 281 OFFCURVE",
"890 276 OFFCURVE",
"1015 268 CURVE",
"1014 240 OFFCURVE",
"1013 194 OFFCURVE",
"1013 166 CURVE SMOOTH",
"1013 121 OFFCURVE",
"1014 54 OFFCURVE",
"1015 9 CURVE",
"865 23 OFFCURVE",
"720 30 OFFCURVE",
"581 30 CURVE SMOOTH",
"440 30 OFFCURVE",
"288 22 OFFCURVE",
"121 7 CURVE",
"130 47 OFFCURVE",
"139 96 OFFCURVE",
"148 145 CURVE SMOOTH",
"156 193 OFFCURVE",
"164 242 OFFCURVE",
"171 283 CURVE",
"291 400 OFFCURVE",
"404 508 OFFCURVE",
"518 616 CURVE SMOOTH",
"575 669 OFFCURVE",
"632 723 OFFCURVE",
"690 777 CURVE SMOOTH",
"748 831 OFFCURVE",
"808 887 OFFCURVE",
"869 944 CURVE",
"793 941 OFFCURVE",
"716 940 OFFCURVE",
"640 940 CURVE SMOOTH",
"515 940 OFFCURVE",
"391 944 OFFCURVE",
"263 955 CURVE",
"263 1086 LINE"
);
}
);
width = 1281;
}
);
unicode = 007A;
},
{
glyphname = braceleft;
lastChange = "2012-10-19 02:34:44 -0500";
layers = (
{
layerId = "013FA67F-D7C9-4F04-AAC6-32032829ED9A";
name = "Bold Italic";
paths = (
{
closed = 1;
nodes = (
"852 -126 LINE",
"851 -139 OFFCURVE",
"851 -152 OFFCURVE",
"851 -165 CURVE",
"850 -178 OFFCURVE",
"849 -192 OFFCURVE",
"848 -205 CURVE SMOOTH",
"847 -222 OFFCURVE",
"845 -244 OFFCURVE",
"845 -267 CURVE",
"844 -278 OFFCURVE",
"844 -289 OFFCURVE",
"843 -299 CURVE SMOOTH",
"842 -310 OFFCURVE",
"842 -319 OFFCURVE",
"842 -327 CURVE",
"751 -313 LINE SMOOTH",
"702 -305 OFFCURVE",
"648 -297 OFFCURVE",
"596 -282 CURVE SMOOTH",
"544 -267 OFFCURVE",
"495 -246 OFFCURVE",
"456 -214 CURVE",
"405 -154 OFFCURVE",
"395 -78 OFFCURVE",
"395 -1 CURVE SMOOTH",
"395 55 OFFCURVE",
"401 107 OFFCURVE",
"408 163 CURVE SMOOTH",
"415 218 OFFCURVE",
"421 272 OFFCURVE",
"421 324 CURVE SMOOTH",
"421 380 OFFCURVE",
"418 437 OFFCURVE",
"390 482 CURVE",
"391 481 LINE",
"374 502 OFFCURVE",
"349 515 OFFCURVE",
"321 523 CURVE SMOOTH",
"292 531 OFFCURVE",
"260 534 OFFCURVE",
"231 535 CURVE SMOOTH",
"225 535 LINE SMOOTH",
"222 535 OFFCURVE",
"220 535 OFFCURVE",
"218 536 CURVE",
"215 536 OFFCURVE",
"213 536 OFFCURVE",
"210 536 CURVE SMOOTH",
"165 536 LINE",
"165 541 OFFCURVE",
"165 547 OFFCURVE",
"166 554 CURVE SMOOTH",
"167 561 OFFCURVE",
"167 568 OFFCURVE",
"168 576 CURVE",
"169 591 OFFCURVE",
"171 605 OFFCURVE",
"172 616 CURVE SMOOTH",
"180 694 LINE",
"193 694 OFFCURVE",
"203 694 OFFCURVE",
"208 694 CURVE",
"213 693 OFFCURVE",
"218 693 OFFCURVE",
"221 692 CURVE SMOOTH",
"224 691 OFFCURVE",
"227 691 OFFCURVE",
"230 691 CURVE SMOOTH",
"232 691 OFFCURVE",
"235 691 OFFCURVE",
"238 691 CURVE SMOOTH",
"298 691 OFFCURVE",
"373 705 OFFCURVE",
"422 741 CURVE",
"443 765 OFFCURVE",
"459 795 OFFCURVE",
"468 827 CURVE SMOOTH",
"477 859 OFFCURVE",
"483 893 OFFCURVE",
"487 924 CURVE",
"490 960 OFFCURVE",
"494 999 OFFCURVE",
"498 1035 CURVE SMOOTH",
"510 1147 LINE",
"517 1195 OFFCURVE",
"523 1247 OFFCURVE",
"539 1296 CURVE SMOOTH",
"555 1344 OFFCURVE",
"579 1389 OFFCURVE",
"622 1425 CURVE",
"711 1478 OFFCURVE",
"810 1497 OFFCURVE",
"906 1512 CURVE",
"915 1513 OFFCURVE",
"925 1515 OFFCURVE",
"937 1518 CURVE",
"949 1520 OFFCURVE",
"961 1522 OFFCURVE",
"974 1525 CURVE",
"999 1529 OFFCURVE",
"1024 1534 OFFCURVE",
"1041 1538 CURVE",
"1037 1518 OFFCURVE",
"1031 1487 OFFCURVE",
"1026 1457 CURVE SMOOTH",
"1023 1442 OFFCURVE",
"1021 1427 OFFCURVE",
"1018 1412 CURVE SMOOTH",
"1015 1397 OFFCURVE",
"1013 1385 OFFCURVE",
"1012 1375 CURVE",
"973 1364 OFFCURVE",
"950 1361 OFFCURVE",
"927 1357 CURVE SMOOTH",
"867 1348 OFFCURVE",
"803 1338 OFFCURVE",
"756 1301 CURVE",
"758 1304 LINE",
"722 1265 OFFCURVE",
"714 1207 OFFCURVE",
"706 1154 CURVE SMOOTH",
"703 1136 LINE",
"703 1137 LINE",
"698 1098 OFFCURVE",
"693 1060 OFFCURVE",
"689 1021 CURVE SMOOTH",
"684 982 OFFCURVE",
"680 945 OFFCURVE",
"676 906 CURVE SMOOTH",
"668 834 OFFCURVE",
"656 756 OFFCURVE",
"611 688 CURVE",
"579 647 OFFCURVE",
"533 621 OFFCURVE",
"485 606 CURVE",
"528 589 OFFCURVE",
"570 561 OFFCURVE",
"589 517 CURVE SMOOTH",
"612 464 OFFCURVE",
"614 409 OFFCURVE",
"614 353 CURVE SMOOTH",
"614 317 LINE",
"602 201 LINE",
"601 182 OFFCURVE",
"599 162 OFFCURVE",
"597 143 CURVE SMOOTH",
"595 124 OFFCURVE",
"593 104 OFFCURVE",
"592 85 CURVE",
"592 38 OFFCURVE",
"594 -8 OFFCURVE",
"621 -43 CURVE",
"652 -74 OFFCURVE",
"709 -86 OFFCURVE",
"757 -93 CURVE",
"779 -97 LINE SMOOTH",
"784 -98 OFFCURVE",
"789 -99 OFFCURVE",
"795 -99 CURVE",
"800 -100 OFFCURVE",
"805 -100 OFFCURVE",
"808 -101 CURVE SMOOTH",
"817 -104 OFFCURVE",
"825 -105 OFFCURVE",
"832 -105 CURVE"
);
}
);
width = 1179;
}
);
unicode = 007B;
},
{
glyphname = bar;
lastChange = "2012-10-19 02:34:44 -0500";
layers = (
{
layerId = "013FA67F-D7C9-4F04-AAC6-32032829ED9A";
name = "Bold Italic";
paths = (
{
closed = 1;
nodes = (
"279 -428 LINE",
"264 -425 OFFCURVE",
"250 -424 OFFCURVE",
"238 -424 CURVE SMOOTH",
"198 -424 OFFCURVE",
"148 -443 OFFCURVE",
"88 -482 CURVE",
"112 -322 OFFCURVE",
"138 -147 OFFCURVE",
"163 29 CURVE SMOOTH",
"188 204 OFFCURVE",
"212 379 OFFCURVE",
"233 539 CURVE",
"244 539 OFFCURVE",
"258 539 OFFCURVE",
"274 539 CURVE SMOOTH",
"289 539 OFFCURVE",
"305 539 OFFCURVE",
"322 539 CURVE SMOOTH",
"338 539 OFFCURVE",
"354 539 OFFCURVE",
"370 540 CURVE",
"385 540 OFFCURVE",
"399 540 OFFCURVE",
"411 540 CURVE",
"374 229 OFFCURVE",
"337 -99 OFFCURVE",
"302 -411 CURVE"
);
},
{
closed = 1;
nodes = (
"298 1069 LINE SMOOTH",
"315 1212 OFFCURVE",
"336 1376 OFFCURVE",
"355 1520 CURVE",
"370 1517 OFFCURVE",
"381 1515 OFFCURVE",
"386 1514 CURVE SMOOTH",
"391 1513 OFFCURVE",
"396 1513 OFFCURVE",
"399 1513 CURVE SMOOTH",
"439 1513 OFFCURVE",
"492 1536 OFFCURVE",
"548 1575 CURVE",
"537 1501 OFFCURVE",
"526 1424 OFFCURVE",
"515 1343 CURVE SMOOTH",
"504 1262 OFFCURVE",
"492 1181 OFFCURVE",
"481 1099 CURVE SMOOTH",
"469 1017 OFFCURVE",
"458 936 OFFCURVE",
"447 855 CURVE SMOOTH",
"436 774 OFFCURVE",
"426 697 OFFCURVE",
"416 622 CURVE",
"381 619 OFFCURVE",
"356 619 OFFCURVE",
"331 619 CURVE SMOOTH",
"325 619 OFFCURVE",
"318 619 OFFCURVE",
"310 619 CURVE SMOOTH",
"294 619 OFFCURVE",
"276 620 OFFCURVE",
"260 621 CURVE",
"252 621 OFFCURVE",
"245 621 OFFCURVE",
"240 621 CURVE"
);
}
);
width = 657;
}
);
unicode = 007C;
},
{
glyphname = braceright;
lastChange = "2012-10-19 02:34:44 -0500";
layers = (
{
layerId = "013FA67F-D7C9-4F04-AAC6-32032829ED9A";
name = "Bold Italic";
paths = (
{
closed = 1;
nodes = (
"276 -139 LINE SMOOTH",
"308 -135 OFFCURVE",
"345 -131 OFFCURVE",
"379 -122 CURVE SMOOTH",
"413 -114 OFFCURVE",
"446 -101 OFFCURVE",
"470 -81 CURVE",
"468 -82 LINE",
"507 -39 OFFCURVE",
"517 22 OFFCURVE",
"524 78 CURVE",
"524 79 OFFCURVE",
"524 81 OFFCURVE",
"525 82 CURVE",
"525 83 OFFCURVE",
"525 85 OFFCURVE",
"525 87 CURVE",
"527 106 LINE SMOOTH",
"530 142 OFFCURVE",
"533 178 OFFCURVE",
"536 213 CURVE SMOOTH",
"543 284 OFFCURVE",
"547 354 OFFCURVE",
"563 426 CURVE SMOOTH",
"571 461 OFFCURVE",
"586 495 OFFCURVE",
"607 527 CURVE",
"638 568 OFFCURVE",
"688 594 OFFCURVE",
"743 609 CURVE",
"694 624 OFFCURVE",
"646 651 OFFCURVE",
"622 698 CURVE",
"622 697 LINE",
"599 740 OFFCURVE",
"595 791 OFFCURVE",
"595 838 CURVE SMOOTH",
"595 902 OFFCURVE",
"600 964 OFFCURVE",
"607 1027 CURVE SMOOTH",
"614 1090 OFFCURVE",
"620 1153 OFFCURVE",
"620 1210 CURVE SMOOTH",
"620 1246 OFFCURVE",
"613 1287 OFFCURVE",
"594 1316 CURVE",
"574 1333 OFFCURVE",
"545 1346 OFFCURVE",
"514 1355 CURVE SMOOTH",
"482 1364 OFFCURVE",
"448 1370 OFFCURVE",
"419 1375 CURVE SMOOTH",
"355 1387 LINE",
"357 1464 LINE",
"361 1549 LINE",
"377 1545 OFFCURVE",
"399 1540 OFFCURVE",
"422 1536 CURVE SMOOTH",
"433 1534 OFFCURVE",
"445 1532 OFFCURVE",
"456 1530 CURVE SMOOTH",
"467 1528 OFFCURVE",
"477 1526 OFFCURVE",
"486 1525 CURVE",
"530 1517 OFFCURVE",
"579 1509 OFFCURVE",
"626 1495 CURVE SMOOTH",
"673 1481 OFFCURVE",
"717 1460 OFFCURVE",
"754 1431 CURVE",
"801 1380 OFFCURVE",
"813 1309 OFFCURVE",
"813 1237 CURVE SMOOTH",
"813 1206 OFFCURVE",
"812 1177 OFFCURVE",
"809 1149 CURVE SMOOTH",
"790 924 LINE SMOOTH",
"788 905 OFFCURVE",
"787 886 OFFCURVE",
"787 867 CURVE SMOOTH",
"787 820 OFFCURVE",
"795 774 OFFCURVE",
"820 739 CURVE",
"840 719 OFFCURVE",
"866 708 OFFCURVE",
"895 701 CURVE SMOOTH",
"924 694 OFFCURVE",
"955 693 OFFCURVE",
"984 693 CURVE SMOOTH",
"987 693 OFFCURVE",
"991 693 OFFCURVE",
"994 694 CURVE",
"997 694 OFFCURVE",
"1000 694 OFFCURVE",
"1003 694 CURVE SMOOTH",
"1006 694 OFFCURVE",
"1010 694 OFFCURVE",
"1015 694 CURVE",
"1026 693 OFFCURVE",
"1037 692 OFFCURVE",
"1052 692 CURVE",
"1041 536 LINE",
"990 536 LINE SMOOTH",
"958 536 OFFCURVE",
"922 536 OFFCURVE",
"889 529 CURVE SMOOTH",
"856 522 OFFCURVE",
"823 509 OFFCURVE",
"798 485 CURVE",
"799 485 LINE",
"776 460 OFFCURVE",
"761 428 OFFCURVE",
"752 395 CURVE SMOOTH",
"743 362 OFFCURVE",
"737 326 OFFCURVE",
"733 294 CURVE",
"732 269 OFFCURVE",
"730 244 OFFCURVE",
"728 219 CURVE",
"725 194 OFFCURVE",
"723 169 OFFCURVE",
"721 144 CURVE SMOOTH",
"716 72 LINE SMOOTH",
"711 24 OFFCURVE",
"706 -27 OFFCURVE",
"691 -75 CURVE SMOOTH",
"676 -124 OFFCURVE",
"653 -171 OFFCURVE",
"612 -207 CURVE",
"572 -235 OFFCURVE",
"530 -253 OFFCURVE",
"487 -265 CURVE SMOOTH",
"444 -278 OFFCURVE",
"401 -285 OFFCURVE",
"358 -292 CURVE",
"345 -295 OFFCURVE",
"331 -297 OFFCURVE",
"317 -299 CURVE SMOOTH",
"303 -301 OFFCURVE",
"289 -304 OFFCURVE",
"276 -307 CURVE",
"237 -313 LINE",
"238 -313 LINE",
"197 -321 LINE",
"198 -310 OFFCURVE",
"200 -297 OFFCURVE",
"203 -282 CURVE",
"205 -267 OFFCURVE",
"207 -251 OFFCURVE",
"209 -234 CURVE SMOOTH",
"211 -218 OFFCURVE",
"213 -202 OFFCURVE",
"216 -187 CURVE",
"218 -172 OFFCURVE",
"220 -158 OFFCURVE",
"221 -147 CURVE"
);
}
);
width = 1195;
}
);
unicode = 007D;
},
{
glyphname = asciitilde;
lastChange = "2012-10-19 02:34:44 -0500";
layers = (
{
layerId = "013FA67F-D7C9-4F04-AAC6-32032829ED9A";
name = "Bold Italic";
paths = (
{
closed = 1;
nodes = (
"1406 798 LINE",
"1429 805 LINE",
"1403 762 OFFCURVE",
"1386 712 OFFCURVE",
"1379 656 CURVE",
"1316 609 LINE SMOOTH",
"1272 574 OFFCURVE",
"1225 538 OFFCURVE",
"1176 511 CURVE SMOOTH",
"1127 483 OFFCURVE",
"1074 465 OFFCURVE",
"1018 465 CURVE",
"935 468 OFFCURVE",
"872 500 OFFCURVE",
"804 532 CURVE SMOOTH",
"745 561 LINE",
"677 601 OFFCURVE",
"604 637 OFFCURVE",
"524 640 CURVE",
"467 637 OFFCURVE",
"413 613 OFFCURVE",
"364 578 CURVE",
"364 579 LINE",
"297 534 OFFCURVE",
"223 484 OFFCURVE",
"155 444 CURVE",
"131 466 LINE",
"166 525 OFFCURVE",
"184 588 OFFCURVE",
"188 652 CURVE",
"237 693 OFFCURVE",
"292 731 OFFCURVE",
"350 757 CURVE SMOOTH",
"408 783 OFFCURVE",
"469 798 OFFCURVE",
"530 798 CURVE SMOOTH",
"619 798 OFFCURVE",
"709 774 OFFCURVE",
"793 739 CURVE",
"800 735 LINE",
"809 732 OFFCURVE",
"816 730 OFFCURVE",
"823 726 CURVE",
"891 698 OFFCURVE",
"968 669 OFFCURVE",
"1044 669 CURVE SMOOTH",
"1096 669 OFFCURVE",
"1147 684 OFFCURVE",
"1196 705 CURVE SMOOTH",
"1245 726 OFFCURVE",
"1293 755 OFFCURVE",
"1340 783 CURVE SMOOTH",
"1351 790 OFFCURVE",
"1364 798 OFFCURVE",
"1377 805 CURVE SMOOTH",
"1390 812 OFFCURVE",
"1402 818 OFFCURVE",
"1413 825 CURVE"
);
}
);
width = 1526;
}
);
unicode = 007E;
},
{
glyphname = exclamdown;
lastChange = "2012-10-19 02:34:44 -0500";
layers = (
{
layerId = "013FA67F-D7C9-4F04-AAC6-32032829ED9A";
name = "Bold Italic";
paths = (
{
closed = 1;
nodes = (
"563 1194 LINE",
"524 1182 OFFCURVE",
"486 1175 OFFCURVE",
"447 1175 CURVE SMOOTH",
"411 1175 OFFCURVE",
"371 1183 OFFCURVE",
"327 1198 CURVE",
"337 1336 LINE SMOOTH",
"338 1346 OFFCURVE",
"339 1358 OFFCURVE",
"340 1371 CURVE SMOOTH",
"341 1384 OFFCURVE",
"342 1398 OFFCURVE",
"343 1412 CURVE SMOOTH",
"345 1440 OFFCURVE",
"346 1468 OFFCURVE",
"349 1489 CURVE",
"394 1466 OFFCURVE",
"435 1455 OFFCURVE",
"470 1455 CURVE SMOOTH",
"506 1455 OFFCURVE",
"551 1466 OFFCURVE",
"607 1494 CURVE",
"577 1210 LINE"
);
},
{
closed = 1;
nodes = (
"458 12 LINE",
"427 29 OFFCURVE",
"391 37 OFFCURVE",
"351 37 CURVE SMOOTH",
"312 37 OFFCURVE",
"263 24 OFFCURVE",
"206 -4 CURVE",
"219 100 OFFCURVE",
"233 214 OFFCURVE",
"246 327 CURVE SMOOTH",
"259 440 OFFCURVE",
"272 554 OFFCURVE",
"283 658 CURVE SMOOTH",
"298 770 LINE SMOOTH",
"303 807 OFFCURVE",
"309 848 OFFCURVE",
"316 891 CURVE SMOOTH",
"322 934 OFFCURVE",
"327 975 OFFCURVE",
"332 1012 CURVE",
"371 1006 OFFCURVE",
"403 1003 OFFCURVE",
"428 1003 CURVE SMOOTH",
"455 1003 OFFCURVE",
"495 1006 OFFCURVE",
"539 1013 CURVE",
"538 982 OFFCURVE",
"536 947 OFFCURVE",
"535 909 CURVE SMOOTH",
"534 870 OFFCURVE",
"532 835 OFFCURVE",
"531 804 CURVE SMOOTH",
"530 755 OFFCURVE",
"529 705 OFFCURVE",
"526 657 CURVE SMOOTH",
"511 446 OFFCURVE",
"498 239 OFFCURVE",
"487 27 CURVE"
);
}
);
width = 749;
}
);
unicode = 00A1;
},
{
glyphname = cent;
lastChange = "2012-10-19 02:34:44 -0500";
layers = (
{
layerId = "013FA67F-D7C9-4F04-AAC6-32032829ED9A";
name = "Bold Italic";
paths = (
{
closed = 1;
nodes = (
"594 241 LINE",
"595 241 OFFCURVE",
"595 241 OFFCURVE",
"596 241 CURVE",
"597 240 OFFCURVE",
"598 240 OFFCURVE",
"599 240 CURVE",
"592 239 LINE",
"587 231 LINE",
"587 238 LINE",
"587 239 LINE",
"588 240 OFFCURVE",
"588 241 OFFCURVE",
"588 241 CURVE",
"589 241 LINE",
"598 246 LINE"
);
},
{
closed = 1;
nodes = (
"354 434 OFFCURVE",
"378 373 OFFCURVE",
"419 327 CURVE SMOOTH",
"460 281 OFFCURVE",
"519 252 OFFCURVE",
"588 241 CURVE",
"612 490 OFFCURVE",
"635 720 OFFCURVE",
"664 971 CURVE",
"556 959 OFFCURVE",
"479 890 OFFCURVE",
"428 802 CURVE SMOOTH",
"377 714 OFFCURVE",
"354 606 OFFCURVE",
"354 513 CURVE SMOOTH"
);
},
{
closed = 1;
nodes = (
"1040 987 LINE",
"1029 899 LINE",
"945 944 OFFCURVE",
"859 972 OFFCURVE",
"782 977 CURVE",
"767 850 OFFCURVE",
"753 728 OFFCURVE",
"740 606 CURVE SMOOTH",
"727 484 OFFCURVE",
"714 361 OFFCURVE",
"702 233 CURVE",
"785 240 OFFCURVE",
"872 265 OFFCURVE",
"964 305 CURVE",
"963 296 OFFCURVE",
"963 286 OFFCURVE",
"962 275 CURVE",
"961 251 OFFCURVE",
"959 225 OFFCURVE",
"957 202 CURVE SMOOTH",
"956 190 OFFCURVE",
"955 180 OFFCURVE",
"954 171 CURVE SMOOTH",
"950 131 OFFCURVE",
"946 80 OFFCURVE",
"945 41 CURVE",
"848 8 OFFCURVE",
"764 -5 OFFCURVE",
"680 -10 CURVE",
"670 -126 LINE",
"667 -149 OFFCURVE",
"666 -175 OFFCURVE",
"664 -202 CURVE SMOOTH",
"663 -216 OFFCURVE",
"662 -230 OFFCURVE",
"661 -243 CURVE SMOOTH",
"660 -256 OFFCURVE",
"659 -268 OFFCURVE",
"658 -279 CURVE",
"654 -279 OFFCURVE",
"649 -279 OFFCURVE",
"644 -278 CURVE SMOOTH",
"638 -277 OFFCURVE",
"632 -277 OFFCURVE",
"625 -276 CURVE",
"618 -276 OFFCURVE",
"612 -276 OFFCURVE",
"606 -275 CURVE SMOOTH",
"600 -274 OFFCURVE",
"595 -274 OFFCURVE",
"591 -274 CURVE SMOOTH",
"579 -274 OFFCURVE",
"557 -273 OFFCURVE",
"538 -270 CURVE",
"553 -116 LINE SMOOTH",
"555 -95 OFFCURVE",
"557 -75 OFFCURVE",
"558 -58 CURVE SMOOTH",
"559 -41 OFFCURVE",
"561 -22 OFFCURVE",
"564 0 CURVE",
"504 8 OFFCURVE",
"441 25 OFFCURVE",
"383 51 CURVE SMOOTH",
"325 77 OFFCURVE",
"273 113 OFFCURVE",
"237 164 CURVE SMOOTH",
"173 249 OFFCURVE",
"154 358 OFFCURVE",
"154 466 CURVE SMOOTH",
"154 543 OFFCURVE",
"162 633 OFFCURVE",
"187 721 CURVE SMOOTH",
"211 808 OFFCURVE",
"253 892 OFFCURVE",
"318 956 CURVE",
"317 956 LINE",
"365 1007 OFFCURVE",
"424 1042 OFFCURVE",
"487 1067 CURVE SMOOTH",
"550 1091 OFFCURVE",
"618 1104 OFFCURVE",
"682 1111 CURVE",
"685 1150 OFFCURVE",
"690 1192 OFFCURVE",
"695 1231 CURVE SMOOTH",
"713 1383 LINE",
"770 1383 LINE SMOOTH",
"785 1383 OFFCURVE",
"819 1385 OFFCURVE",
"834 1386 CURVE",
"828 1340 OFFCURVE",
"822 1295 OFFCURVE",
"816 1250 CURVE SMOOTH",
"810 1205 OFFCURVE",
"804 1159 OFFCURVE",
"799 1113 CURVE",
"883 1109 OFFCURVE",
"966 1095 OFFCURVE",
"1042 1060 CURVE",
"1026 1044 LINE",
"1049 1048 LINE"
);
}
);
width = 1204;
}
);
unicode = 00A2;
},
{
glyphname = sterling;
lastChange = "2012-10-19 02:34:44 -0500";
layers = (
{
layerId = "013FA67F-D7C9-4F04-AAC6-32032829ED9A";
name = "Bold Italic";
paths = (
{
closed = 1;
nodes = (
"1167 1382 LINE SMOOTH",
"1165 1372 OFFCURVE",
"1163 1361 OFFCURVE",
"1160 1348 CURVE",
"1155 1322 OFFCURVE",
"1149 1295 OFFCURVE",
"1145 1269 CURVE SMOOTH",
"1143 1256 OFFCURVE",
"1141 1244 OFFCURVE",
"1139 1233 CURVE",
"1059 1273 OFFCURVE",
"977 1302 OFFCURVE",
"897 1302 CURVE SMOOTH",
"862 1302 OFFCURVE",
"823 1296 OFFCURVE",
"786 1284 CURVE SMOOTH",
"749 1271 OFFCURVE",
"712 1251 OFFCURVE",
"687 1226 CURVE",
"659 1190 OFFCURVE",
"642 1147 OFFCURVE",
"630 1102 CURVE SMOOTH",
"618 1057 OFFCURVE",
"611 1009 OFFCURVE",
"606 965 CURVE SMOOTH",
"602 938 OFFCURVE",
"599 911 OFFCURVE",
"596 886 CURVE SMOOTH",
"593 860 OFFCURVE",
"590 833 OFFCURVE",
"587 806 CURVE SMOOTH",
"583 778 LINE",
"600 778 OFFCURVE",
"617 778 OFFCURVE",
"633 777 CURVE SMOOTH",
"649 776 OFFCURVE",
"665 776 OFFCURVE",
"681 776 CURVE SMOOTH",
"721 775 OFFCURVE",
"764 774 OFFCURVE",
"811 774 CURVE SMOOTH",
"858 773 OFFCURVE",
"901 773 OFFCURVE",
"941 772 CURVE",
"932 702 LINE",
"926 636 LINE",
"729 639 LINE",
"569 643 LINE",
"523 255 LINE",
"694 254 OFFCURVE",
"866 246 OFFCURVE",
"1045 227 CURVE",
"1041 174 OFFCURVE",
"1038 106 OFFCURVE",
"1037 55 CURVE SMOOTH",
"1037 48 OFFCURVE",
"1037 38 OFFCURVE",
"1037 24 CURVE",
"1036 10 OFFCURVE",
"1036 0 OFFCURVE",
"1036 -7 CURVE",
"844 18 OFFCURVE",
"662 29 OFFCURVE",
"483 29 CURVE SMOOTH",
"350 29 OFFCURVE",
"205 22 OFFCURVE",
"46 7 CURVE",
"49 22 OFFCURVE",
"53 38 OFFCURVE",
"56 56 CURVE SMOOTH",
"59 74 OFFCURVE",
"63 92 OFFCURVE",
"67 111 CURVE SMOOTH",
"74 147 OFFCURVE",
"81 183 OFFCURVE",
"86 214 CURVE",
"92 244 LINE",
"167 249 OFFCURVE",
"239 252 OFFCURVE",
"314 255 CURVE",
"319 289 OFFCURVE",
"323 322 OFFCURVE",
"328 354 CURVE SMOOTH",
"332 385 OFFCURVE",
"336 417 OFFCURVE",
"341 449 CURVE SMOOTH",
"345 480 OFFCURVE",
"349 512 OFFCURVE",
"353 545 CURVE SMOOTH",
"356 577 OFFCURVE",
"360 610 OFFCURVE",
"364 645 CURVE",
"307 645 OFFCURVE",
"237 646 OFFCURVE",
"182 647 CURVE",
"199 786 LINE",
"229 785 OFFCURVE",
"259 784 OFFCURVE",
"290 783 CURVE SMOOTH",
"320 782 OFFCURVE",
"350 782 OFFCURVE",
"380 781 CURVE",
"390 880 LINE SMOOTH",
"392 899 OFFCURVE",
"394 919 OFFCURVE",
"396 939 CURVE SMOOTH",
"399 978 OFFCURVE",
"404 1026 OFFCURVE",
"417 1090 CURVE SMOOTH",
"429 1154 OFFCURVE",
"449 1217 OFFCURVE",
"482 1275 CURVE SMOOTH",
"514 1333 OFFCURVE",
"562 1379 OFFCURVE",
"622 1410 CURVE SMOOTH",
"682 1441 OFFCURVE",
"747 1459 OFFCURVE",
"812 1468 CURVE SMOOTH",
"845 1472 OFFCURVE",
"876 1474 OFFCURVE",
"905 1474 CURVE SMOOTH",
"993 1474 OFFCURVE",
"1080 1459 OFFCURVE",
"1164 1434 CURVE",
"1149 1416 LINE",
"1174 1420 LINE"
);
}
);
width = 1305;
}
);
unicode = 00A3;
},
